<svg width="96" height="96" viewBox="0 0 96 96" fill="none" xmlns="http://www.w3.org/2000/svg">
<g filter="url(#filter0_d_7_330)">
<circle cx="48" cy="48" r="24" fill="#FFA800"/>
</g>
<g clip-path="url(#clip0_7_330)">
<path d="M52.543 50.3301C52.2949 50.3301 52.0938 50.5312 52.0938 50.7793V53.8789C52.0938 55.1174 51.0862 56.125 49.8477 56.125H44.9975C44.7495 56.125 44.5485 56.3259 44.5483 56.5739L44.5477 57.467L43.4755 56.3949C43.4061 56.2356 43.2472 56.125 43.0635 56.125H40.1445C38.906 56.125 37.8984 55.1174 37.8984 53.8789V46.9609C37.8984 45.7224 38.906 44.7148 40.1445 44.7148H44.6816C44.9297 44.7148 45.1309 44.5137 45.1309 44.2656C45.1309 44.0175 44.9297 43.8164 44.6816 43.8164H40.1445C38.4106 43.8164 37 45.227 37 46.9609V53.8789C37 55.6128 38.4106 57.0234 40.1445 57.0234H42.8335L44.6785 58.8684C44.7644 58.9544 44.8793 59 44.9962 59C45.054 59 45.1124 58.9888 45.1678 58.9659C45.3357 58.8964 45.4452 58.7327 45.4453 58.5511L45.4464 57.0234H49.8477C51.5816 57.0234 52.9922 55.6128 52.9922 53.8789V50.7793C52.9922 50.5312 52.791 50.3301 52.543 50.3301Z" fill="white"/>
<path d="M53.4708 36H52.3339C48.7337 36 45.8047 38.929 45.8047 42.5292C45.8047 46.1294 48.7337 49.0584 52.3339 49.0584H53.4708C54.0327 49.0584 54.5889 48.987 55.128 48.8459L56.8074 50.5245C56.8934 50.6103 57.0082 50.656 57.1251 50.656C57.183 50.656 57.2414 50.6448 57.297 50.6218C57.4648 50.5522 57.5742 50.3884 57.5742 50.2068V47.6078C58.2853 47.0319 58.876 46.3045 59.2905 45.4919C59.7613 44.5689 60 43.5721 60 42.5292C60 38.929 57.071 36 53.4708 36ZM56.8547 47.0299C56.7421 47.1147 56.6758 47.2476 56.6758 47.3887V49.1227L55.5765 48.024C55.491 47.9386 55.3762 47.8925 55.2589 47.8925C55.2149 47.8925 55.1704 47.899 55.127 47.9124C54.5923 48.0767 54.0351 48.16 53.4708 48.16H52.3339C49.229 48.16 46.7031 45.634 46.7031 42.5292C46.7031 39.4244 49.2291 36.8984 52.3339 36.8984H53.4708C56.5757 36.8984 59.1016 39.4244 59.1016 42.5292C59.1016 44.314 58.2826 45.9545 56.8547 47.0299Z" fill="white"/>
<path d="M54.9253 40.9154C54.8605 39.9749 54.1024 39.2168 53.1619 39.152C52.6288 39.1154 52.12 39.2952 51.7306 39.6588C51.3465 40.0173 51.1262 40.5241 51.1262 41.0493C51.1262 41.2974 51.3274 41.4985 51.5754 41.4985C51.8235 41.4985 52.0247 41.2974 52.0247 41.0493C52.0247 40.7681 52.138 40.5075 52.3436 40.3156C52.5491 40.1238 52.8176 40.0289 53.1002 40.0484C53.5956 40.0825 53.9949 40.4818 54.029 40.9772C54.0635 41.4775 53.7353 41.9196 53.2486 42.0285C52.8543 42.1167 52.5789 42.4594 52.5789 42.8617V43.941C52.5789 44.1891 52.7801 44.3902 53.0281 44.3902C53.2762 44.3902 53.4773 44.1891 53.4773 43.941V42.8976C54.3825 42.679 54.9898 41.8507 54.9253 40.9154Z" fill="white"/>
<path d="M53.3457 45.4003C53.2622 45.3167 53.1463 45.2687 53.0281 45.2687C52.91 45.2687 52.7941 45.3167 52.7105 45.4003C52.627 45.4839 52.5789 45.5998 52.5789 45.7179C52.5789 45.8365 52.627 45.9524 52.7105 46.0359C52.7941 46.1195 52.91 46.1671 53.0281 46.1671C53.1463 46.1671 53.2622 46.1195 53.3457 46.0359C53.4293 45.9519 53.4774 45.8365 53.4774 45.7179C53.4774 45.5998 53.4292 45.4839 53.3457 45.4003Z" fill="white"/>
<path d="M49.3535 49.9258H39.875C39.6269 49.9258 39.4258 50.1269 39.4258 50.375C39.4258 50.6231 39.6269 50.8242 39.875 50.8242H49.3535C49.6016 50.8242 49.8027 50.6231 49.8027 50.375C49.8027 50.1269 49.6016 49.9258 49.3535 49.9258Z" fill="white"/>
<path d="M49.6711 52.573C49.5876 52.4895 49.4717 52.4414 49.3535 52.4414C49.2354 52.4414 49.1195 52.4895 49.0359 52.573C48.9523 52.6566 48.9043 52.7725 48.9043 52.8906C48.9043 53.0088 48.9524 53.1247 49.0359 53.2082C49.1195 53.2918 49.2354 53.3398 49.3535 53.3398C49.4717 53.3398 49.5876 53.2918 49.6711 53.2082C49.7547 53.1247 49.8027 53.0092 49.8027 52.8906C49.8027 52.7725 49.7546 52.6566 49.6711 52.573Z" fill="white"/>
<path d="M47.5866 52.4414H39.875C39.6269 52.4414 39.4258 52.6425 39.4258 52.8906C39.4258 53.1387 39.6269 53.3398 39.875 53.3398H47.5866C47.8347 53.3398 48.0358 53.1387 48.0358 52.8906C48.0358 52.6425 47.8347 52.4414 47.5866 52.4414Z" fill="white"/>
<path d="M46.4336 47.4102H39.875C39.6269 47.4102 39.4258 47.6113 39.4258 47.8594C39.4258 48.1075 39.6269 48.3086 39.875 48.3086H46.4336C46.6817 48.3086 46.8828 48.1075 46.8828 47.8594C46.8828 47.6113 46.6817 47.4102 46.4336 47.4102Z" fill="white"/>
</g>
<defs>
<filter id="filter0_d_7_330" x="0" y="0" width="96" height="96" filterUnits="userSpaceOnUse" color-interpolation-filters="sRGB">
<feFlood flood-opacity="0" result="BackgroundImageFix"/>
<feColorMatrix in="SourceAlpha" type="matrix" values="0 0 0 0 0 0 0 0 0 0 0 0 0 0 0 0 0 0 127 0" result="hardAlpha"/>
<feMorphology radius="1" operator="dilate" in="SourceAlpha" result="effect1_dropShadow_7_330"/>
<feOffset/>
<feGaussianBlur stdDeviation="11.5"/>
<feComposite in2="hardAlpha" operator="out"/>
<feColorMatrix type="matrix" values="0 0 0 0 0.207843 0 0 0 0 0.513726 0 0 0 0 0.788235 0 0 0 0.11 0"/>
<feBlend mode="normal" in2="BackgroundImageFix" result="effect1_dropShadow_7_330"/>
<feBlend mode="normal" in="SourceGraphic" in2="effect1_dropShadow_7_330" result="shape"/>
</filter>
<clipPath id="clip0_7_330">
<rect width="23" height="23" fill="white" transform="translate(37 36)"/>
</clipPath>
</defs>
</svg>
