<svg width="40" height="40" viewBox="0 0 40 40" fill="none" xmlns="http://www.w3.org/2000/svg">
<path opacity="0.8" d="M40 20C40 8.9543 31.0457 0 20 0C8.9543 0 0 8.9543 0 20C0 31.0457 8.9543 40 20 40C31.0457 40 40 31.0457 40 20Z" fill="white"/>
<path d="M18.5013 19.9977L22.7296 15.5389C22.9029 15.3692 23 15.1402 23 14.9016C23 14.663 22.9029 14.434 22.7296 14.2643C22.6444 14.1806 22.5429 14.1141 22.4309 14.0687C22.319 14.0234 22.1988 14 22.0774 14C21.956 14 21.8359 14.0234 21.7239 14.0687C21.6119 14.1141 21.5104 14.1806 21.4252 14.2643L16.2694 19.3627C16.0968 19.5327 16 19.7616 16 20C16 20.2384 16.0968 20.4673 16.2694 20.6373L21.4252 25.7357C21.5104 25.8194 21.6119 25.8859 21.7239 25.9313C21.8359 25.9766 21.956 26 22.0774 26C22.1988 26 22.319 25.9766 22.4309 25.9313C22.5429 25.8859 22.6444 25.8194 22.7296 25.7357C22.9029 25.566 23 25.337 23 25.0984C23 24.8598 22.9029 24.6308 22.7296 24.4611L18.5013 19.9977Z" fill="#525252"/>
</svg>
