<svg width="340" height="340" viewBox="0 0 340 340" fill="none" xmlns="http://www.w3.org/2000/svg">
<path d="M318 160C318 241.738 251.738 308 170 308C88.2619 308 22 241.738 22 160C22 78.2619 88.2619 12 170 12C251.738 12 318 78.2619 318 160Z" fill="#AEF1D8"/>
<g filter="url(#filter0_d_6_139)">
<circle cx="170" cy="160" r="130" fill="url(#paint0_linear_6_139)" shape-rendering="crispEdges"/>
</g>
<g clip-path="url(#clip0_6_139)">
<path d="M144.598 117.77L138.832 119.571C138.706 119.618 138.659 119.775 138.753 119.869C139.02 120.12 139.38 120.229 139.74 120.167L144.88 119.289C144.88 119.289 147.574 119.399 151.256 121.592L151.82 119.65C151.82 119.65 150.677 118.459 150.583 118.459C150.489 118.459 144.598 117.77 144.598 117.77Z" fill="#FF948C"/>
<path d="M143.501 117.174L137.86 119.352C137.735 119.399 137.704 119.571 137.813 119.665C138.095 119.9 138.456 119.994 138.816 119.9L143.893 118.678C143.893 118.678 146.509 118.992 150.316 120.95L150.833 118.6C150.833 118.6 149.611 117.488 149.517 117.488C149.423 117.488 143.501 117.19 143.501 117.19V117.174Z" fill="#FF948C"/>
<path d="M149.204 115.075H144.582C143.955 115.075 143.344 115.231 142.78 115.513L136.466 118.741C136.356 118.788 136.325 118.913 136.388 119.007C136.654 119.446 137.171 119.65 137.672 119.524L143.814 117.394L148.906 119.869C148.906 119.869 150.677 121.874 153.638 122.438C157.022 123.081 158.417 121.483 158.417 121.483C160.281 118.663 149.204 115.09 149.204 115.09V115.075Z" fill="#FF948C"/>
<path d="M151.914 132.763C151.914 132.763 153.34 137.009 153.027 141.631C152.995 142.054 152.619 142.383 152.181 142.321L151.115 142.18L151.914 132.763Z" fill="#FF948C"/>
<path d="M130.183 131.541C130.183 131.541 129.572 135.537 126.956 136.398C128.914 136.116 131.28 134.236 131.28 134.236L131.452 132.199L130.183 131.526V131.541Z" fill="#46161C"/>
<path d="M156.474 264.95C156.474 265.076 156.427 265.201 156.364 265.311H154.547C154.468 265.201 154.437 265.076 154.437 264.95C154.437 264.527 154.891 264.167 155.455 264.167C156.019 264.167 156.474 264.512 156.474 264.95Z" fill="#FF948C"/>
<path d="M155.847 264.841C155.847 265.013 155.8 265.17 155.69 265.311H153.34C153.246 265.17 153.184 265.013 153.184 264.841C153.184 264.292 153.779 263.838 154.515 263.838C155.252 263.838 155.847 264.292 155.847 264.841Z" fill="#FF948C"/>
<path d="M150.348 197.361C137.328 194.979 103.423 205.116 103.423 205.116L100.305 214.971C100.305 214.971 102.811 229.933 108.985 229.792C111.82 229.73 114.625 229.416 117.351 228.931C119.137 228.617 120.892 228.21 122.616 227.756C124.151 227.348 125.655 226.878 127.128 226.377C127.849 226.142 128.554 225.876 129.243 225.625C129.212 226.064 129.18 226.534 129.165 227.019C129.133 228.633 129.306 230.45 129.87 232.268C129.87 232.268 131.609 232.55 134.304 232.754C138.236 233.051 144.175 233.192 149.58 232.08C149.815 232.033 150.034 231.986 150.254 231.939C153.889 226.69 162.145 199.538 150.348 197.376V197.361Z" fill="#7B504A"/>
<path d="M117.727 249.487L115.957 265.311L108.938 265.279L80.2655 256.208L59.9444 249.784C59.9444 249.784 59.8347 249.753 59.7877 249.737C59.7093 249.722 59.631 249.69 59.5527 249.675C57.0928 249.11 54.5546 250.536 53.8966 253.012C53.8496 253.168 53.8182 253.341 53.7869 253.513C53.7556 253.732 53.7399 253.936 53.7399 254.171C53.7399 256.239 53.7399 257.336 57.7509 260.36L50.6377 261.77C50.387 261.77 50.1206 261.739 49.8856 261.692C49.4313 261.598 49.0082 261.409 48.6165 261.159C46.6267 260.015 46 258.088 46 256.098C46 254.735 46.282 253.341 46.5954 252.134C46.7521 251.555 46.9087 251.022 47.0654 250.568C47.7078 248.515 47.8018 245.554 47.8018 243.846C47.8018 239.35 52.3455 239.35 52.9878 239.35C54.3509 239.35 56.9205 241.214 56.9205 241.214L82.224 242.765L106.305 244.254L117.727 249.487Z" fill="url(#paint1_linear_6_139)"/>
<path d="M115.957 265.311C103.94 267.504 87.175 264.261 81.2212 258.229C81.1116 258.119 81.0176 258.01 80.9235 257.916C80.3282 256.568 79.9521 255.237 79.7485 253.983C78.9024 248.688 81.1272 244.457 82.224 242.765C82.553 242.248 82.788 241.966 82.788 241.966C85.6082 241.637 89.3998 241.355 92.6431 241.715C86.8146 229.15 81.3152 213.89 80.9235 209.331C81.5033 205.664 82.459 202.766 83.4461 200.557C85.2009 196.624 87.0497 194.854 87.0497 194.854L104.143 203.377L114.531 208.563C114.531 208.563 115.189 211.963 115.941 217.023C115.957 217.164 115.988 217.305 116.004 217.446C116.082 217.995 116.16 218.559 116.239 219.139C116.725 222.632 117.21 226.706 117.539 230.905C117.743 233.443 117.9 236.012 117.947 238.535C117.947 238.692 119.952 261.927 115.972 265.326L115.957 265.311Z" fill="#946761"/>
<path d="M130.606 199.585C134.022 204.85 125.64 213.435 115.925 217.023C115.424 217.211 114.923 217.384 114.406 217.54C113.575 217.791 112.761 218.01 111.93 218.183C111.178 218.292 110.442 218.371 109.721 218.449C109.423 218.48 109.126 218.512 108.828 218.527C103.642 218.982 99.3019 218.621 95.6983 217.822C93.5205 217.352 91.6247 216.71 89.9639 215.989C88.7731 215.472 87.7077 214.924 86.7677 214.36C82.6314 211.9 80.9079 209.299 80.9079 209.299C84.3391 170.271 100.743 153.288 112.62 146.692C118.135 143.621 122.663 142.791 124.464 143.026C124.621 143.041 124.778 143.026 124.934 143.026C125.342 143.026 125.749 143.057 126.141 143.104C128.679 143.417 131.045 144.733 132.659 146.833C133.771 148.274 134.664 149.857 135.338 151.533C135.996 153.178 136.419 154.902 136.623 156.672C136.748 157.831 136.826 159.1 136.842 160.432C136.842 160.542 136.842 160.667 136.842 160.793C136.842 166.135 135.651 172.481 131.014 177.071C130.873 177.212 130.732 177.337 130.606 177.478C127.614 180.361 123.618 182.398 120.422 185.939C120.062 186.346 119.701 186.769 119.357 187.224C119.043 188.07 118.777 188.884 118.542 189.636C118.417 190.028 118.307 190.42 118.213 190.78C117.931 191.83 117.868 192.692 117.962 193.397C118.119 194.509 118.683 195.261 119.482 195.81C122.475 197.831 128.851 196.859 130.591 199.538L130.606 199.585Z" fill="#A98C88"/>
<path d="M175.808 157.738C175.808 157.879 175.745 158.02 175.635 158.098L167.504 164.631L164.684 160.464L164.511 156.578L167.363 155.591L169.415 154.886L173.364 153.523C173.583 153.445 173.818 153.539 173.928 153.742C173.959 153.805 173.975 153.883 173.975 153.962C173.975 154.134 173.881 154.291 173.724 154.369L168.287 157.095L174.711 154.322C174.946 154.228 175.197 154.322 175.322 154.541C175.353 154.604 175.369 154.682 175.369 154.761C175.369 154.933 175.275 155.09 175.118 155.168L169.274 158.427L174.821 155.857C175.056 155.748 175.338 155.857 175.447 156.077C175.479 156.139 175.494 156.218 175.494 156.28C175.494 156.437 175.416 156.594 175.275 156.688L170.105 159.9L175.15 157.315C175.385 157.189 175.667 157.283 175.792 157.534C175.824 157.597 175.839 157.675 175.839 157.738H175.808Z" fill="#FF948C"/>
<path d="M152.322 187.474C150.959 187.647 149.455 185.062 148.499 181.27C148.201 180.064 147.951 178.748 147.778 177.338C147.23 172.904 147.621 168.861 148.64 167.201C148.781 166.981 148.922 166.809 149.079 166.668C149.282 166.496 149.517 166.402 149.752 166.402C149.831 166.402 149.893 166.433 149.972 166.496C150.786 167.185 151.413 171.603 152.87 176.1C153.058 176.664 153.262 177.244 153.466 177.808C155.549 183.276 154.108 187.239 152.322 187.459V187.474Z" fill="#7B504A"/>
<path d="M152.322 187.49C141.072 191.877 133.317 192.018 128.428 191.094C125.53 190.545 123.618 189.621 122.584 188.994C121.942 188.603 121.629 188.321 121.629 188.321C121.629 188.321 111.742 170.162 111.194 155.826C111.194 155.481 111.209 155.137 111.288 154.792C111.695 152.818 113.325 150.75 114.97 148.979C116.458 147.381 118.37 146.379 120.375 146.018C123.164 145.517 126.141 146.269 128.381 148.321C129.008 148.885 129.509 149.512 129.838 150.17C132.063 154.714 133.27 164.24 134.037 172.528C138.268 170.475 142.357 168.924 145.193 167.937C146.039 167.639 146.791 167.389 147.386 167.201C148.389 166.872 149 166.699 149.047 166.668C148.891 166.793 148.75 166.981 148.609 167.201C147.59 168.861 147.214 172.904 147.762 177.338C147.935 178.732 148.185 180.064 148.483 181.27C148.734 182.242 149 183.135 149.314 183.918C149.658 184.811 150.034 185.579 150.442 186.158C151.053 187.067 151.695 187.553 152.306 187.474L152.322 187.49Z" fill="#BAA3A0"/>
<path d="M169.556 161.169C169.556 161.905 169.321 162.641 168.867 163.268C167.927 164.537 166.564 165.43 165.013 165.791L163.086 166.229C161.158 167.702 159.357 169.3 157.68 170.977C155.988 172.653 154.406 174.392 152.902 176.116C151.382 177.87 149.925 179.609 148.53 181.27C148.452 180.972 148.389 180.659 148.311 180.346C148.17 179.719 148.06 179.061 147.95 178.372C147.903 178.027 147.856 177.682 147.809 177.338C147.59 175.489 147.512 173.703 147.59 172.136C147.59 171.979 147.606 171.823 147.621 171.666C147.653 171.118 147.715 170.585 147.794 170.099C147.809 169.958 147.841 169.833 147.856 169.692C147.919 169.363 147.982 169.049 148.06 168.752C148.232 168.109 148.436 167.592 148.671 167.201C149.11 166.981 149.549 166.746 150.003 166.511C150.081 166.464 150.16 166.433 150.254 166.386C151.507 165.728 152.823 165.007 154.202 164.208C155.675 163.362 157.21 162.453 158.84 161.435L159.028 161.122C159.67 160.088 160.485 159.163 161.409 158.396C161.879 158.004 162.396 157.659 162.929 157.346C163.446 157.048 163.979 156.782 164.543 156.578C166.031 155.998 167.723 156.656 168.46 158.082L169.212 159.555C169.462 160.056 169.603 160.605 169.603 161.153L169.556 161.169Z" fill="url(#paint2_linear_6_139)"/>
<path d="M58.1582 261.018C58.1582 261.535 57.5002 261.958 56.7011 261.958C56.3878 261.958 56.0901 261.895 55.8394 261.77C55.479 261.597 55.2283 261.315 55.2283 261.002C55.2283 260.955 55.2283 260.892 55.244 260.845C55.291 260.657 55.4163 260.501 55.5887 260.375C55.855 260.172 56.2467 260.046 56.6854 260.046C57.0928 260.046 57.4532 260.156 57.7195 260.328C57.7195 260.328 57.7352 260.328 57.7509 260.36C58.0015 260.532 58.1425 260.751 58.1425 261.002L58.1582 261.018Z" fill="url(#paint3_linear_6_139)"/>
<path d="M56.3251 261.143C56.3251 261.41 56.1371 261.645 55.8394 261.786C55.6201 261.895 55.3381 261.974 55.0404 261.974C54.7897 261.974 54.539 261.927 54.3353 261.833C53.9906 261.692 53.7713 261.441 53.7556 261.159C53.7556 261.159 53.7556 261.143 53.7556 261.127C53.7556 260.892 53.9123 260.673 54.163 260.516C54.3823 260.375 54.6957 260.297 55.0247 260.297C55.2284 260.297 55.4164 260.328 55.5887 260.375C55.8081 260.438 55.9804 260.548 56.1058 260.673C56.2311 260.798 56.3095 260.955 56.3095 261.112L56.3251 261.143Z" fill="url(#paint4_linear_6_139)"/>
<path d="M54.8367 261.206C54.8367 261.456 54.633 261.691 54.3353 261.817C54.1473 261.895 53.9123 261.958 53.6772 261.958C53.3482 261.958 53.0505 261.879 52.8468 261.738C52.7058 261.644 52.5962 261.535 52.5492 261.394C52.5178 261.331 52.5178 261.268 52.5178 261.206C52.5178 261.033 52.5962 260.892 52.7372 260.767C52.9409 260.579 53.2855 260.454 53.6772 260.454C53.8496 260.454 54.0219 260.485 54.1786 260.532C54.4606 260.61 54.68 260.767 54.774 260.971C54.821 261.049 54.8367 261.127 54.8367 261.221V261.206Z" fill="url(#paint5_linear_6_139)"/>
<path d="M53.1132 261.284C53.1132 261.457 53.0192 261.613 52.8469 261.739C52.6589 261.88 52.3768 261.958 52.0635 261.958C51.8285 261.958 51.6091 261.911 51.4211 261.817C51.3271 261.77 51.2644 261.723 51.2017 261.66C51.0921 261.551 51.0137 261.425 51.0137 261.284C51.0137 261.112 51.1234 260.955 51.2801 260.83C51.4681 260.689 51.7501 260.61 52.0635 260.61C52.3142 260.61 52.5492 260.673 52.7372 260.767C52.9722 260.892 53.1132 261.08 53.1132 261.284Z" fill="url(#paint6_linear_6_139)"/>
<path d="M51.7658 261.362C51.7658 261.362 51.7501 261.504 51.7031 261.566C51.6404 261.66 51.5464 261.754 51.4211 261.817C51.2644 261.911 51.0607 261.958 50.8257 261.958C50.528 261.958 50.2617 261.864 50.0893 261.723C49.964 261.629 49.9013 261.504 49.9013 261.362C49.9013 261.033 50.3243 260.751 50.8414 260.751C50.9981 260.751 51.1547 260.783 51.2957 260.83C51.5778 260.939 51.7814 261.127 51.7814 261.362H51.7658Z" fill="url(#paint7_linear_6_139)"/>
<path d="M146.963 216.522C141.119 222.444 132.11 225.954 129.165 227.004C129.165 226.518 129.196 226.048 129.243 225.609C129.917 225.359 130.575 225.092 131.233 224.826C131.437 224.748 131.625 224.669 131.828 224.575C132.032 224.497 132.236 224.403 132.439 224.325C132.439 224.325 132.471 224.325 132.486 224.309C132.659 224.231 132.831 224.152 133.003 224.09C134.915 223.259 136.748 222.382 138.487 221.489C138.659 221.395 138.847 221.301 139.02 221.207C139.177 221.113 139.349 221.034 139.506 220.94C139.929 220.705 140.352 220.486 140.775 220.251C140.916 220.173 141.057 220.094 141.198 220.016C141.37 219.922 141.542 219.812 141.73 219.718C142.075 219.515 142.42 219.327 142.764 219.123C143.626 218.622 144.457 218.12 145.24 217.634C145.381 217.54 145.522 217.462 145.647 217.368C145.804 217.274 145.945 217.18 146.102 217.086C146.399 216.898 146.697 216.71 146.979 216.522H146.963Z" fill="#5C3C38"/>
<path d="M155.205 264.574C155.205 264.841 155.126 265.091 154.985 265.311H136.67C135.197 265.311 133.928 264.277 133.63 262.835C133.552 262.459 133.52 262.099 133.52 261.739C133.52 259.059 135.463 257.07 135.463 257.07C135.902 249.111 135.228 240.431 134.304 232.722C138.236 233.02 144.174 233.161 149.58 232.049L148.969 234.211L142.545 256.913C142.373 257.524 142.608 258.182 143.109 258.558C145.757 260.469 145.632 261.472 150.598 262.835C150.959 262.929 151.335 263.039 151.758 263.133C151.758 263.133 152.854 262.992 153.215 262.992C154.312 262.992 155.205 263.697 155.205 264.59V264.574Z" fill="url(#paint8_linear_6_139)"/>
<path d="M129.854 210.098C128.71 211.352 127.567 212.48 126.517 213.467C122.647 217.086 121.112 222.554 122.584 227.646L122.616 227.74C120.892 228.21 119.137 228.602 117.351 228.915C116.96 224.56 116.411 220.408 115.91 217.008C125.64 213.42 134.006 204.818 130.591 199.57C130.669 199.664 134.899 204.568 129.838 210.083L129.854 210.098Z" fill="#5C3C38"/>
<path d="M143.187 142.697L140.258 146.003V146.3L140.305 147.037C140.336 147.679 139.976 148.274 139.412 148.556L137.907 149.293C136.779 151.533 136.325 154.087 136.623 156.625C136.623 156.641 136.623 156.656 136.623 156.688C136.748 157.847 136.826 159.116 136.842 160.448C136.764 160.37 133.928 157.095 132.502 151.329C131.123 145.721 124.95 143.245 124.464 143.041C124.621 143.041 124.778 143.041 124.934 143.041C126.219 142.822 127.567 142.133 128.867 141.193C130.873 139.751 132.784 137.746 134.304 135.944C136.2 133.704 137.453 131.808 137.453 131.808L145.6 139.955L143.172 142.697H143.187Z" fill="#FF948C"/>
<path d="M89.9639 216.021C88.7731 215.504 87.7077 214.955 86.7676 214.391L89.6192 212.636L89.9639 216.021Z" fill="#7B504A"/>
<path d="M114.406 217.54C113.591 217.791 112.761 218.01 111.93 218.183C111.178 218.292 110.442 218.371 109.721 218.449L111.789 216.005L114.39 217.525L114.406 217.54Z" fill="#7B504A"/>
<path d="M152.901 127.766C152.839 128.345 152.322 128.768 151.742 128.706C151.147 128.643 150.285 128.565 149.204 128.502C144.88 128.267 137.218 128.424 130.152 131.416C129.729 131.588 129.243 131.353 129.133 130.915C128.773 129.442 128.945 128.11 129.133 127.295C129.259 126.747 129.619 126.293 130.136 126.073C132.439 125.039 139.741 122.219 149.11 123.629C149.846 123.739 150.614 123.88 151.382 124.052C152.901 125.071 153.011 126.716 152.901 127.797V127.766Z" fill="#CBBAB8"/>
<path d="M151.397 124.021C150.097 123.739 148.828 123.535 147.59 123.41C138.973 122.501 132.33 125.071 130.167 126.058C130.167 126.058 132.001 119.086 140.383 118.114C148.765 117.127 151.397 124.037 151.397 124.037V124.021Z" fill="#A98C88"/>
<path d="M151.053 147.616C149.141 148.353 146.775 148.008 146.775 148.008C146.775 148.008 143.94 146.864 141.025 145.156C140.132 144.624 139.224 144.044 138.393 143.433C137.907 143.073 137.657 142.446 137.516 141.851C136.701 138.686 136.732 138.372 136.732 138.372C136.732 138.372 136.779 136.868 136.826 135.49C136.858 134.377 136.889 133.343 136.889 133.265C136.889 133.092 136.56 131.573 137.187 131.15C137.813 130.742 139.255 130.116 140.508 130.037C141.746 129.975 143.234 129.489 145.35 129.661C147.465 129.834 149.987 129.802 150.395 130.006C150.802 130.21 151.053 130.319 151.115 130.429C151.178 130.539 151.773 131.823 151.773 131.823C151.773 131.823 152.228 134.033 152.228 136.163C152.917 139.375 152.149 144.201 151.084 147.632L151.053 147.616Z" fill="url(#paint9_linear_6_139)"/>
<path d="M152.494 131.823C149.627 132.701 145.647 132.262 143.595 131.416C140.461 130.131 139.129 133.249 139.129 133.249L137.359 138.122C137.359 138.122 133.959 140.566 128.303 141.287C127.833 141.349 127.52 140.801 127.833 140.425C127.833 140.425 127.864 140.394 127.864 140.378C129.697 138.184 130.591 135.364 130.34 132.544C130.309 132.215 130.261 131.87 130.199 131.541C130.199 131.463 130.183 131.416 130.183 131.416C138.988 127.672 148.75 128.377 151.758 128.706C151.758 128.706 152.525 130.304 152.51 131.823H152.494Z" fill="#6B222F"/>
<path d="M139.819 135.678C139.819 137.699 138.534 139.359 136.92 139.516C136.826 139.516 136.732 139.516 136.654 139.516C135.213 139.516 133.99 138.357 133.614 136.743C133.536 136.398 133.489 136.038 133.489 135.646C133.489 133.515 134.915 131.776 136.67 131.776C138.424 131.776 139.85 133.5 139.85 135.646L139.819 135.678Z" fill="url(#paint10_linear_6_139)"/>
<path d="M136.372 139.124C137.713 139.124 138.8 137.799 138.8 136.163C138.8 134.528 137.713 133.202 136.372 133.202C135.031 133.202 133.943 134.528 133.943 136.163C133.943 137.799 135.031 139.124 136.372 139.124Z" fill="#FF948C"/>
<path d="M82.224 242.781C80.9862 244.708 78.2757 249.909 80.2812 256.224L59.96 249.8C59.96 249.8 59.8503 249.768 59.8033 249.753C61.7775 250.223 75.3458 253.513 78.6987 254.218C77.837 245.241 82.13 242.843 82.224 242.796V242.781Z" fill="#FF948C"/>
<path d="M136.2 234.571C136.764 243.799 136.027 254.14 135.463 257.085C135.902 249.126 135.228 240.446 134.304 232.738C138.236 233.036 144.175 233.177 149.58 232.064C149.376 232.143 142.639 234.571 136.2 234.571Z" fill="#FF948C"/>
<path opacity="0.75" d="M151.397 135.27C151.131 135.458 150.865 135.615 150.567 135.74C150.269 135.866 149.956 135.928 149.627 135.96C149.298 135.991 148.985 135.975 148.671 135.913C148.358 135.85 148.06 135.772 147.762 135.662C148.076 135.662 148.389 135.662 148.703 135.693C148.859 135.693 149 135.709 149.157 135.693C149.314 135.693 149.455 135.693 149.611 135.662C149.909 135.631 150.207 135.584 150.504 135.505C150.802 135.427 151.084 135.317 151.397 135.255V135.27Z" fill="#D35850"/>
<path d="M146.619 134.534C146.728 134.424 146.838 134.315 146.948 134.205C147.057 134.111 147.167 134.001 147.292 133.907C147.418 133.813 147.527 133.719 147.653 133.641C147.778 133.547 147.903 133.469 148.044 133.39L148.091 133.375C148.28 133.328 148.452 133.296 148.624 133.265C148.797 133.234 148.969 133.218 149.141 133.202C149.486 133.171 149.815 133.155 150.16 133.155C150.504 133.155 150.833 133.171 151.178 133.202C151.523 133.233 151.852 133.296 152.196 133.375C151.867 133.5 151.523 133.578 151.194 133.641C150.865 133.704 150.52 133.766 150.191 133.798C149.862 133.845 149.517 133.86 149.188 133.892L148.687 133.923C148.515 133.923 148.358 133.939 148.217 133.954H148.279C148.17 133.97 148.029 134.033 147.888 134.08C147.747 134.127 147.621 134.189 147.48 134.236C147.339 134.283 147.198 134.33 147.057 134.377C146.916 134.424 146.775 134.471 146.619 134.503V134.534Z" fill="#46161C"/>
<path opacity="0.75" d="M149.063 144.702C149.063 144.702 148.969 144.686 148.953 144.639C148.906 144.577 148.922 144.483 148.985 144.436C150.332 143.511 151.46 144.216 151.507 144.248C151.57 144.295 151.585 144.373 151.554 144.451C151.523 144.53 151.429 144.53 151.35 144.498C151.303 144.467 150.316 143.872 149.141 144.686C149.11 144.702 149.094 144.718 149.063 144.718V144.702Z" fill="#D35850"/>
<path d="M151.397 124.021C150.097 123.739 148.828 123.535 147.59 123.41C145.585 118.475 140.383 118.099 140.383 118.099C148.765 117.112 151.397 124.021 151.397 124.021Z" fill="#9C7977"/>
<path d="M152.901 127.765C152.839 128.345 152.322 128.768 151.742 128.705C151.147 128.643 150.285 128.564 149.204 128.502C149.502 126.606 149.251 124.475 149.126 123.614C149.862 123.723 150.63 123.864 151.397 124.037C152.917 125.055 153.027 126.7 152.917 127.781L152.901 127.765Z" fill="#A98C88"/>
<path d="M152.494 131.823C152.494 131.823 151.914 130.695 151.115 129.63C138.863 128.737 130.355 132.56 130.355 132.56C130.355 132.56 130.355 132.56 130.324 132.544C130.293 132.215 130.246 131.87 130.183 131.541C130.183 131.463 130.167 131.416 130.167 131.416C138.973 127.671 148.734 128.376 151.742 128.705C151.742 128.705 152.51 130.304 152.494 131.823Z" fill="#46161C"/>
<path d="M185.715 81.9476C195.475 72.1885 195.475 56.3659 185.715 46.6068C175.956 36.8477 160.133 36.8477 150.374 46.6068C140.615 56.3659 140.615 72.1885 150.374 81.9476C160.133 91.7067 175.956 91.7067 185.715 81.9476Z" fill="#F4D5B5"/>
<path style="mix-blend-mode:color-dodge" opacity="0.5" d="M193.742 86.9507C206.27 72.7557 204.918 51.0926 190.723 38.5648C176.528 26.037 154.864 27.3885 142.336 41.5835C129.808 55.7786 131.16 77.4417 145.355 89.9695C159.55 102.497 181.214 101.146 193.742 86.9507Z" fill="url(#paint11_radial_6_139)"/>
<path d="M157.32 68.2131C157.32 68.2131 158.025 71.9107 159.748 74.1981C161.534 76.5639 163.697 77.6607 163.697 77.6607C163.697 77.6607 164.605 81.8752 168.068 83.8963C168.146 83.9433 168.225 83.9747 168.303 84.0217C172.016 85.9801 176.09 82.0319 174.382 78.209L172.408 73.8064C172.408 73.8064 170.763 70.955 170.543 70.7356C170.324 70.5163 157.32 68.2445 157.32 68.2445V68.2131Z" fill="#46161C"/>
<path d="M226.728 260.563H201.252V260.36C201.534 260.375 201.801 260.36 202.051 260.328C202.694 260.219 205.498 258.574 205.498 258.574C205.498 258.574 209.431 257.806 212.189 255.691C212.596 255.597 226.728 257.226 226.728 257.226C226.728 257.226 227.982 259.263 226.728 260.563Z" fill="url(#paint12_linear_6_139)"/>
<path d="M156.066 116.485C156.066 116.485 151.35 115.31 146.979 114.855C145.694 115.106 143.062 117.973 143.062 117.973L142.42 120.605C142.388 120.699 142.451 120.793 142.545 120.825C143.172 120.966 143.798 120.652 144.065 120.073L144.613 118.835L147.543 117.707C147.543 117.707 150.583 122.109 155.816 122.109C158.041 119.885 157.774 118.866 157.774 118.678C157.774 118.49 156.051 116.469 156.051 116.469L156.066 116.485Z" fill="url(#paint13_linear_6_139)"/>
<path d="M156.16 115.842C156.16 115.842 154.108 128.282 160.062 136.21C167.974 138.247 190.63 131.62 195.487 125.65C198.041 117.049 183.391 92.8582 183.391 92.8582C183.391 92.8582 184.159 105.565 185.585 112.646C170.951 114.855 156.16 115.827 156.16 115.827V115.842Z" fill="#DFCCBD"/>
<path d="M212.094 255.769C212.094 255.769 215.212 258.824 215.056 260.579H216.638C216.638 260.579 215.996 256.929 214.272 255.048C213.332 255.017 212.094 255.785 212.094 255.785V255.769Z" fill="#7C3145"/>
<path d="M198.197 173.468C197.915 176.57 197.931 179.688 198.26 182.79C198.338 183.589 198.432 184.372 198.526 185.171C195.267 184.451 192.04 182.931 189.204 180.205C184.927 176.084 181.01 170.428 177.907 163.315C176.638 160.401 175.51 157.236 174.57 153.821C171.578 143.073 170.308 129.912 171.86 114.432C171.86 114.432 172.768 111.941 175.118 111.597C177.422 111.268 179.49 111.832 179.49 111.832C179.49 111.832 181.354 108.541 184.895 108.541C188.389 108.541 193.669 118.772 191.335 130.131C191.288 130.335 191.256 130.539 191.209 130.727C190.724 132.857 190.332 136.085 190.238 139.782C190.16 143.433 190.379 147.538 191.1 151.564C194.656 157.988 199.811 163.942 206.626 163.472C206.658 163.581 206.673 163.691 206.705 163.801C208.037 170.835 198.197 173.468 198.197 173.468Z" fill="#C83D3A"/>
<path d="M193.559 74.8092L185.177 83.1913L184.253 84.1157L182.858 82.5489L171.076 69.2472L178.064 62.2751L193.559 74.8092Z" fill="#FF948C"/>
<path d="M181.292 76.8772C180.759 78.9767 180.179 81.1388 179.913 82.1415C179.819 82.5019 179.568 82.8152 179.223 83.0033L177.735 83.7866C177.328 83.9903 176.873 84.053 176.435 83.9276C173.787 83.2226 171.719 82.5959 170.026 81.8752C169.65 81.5305 169.274 81.2172 168.945 80.9195C165.718 78.0523 164.37 76.5326 163.148 74.1824C161.644 72.835 160.861 71.5503 160.453 70.6572C160.328 70.3752 160.234 70.1245 160.171 69.9209C160.077 69.6075 160.046 69.4195 160.046 69.4195L158.385 69.0592C157.194 66.004 157.367 63.7479 157.367 63.7479C157.524 57.9195 163.853 50.1171 174.194 54.9114C180.289 58.0449 179.364 66.5367 179.364 66.5367L180.383 68.5735C181.668 71.1273 181.997 74.0728 181.292 76.8616V76.8772Z" fill="url(#paint14_linear_6_139)"/>
<path d="M258.926 179.327C254.711 161.874 249.227 143.84 242.553 127.092C239.168 112.772 234.703 101.46 229.172 92.8739C229.329 93.0149 256.56 130.789 258.926 179.327Z" fill="#C83D3A"/>
<path d="M268.937 253.748C227.136 264.277 208.742 254.359 208.554 254.249C208.554 254.249 202.553 221.52 198.542 185.171C198.448 184.372 198.37 183.589 198.276 182.79C197.805 178.481 197.946 174.126 198.683 169.848C198.761 169.41 198.84 168.971 198.918 168.517C198.981 168.156 199.059 167.796 199.122 167.436C199.482 165.571 199.842 163.722 200.234 161.921C201.456 156.108 202.741 150.64 203.493 145.438C203.775 143.527 203.979 141.663 204.073 139.845C204.496 132.591 203.336 125.885 198.84 119.587C190.802 114.495 183.203 98.4671 182.326 85.8705C183.939 84.6641 185.177 83.3166 186.149 81.9536C189.705 76.8773 189.361 71.4093 189.361 71.4093C202.866 70.9706 214.194 75.2635 223.281 85.1497C224.989 87.0142 226.619 89.0666 228.154 91.3228C228.499 91.8241 228.843 92.3411 229.188 92.8582C233.34 99.2975 236.881 107.272 239.827 116.892C240.814 120.104 241.722 123.488 242.568 127.076C249.227 143.84 254.727 161.874 258.941 179.312C266.054 208.735 269.548 236.498 268.953 253.732L268.937 253.748Z" fill="#F8E8D9"/>
<path d="M213.285 117.895C213.285 117.895 213.285 117.911 213.285 117.926C213.285 117.942 213.285 117.958 213.285 117.958C212.643 124.883 210.653 130.821 206.532 136.414C204.825 138.717 203.289 140.942 201.91 143.01C196.928 150.53 194.171 156.014 194.171 156.014C194.171 156.014 194.029 155.936 193.794 155.795C192.948 155.293 190.724 153.977 188.217 152.144C185.647 150.28 182.764 147.867 180.728 145.266C179.599 143.84 178.738 142.368 178.299 140.879C180.555 136.195 182.106 133.202 184.221 130.037C186.023 127.327 188.232 124.491 191.632 120.355C192.51 119.289 193.465 118.13 194.531 116.877C192.024 109.325 189.517 101.648 188.217 94.8167C187.919 93.2186 187.668 91.6518 187.512 90.1634C186.697 82.4863 188.013 76.3446 193.528 73.4305C197.758 71.2057 202.866 74.4959 206.736 80.4025C206.893 80.6532 207.049 80.8882 207.206 81.1389C207.629 81.8439 208.052 82.5646 208.444 83.3324C210.371 87.0612 211.797 91.4795 212.345 96.0701C213.364 104.468 213.896 111.581 213.317 117.864L213.285 117.895Z" fill="#F8E8D9"/>
<path d="M194.468 155.419C194.468 155.685 194.374 155.889 194.186 156.03C194.139 156.061 194.092 156.092 194.03 156.124C192.494 156.813 187.308 154.259 184.002 149.81C183.939 149.731 183.877 149.637 183.814 149.559C183.579 149.246 183.344 148.932 183.109 148.635C182.811 148.243 182.514 147.867 182.216 147.491C181.025 145.971 179.944 144.624 179.192 143.527C178.691 142.775 178.33 142.148 178.205 141.647C178.205 141.647 178.205 141.616 178.205 141.6C178.127 141.208 178.189 140.91 178.44 140.707C178.581 140.613 178.753 140.534 178.957 140.503C178.973 140.503 178.988 140.503 179.004 140.503C179.521 140.425 180.242 140.503 181.088 140.754C182.67 141.224 184.66 142.274 186.462 143.887C186.728 144.122 186.995 144.373 187.245 144.639C187.371 144.78 187.512 144.906 187.637 145.047C187.762 145.188 187.888 145.313 187.997 145.454C188.217 145.705 188.42 145.971 188.64 146.253C191.585 150.217 194.484 153.836 194.453 155.419H194.468Z" fill="#AB9885"/>
<path d="M185.177 83.1913C184.378 84.1314 183.438 85.0244 182.326 85.8705C182.326 85.8705 182.498 83.9904 182.874 82.549L184.253 84.1157L185.177 83.1913Z" fill="#564C42"/>
<path d="M179.317 84.4918C177.218 85.9175 174.398 84.7894 172.424 83.5987C171.014 82.7527 170.042 81.8909 170.042 81.8909C170.042 81.8909 169.541 79.7132 170.402 78.6321C172.22 76.329 176.685 77.3004 177.892 73.8378C179.02 70.5947 176.435 66.3958 176.435 66.3958C176.435 66.3958 178.111 65.5967 179.38 66.1607C179.411 66.1607 179.458 66.1921 179.49 66.2077C184.911 73.5872 181.84 82.784 179.317 84.4918Z" fill="#5B1E2C"/>
<path d="M172.643 81.1232C172.941 80.8098 173.191 80.5121 173.426 80.1988C173.536 80.0421 173.646 79.8698 173.74 79.6974C173.834 79.5251 173.912 79.3371 174.006 79.149C174.006 79.3527 173.99 79.5721 173.912 79.7757C173.849 79.9794 173.74 80.1674 173.63 80.3554C173.505 80.5278 173.364 80.6845 173.191 80.8255C173.019 80.9665 172.847 81.0762 172.643 81.1388V81.1232Z" fill="url(#paint15_linear_6_139)"/>
<path d="M161.816 71.3467C161.816 71.3467 161.863 71.284 161.879 71.2526C161.895 71.2213 161.91 71.19 161.942 71.1743C161.973 71.1273 162.02 71.0646 162.051 71.0176C162.13 70.9236 162.208 70.8296 162.302 70.7356C162.475 70.5633 162.647 70.3909 162.851 70.2343C163.242 69.9366 163.665 69.7016 164.12 69.5136C164.355 69.4352 164.574 69.3569 164.809 69.3099C164.919 69.2785 165.044 69.2472 165.154 69.2315L165.498 69.1845C165.498 69.1845 165.608 69.1689 165.671 69.1689H165.843L166.188 69.1532C166.423 69.1532 166.658 69.1689 166.893 69.1845C167.003 69.1845 167.097 69.2942 167.097 69.4039C167.097 69.5136 167.003 69.6076 166.893 69.6076H166.877C166.658 69.6076 166.438 69.6076 166.219 69.6389L165.89 69.6859H165.733C165.733 69.6859 165.624 69.7329 165.577 69.7329L165.263 69.7956C165.154 69.8269 165.06 69.8582 164.95 69.8896C164.84 69.9209 164.746 69.9522 164.652 69.9992C164.558 70.0462 164.449 70.0776 164.355 70.1246C163.979 70.3126 163.618 70.5476 163.321 70.8296C163.164 70.9706 163.023 71.1273 162.898 71.284C162.835 71.3623 162.772 71.4407 162.725 71.5347C162.694 71.5817 162.678 71.613 162.647 71.66C162.647 71.6757 162.616 71.707 162.616 71.7227C162.616 71.7383 162.6 71.7697 162.584 71.7697C162.506 71.989 162.255 72.1144 162.036 72.036C161.816 71.9577 161.691 71.707 161.769 71.4877C161.769 71.472 161.785 71.4407 161.801 71.425V71.378L161.816 71.3467Z" fill="#46161C"/>
<path opacity="0.75" d="M164.041 73.0858C164.104 72.7881 164.276 72.5374 164.48 72.3024C164.684 72.0831 164.934 71.895 165.185 71.754C165.451 71.5974 165.733 71.5034 166.015 71.425C166.156 71.3937 166.313 71.3624 166.454 71.331C166.595 71.331 166.752 71.2997 166.893 71.2997C166.752 71.3624 166.627 71.4094 166.486 71.4564C166.344 71.519 166.219 71.566 166.094 71.613C165.968 71.6757 165.827 71.7227 165.702 71.7854L165.514 71.8794L165.326 71.9734C165.075 72.1144 164.84 72.2554 164.637 72.4434C164.417 72.6314 164.214 72.8194 164.041 73.0544V73.0858Z" fill="#D35850"/>
<path d="M168.491 80.5121C168.256 80.7942 167.974 80.9978 167.755 81.1075C164.966 78.538 163.274 74.4488 163.164 74.1981C164.323 76.4229 165.608 77.9113 168.491 80.5121Z" fill="#FF948C"/>
<path d="M223.266 85.1498C218.283 84.3037 213.552 84.3821 209.227 85.0401C205.185 85.6511 201.503 86.7635 198.26 88.0953C193.967 89.8657 190.473 92.0278 188.029 93.9393C186.399 95.2083 185.256 96.3677 184.644 97.2294C182.435 97.0258 182.514 94.801 182.576 94.2526C182.576 94.1743 182.576 94.1273 182.576 94.1273C182.576 94.1273 180.712 93.3439 181.871 89.8344C186.76 71.096 205.874 72.7568 205.874 72.7568C205.874 72.7568 213.912 73.8065 219.349 79.1491C220.398 80.1675 221.338 81.3426 222.122 82.7056C222.561 83.4734 222.937 84.2881 223.266 85.1654V85.1498Z" fill="#C83D3A"/>
<path d="M228.154 91.3227C221.213 90.9311 215.62 96.916 216.482 103.81C217.375 110.954 217.907 119.524 216.56 125.635C213.834 137.965 203.634 145.329 203.477 145.438C203.477 145.438 202.757 144.342 201.895 143.01C202.568 141.992 203.289 140.926 204.057 139.829C204.84 138.717 205.655 137.573 206.517 136.398C214.413 125.729 214.46 113.759 212.314 96.0857C211.844 92.1688 210.731 88.3772 209.212 85.0244C213.552 84.3664 218.268 84.288 223.25 85.1341C224.958 86.9985 226.587 89.051 228.138 91.3071L228.154 91.3227Z" fill="#DFCCBD"/>
<path d="M268.937 253.748C262.482 255.377 256.591 256.521 251.233 257.273C247.394 257.822 243.822 258.166 240.532 258.37C218.973 259.686 208.977 254.469 208.569 254.265C209.259 254.453 234.985 261.237 265.177 249.502C262.216 200.98 242.615 134.894 242.615 134.894C242.615 134.894 223.485 149.011 215.024 148.368C239.388 141.302 239.811 116.923 239.811 116.923C240.798 120.135 241.707 123.519 242.553 127.107C249.212 143.872 254.711 161.905 258.926 179.343C266.039 208.767 269.533 236.529 268.937 253.764V253.748Z" fill="#DFCCBD"/>
<path d="M201.237 260.172C201.237 260.501 200.955 260.767 200.61 260.767C200.265 260.767 199.983 260.501 199.983 260.172C199.983 259.843 200.265 259.576 200.61 259.576C200.955 259.576 201.237 259.843 201.237 260.172Z" fill="#FF948C"/>
<path d="M202.036 260.172C202.036 260.595 201.675 260.924 201.237 260.924C200.798 260.924 200.438 260.579 200.438 260.172C200.438 259.764 200.798 259.42 201.237 259.42C201.675 259.42 202.036 259.764 202.036 260.172Z" fill="#FF948C"/>
<path d="M203.524 260.172C203.524 260.673 202.992 261.096 202.349 261.096C201.707 261.096 201.174 260.689 201.174 260.172C201.174 259.655 201.707 259.247 202.349 259.247C202.992 259.247 203.524 259.655 203.524 260.172Z" fill="#FF948C"/>
<path d="M204.652 260.172C204.652 260.751 204.057 261.206 203.321 261.206C202.584 261.206 201.989 260.736 201.989 260.172C201.989 259.608 202.584 259.138 203.321 259.138C204.057 259.138 204.652 259.608 204.652 260.172Z" fill="#FF948C"/>
<path d="M207.943 260.172C207.943 261.049 206.908 261.754 205.624 261.754C204.339 261.754 203.305 261.049 203.305 260.172C203.305 259.294 204.339 258.589 205.624 258.589C206.908 258.589 207.943 259.294 207.943 260.172Z" fill="url(#paint16_linear_6_139)"/>
<path d="M200.156 260.563H227.183L226.744 261.739H200.453L200.156 260.563Z" fill="#7C3145"/>
<path d="M208.209 257.79C208.209 257.79 209.76 258.809 209.588 260.563H211.17C211.17 260.563 211.656 258.934 209.932 257.054C208.992 257.023 208.209 257.79 208.209 257.79Z" fill="#7C3145"/>
<path d="M253.003 259.122C251.718 259.952 248.507 260.046 248.507 260.046H243.994L240.516 259.89V258.386C243.806 258.182 247.378 257.837 251.217 257.289C252.063 257.743 252.705 258.354 253.003 259.138V259.122Z" fill="url(#paint17_linear_6_139)"/>
<path d="M253.458 259.999C253.458 260.532 252.862 260.704 252.141 260.704C251.421 260.704 250.825 260.532 250.825 259.999C250.825 259.467 251.421 258.762 252.141 258.762C252.862 258.762 253.458 259.467 253.458 259.999Z" fill="url(#paint18_linear_6_139)"/>
<path d="M251.374 259.874C251.374 260.516 250.669 260.72 249.791 260.72C248.914 260.72 248.209 260.516 248.209 259.874C248.209 259.232 248.914 258.401 249.791 258.401C250.669 258.401 251.374 259.232 251.374 259.874Z" fill="url(#paint19_linear_6_139)"/>
<path d="M249.039 259.811C249.039 260.501 248.287 260.704 247.347 260.704C246.407 260.704 245.655 260.485 245.655 259.811C245.655 259.138 246.407 258.229 247.347 258.229C248.287 258.229 249.039 259.122 249.039 259.811Z" fill="url(#paint20_linear_6_139)"/>
<path d="M246.548 259.686C246.548 260.469 245.686 260.704 244.621 260.704C243.555 260.704 242.694 260.469 242.694 259.686C242.694 258.903 243.555 257.884 244.621 257.884C245.686 257.884 246.548 258.903 246.548 259.686Z" fill="url(#paint21_linear_6_139)"/>
<path d="M244.104 259.608C244.104 260.485 243.023 260.704 241.675 260.704C240.328 260.704 239.247 260.485 239.247 259.608C239.247 258.73 240.328 257.508 241.675 257.508C243.023 257.508 244.104 258.715 244.104 259.608Z" fill="url(#paint22_linear_6_139)"/>
<path d="M253.818 260.532H238.933L239.121 261.739H253.63L253.818 260.532Z" fill="#7C3145"/>
<path d="M172.988 147.757V150.75C172.878 151.063 171.907 151.956 171.64 152.128C171.531 152.207 171.092 152.489 170.622 152.802C170.434 153.225 170.277 153.617 170.277 153.633C170.277 153.648 169.854 154.244 169.4 154.886L167.347 155.591C167.347 155.591 167.347 155.513 167.363 155.481C168.256 152.175 169.666 150.405 169.666 150.405C170.371 149.496 172.988 147.757 172.988 147.757Z" fill="#FF948C"/>
<path d="M186.493 143.903L182.498 147.287L182.232 147.507L179.584 149.747C179.584 149.747 179.537 149.982 179.458 150.389C179.364 150.797 179.239 151.361 179.051 152.019C178.487 154.056 177.625 155.983 176.513 157.769L176.059 158.489L173.63 162.406C173.505 162.61 173.27 162.704 173.05 162.641C172.737 162.563 172.565 162.25 172.659 161.952L174.335 156.876L171.703 162.14C171.593 162.344 171.358 162.453 171.139 162.406C170.857 162.344 170.684 162.046 170.778 161.764L172.612 156.03L169.384 162.281C169.259 162.516 168.977 162.626 168.742 162.532C168.491 162.422 168.35 162.14 168.444 161.889L170.967 154.729L168.037 160.526C167.911 160.777 167.614 160.871 167.363 160.761C167.112 160.652 167.003 160.385 167.081 160.119L169.462 152.928C170.747 149.058 175.4 145.705 175.4 145.705L178.221 141.631L178.988 140.535C178.988 140.535 179.02 140.535 179.035 140.535C179.552 140.456 180.273 140.535 181.119 140.785C182.702 141.255 184.692 142.305 186.493 143.919V143.903Z" fill="url(#paint23_linear_6_139)"/>
<path d="M211.123 161.482C210.841 165.258 210.747 169.049 210.731 172.825C210.7 176.617 210.763 180.393 210.919 184.169C211.233 191.736 211.906 199.272 212.956 206.777C213.99 214.266 215.385 221.724 217.249 229.056L217.594 230.435C217.703 230.889 217.844 231.344 217.97 231.798L218.722 234.54L219.537 237.25L219.944 238.613L220.383 239.961L221.26 242.655L222.216 245.335L222.686 246.666L223.203 247.982L224.237 250.63C221.354 243.627 218.941 236.435 217.077 229.087C215.181 221.755 213.755 214.297 212.705 206.792C211.687 199.288 211.045 191.736 210.747 184.153C210.465 176.586 210.496 169.002 211.107 161.451L211.123 161.482Z" fill="#DFCCBD"/>
<path d="M211.123 161.482L210.857 167.154L210.778 172.825C210.778 176.601 210.841 180.393 211.029 184.169C211.358 191.72 212.032 199.272 213.082 206.761C214.116 214.25 215.541 221.692 217.406 229.025L217.751 230.403L218.127 231.767L218.879 234.508L219.693 237.219L220.101 238.582L220.539 239.929L221.417 242.624L222.373 245.303L222.843 246.635L223.36 247.951L224.394 250.599L224.159 250.693C221.276 243.69 218.847 236.482 216.999 229.134C215.103 221.802 213.693 214.329 212.643 206.824C212.126 203.064 211.734 199.303 211.389 195.528C211.06 191.752 210.825 187.976 210.7 184.184C210.449 176.617 210.512 169.018 211.154 161.466L211.123 161.482ZM211.123 161.482C210.528 169.034 210.512 176.617 210.794 184.184C210.935 187.976 211.186 191.752 211.515 195.512C211.844 199.288 212.251 203.048 212.784 206.792C213.849 214.282 215.259 221.739 217.171 229.072C219.035 236.404 221.464 243.596 224.362 250.583L224.127 250.677L223.109 248.029L222.592 246.698L222.122 245.366L221.166 242.687L220.289 239.992L219.85 238.645L219.443 237.282L218.628 234.555L217.876 231.814L217.5 230.435L217.155 229.056C215.306 221.708 213.896 214.266 212.878 206.761C211.844 199.256 211.186 191.705 210.872 184.153C210.716 180.377 210.653 176.586 210.684 172.794L210.794 167.122L211.092 161.451L211.123 161.482Z" fill="#DFCCBD"/>
<path d="M231.852 149.747C233.105 151.486 234.17 153.35 235.173 155.231C236.176 157.126 237.085 159.069 237.946 161.028C239.639 164.96 241.111 169.002 242.38 173.092C243.665 177.181 244.715 181.348 245.639 185.532C245.89 186.581 246.078 187.631 246.297 188.681L246.611 190.263C246.72 190.796 246.799 191.313 246.893 191.846C247.081 192.895 247.284 193.961 247.457 195.01L247.958 198.191C248.13 199.256 248.24 200.306 248.397 201.371L248.601 202.97L248.71 203.769L248.789 204.568C249.008 206.698 249.259 208.829 249.431 210.96C249.525 212.025 249.619 213.091 249.697 214.156L249.901 217.368C250.058 219.499 250.105 221.645 250.199 223.792C250.246 224.857 250.246 225.938 250.277 227.004L250.34 230.215C250.34 232.362 250.34 234.493 250.324 236.639L250.136 243.063C250.042 245.194 249.932 247.34 249.807 249.471C249.838 247.324 249.885 245.194 249.932 243.063V236.655L249.854 230.247L249.744 227.051C249.697 225.985 249.682 224.92 249.619 223.854C249.212 215.316 248.506 206.792 247.222 198.348C246 189.903 244.261 181.521 241.848 173.327C240.657 169.222 239.247 165.195 237.633 161.231C236.019 157.283 234.202 153.397 231.867 149.81L231.852 149.747Z" fill="#DFCCBD"/>
<path d="M182.702 94.1899L182.482 94.0645C183.109 92.8111 183.986 91.5264 185.209 90.0223C186.258 88.7846 187.433 87.6252 188.671 86.5911C189.878 85.5884 191.225 84.6483 192.698 83.818L193.23 83.5203L193.779 83.2383C193.889 83.1913 193.983 83.1286 194.092 83.0816C194.343 82.9562 194.609 82.8152 194.891 82.7056C195.017 82.6429 195.158 82.5959 195.283 82.5332C195.518 82.4235 195.769 82.3139 196.004 82.2199L197.147 81.7812C197.288 81.7185 197.429 81.6872 197.555 81.6402L198.511 81.3425C198.636 81.2955 198.761 81.2642 198.887 81.2328L200.156 80.9038C200.328 80.8568 200.5 80.8098 200.673 80.7785L201.863 80.5278C203.775 80.1988 205.31 80.0264 206.72 79.9951L207.426 79.9637C207.598 79.9637 207.77 79.9637 207.943 79.9637L209.76 79.9951L211.891 80.1361L214.006 80.3868C214.633 80.4808 215.244 80.5904 215.855 80.7001L216.403 80.7941L216.372 81.0448L213.975 80.7158L211.875 80.5121L209.76 80.4024H209.165H207.958C207.786 80.4024 207.629 80.4024 207.457 80.4024L205.859 80.4808C205.859 80.4808 205.733 80.4808 205.671 80.4964L204.37 80.6218C204.088 80.6375 203.791 80.6845 203.524 80.7315C203.415 80.7471 203.305 80.7628 203.18 80.7785L202.286 80.9195C202.286 80.9195 202.161 80.9351 202.098 80.9508L200.814 81.2171C200.641 81.2485 200.485 81.2955 200.312 81.3425L199.059 81.6715C198.934 81.7028 198.808 81.7498 198.683 81.7812L197.743 82.0789C197.602 82.1259 197.476 82.1572 197.351 82.2199C194.312 83.3009 191.507 84.8677 189 86.8888C187.762 87.8759 186.603 89.0039 185.538 90.2103C184.347 91.5734 183.438 92.8581 182.733 94.1115L182.702 94.1899ZM202.051 80.7471C202.051 80.7471 201.942 80.7628 201.879 80.7785L200.688 81.0291C200.516 81.0605 200.344 81.1075 200.187 81.1545L198.934 81.4835C198.808 81.5148 198.699 81.5618 198.573 81.5932L197.79 81.8438C197.79 81.8438 197.68 81.8752 197.617 81.8909C197.476 81.9379 197.351 81.9692 197.226 82.0319L196.082 82.4706C195.847 82.5646 195.612 82.6742 195.361 82.7839C195.236 82.8466 195.095 82.9092 194.97 82.9562C194.703 83.0659 194.453 83.2069 194.186 83.3323C194.077 83.3793 193.983 83.4419 193.873 83.4889L193.324 83.771L192.807 84.0686C192.541 84.2253 192.29 84.3663 192.024 84.523C193.669 83.5359 195.393 82.7212 197.21 82.0632C197.335 82.0162 197.476 81.9692 197.617 81.9222L198.558 81.6245C198.683 81.5775 198.808 81.5462 198.934 81.4992L200.187 81.1701C200.359 81.1231 200.532 81.0761 200.704 81.0448L201.989 80.7785C201.989 80.7785 202.036 80.7785 202.051 80.7785V80.7471ZM203.07 80.5748C202.882 80.6061 202.694 80.6375 202.506 80.6688L203.07 80.5748Z" fill="#AE2C2C"/>
<path opacity="0.5" d="M213.285 117.895C213.285 117.895 213.285 117.911 213.285 117.926C213.285 117.942 213.285 117.958 213.285 117.958C213.285 117.958 211.311 97.4017 208.554 89.0666C199.043 89.3329 188.044 93.9235 188.044 93.9235C192.322 90.5707 199.858 86.4501 209.243 85.04C210.747 88.3929 211.86 92.1688 212.345 96.1013C213.364 104.499 213.896 111.612 213.317 117.895H213.285Z" fill="#DFCCBD"/>
<path d="M198.808 74.0728C198.087 74.1825 197.398 74.3548 196.756 74.5742C192.275 76.0469 189.486 79.5408 188.264 81.4366C187.59 82.4706 186.086 82.502 185.412 81.4836C185.412 81.4836 185.412 81.4679 185.397 81.4522C177.296 74.1982 180.508 64.2336 178.142 65.5654C177.375 66.004 176.654 66.3331 176.012 66.5681C168.867 69.2472 168.82 61.3665 164.731 66.1451C162.804 68.4168 160.391 70.9863 158.464 69.5762C158.244 69.4196 158.041 69.2159 157.853 68.9652C157.712 68.7772 157.571 68.5735 157.43 68.3385C157.398 68.2915 157.383 68.2445 157.351 68.1975C155.142 64.0769 155.565 54.2377 166.204 52.577C171.108 51.8249 174.601 53.5484 176.905 55.6791C178.158 56.8542 179.067 58.1389 179.631 59.22C180.242 60.3794 180.696 61.4918 181.245 62.4632C182.138 64.0299 183.313 65.2677 185.976 65.8317C192.995 67.3045 199.968 66.2077 200.328 72.1927C200.375 73.1171 199.733 73.9318 198.84 74.0728H198.808Z" fill="#6B222F"/>
<path d="M179.803 66.6464C179.74 66.7874 179.662 66.9127 179.599 67.038C179.176 67.7118 178.55 68.1504 177.829 68.1974C177.108 68.2444 176.419 67.8841 175.933 67.2731C175.792 67.1007 175.683 66.9127 175.573 66.7247C175.338 66.2703 175.181 65.7376 175.15 65.1579C175.04 63.3875 176.074 61.8991 177.437 61.8051C178.8 61.7268 180.007 63.0898 180.117 64.8446C180.164 65.5026 180.038 66.1137 179.819 66.6307L179.803 66.6464Z" fill="url(#paint24_linear_6_139)"/>
<path d="M179.74 65.3147C179.819 66.6308 179.051 67.7588 178.033 67.8215C176.999 67.8842 176.106 66.8658 176.027 65.5497C175.949 64.2336 176.717 63.1056 177.735 63.0429C178.769 62.9802 179.662 63.9986 179.74 65.3147Z" fill="#FF948C"/>
<path d="M119.482 195.841C119.31 195.778 115.69 194.337 116.207 185.171C108.593 170.177 111.194 154.745 111.194 154.745C111.194 154.745 111.225 154.745 111.288 154.792C111.209 155.137 111.178 155.481 111.194 155.826C111.617 167.044 117.759 180.581 120.406 185.955C120.046 186.362 119.686 186.785 119.341 187.239C119.028 188.085 118.761 188.9 118.526 189.652C118.401 190.044 118.291 190.435 118.197 190.796C117.915 191.846 117.853 192.707 117.947 193.412C118.103 194.525 118.667 195.277 119.466 195.825L119.482 195.841Z" fill="#9C7977"/>
<path opacity="0.15" d="M213.285 117.895C213.285 117.895 213.285 117.911 213.285 117.926C213.285 117.942 213.285 117.958 213.285 117.958C212.643 124.883 210.653 130.821 206.532 136.414C204.825 138.717 203.289 140.942 201.91 143.01C197.884 149.073 195.33 153.805 194.484 155.419C194.531 153.852 191.617 150.217 188.671 146.253C188.467 145.971 188.248 145.705 188.029 145.454C187.903 145.313 187.794 145.172 187.668 145.047C192.494 140.613 201.346 131.071 203.744 119.054C206.344 106.003 200.829 93.1245 198.26 88.0796C201.503 86.7478 205.185 85.6354 209.227 85.0244C210.747 88.3773 211.844 92.1531 212.33 96.0857C213.348 104.483 213.881 111.597 213.301 117.879L213.285 117.895Z" fill="#DFCCBD"/>
<path opacity="0.5" d="M223.266 85.1498C218.283 84.3037 213.552 84.382 209.227 85.0401C205.185 85.6511 201.503 86.7635 198.26 88.0953C193.967 89.8657 190.473 92.0278 188.029 93.9392C186.399 95.2083 185.256 96.3677 184.644 97.2294C182.435 97.0257 182.514 94.8009 182.576 94.2526C185.757 89.2076 197.508 74.4958 222.138 82.7056C222.576 83.4733 222.952 84.288 223.281 85.1654L223.266 85.1498Z" fill="#AE2C2C"/>
<path opacity="0.5" d="M200.218 161.921C199.842 163.722 199.466 165.571 199.106 167.436C199.043 167.796 198.965 168.156 198.902 168.517C191.288 165.023 188.013 158.521 188.013 158.521C188.013 158.521 178.863 162.547 178.268 162.986C178.268 162.986 178.127 163.111 177.907 163.315C177.234 161.78 176.607 160.166 176.027 158.489L176.482 157.769C177.594 155.983 178.456 154.055 179.02 152.019C179.208 151.361 179.333 150.797 179.427 150.389C179.521 149.982 179.552 149.747 179.552 149.747L182.2 147.506C182.482 147.882 182.78 148.259 183.093 148.65C183.328 148.948 183.563 149.261 183.798 149.575C183.861 149.653 183.924 149.747 183.986 149.825C187.292 154.275 192.494 156.829 194.014 156.139C195.8 158.536 197.852 160.605 200.203 161.936L200.218 161.921Z" fill="#AE2C2C"/>
<path opacity="0.5" d="M184.206 130.053C184.456 118.616 179.505 111.832 179.505 111.832C179.505 111.832 181.37 108.541 184.911 108.541C187.339 108.541 190.645 113.524 191.632 120.386C188.232 124.522 186.008 127.358 184.221 130.069L184.206 130.053Z" fill="#AE2C2C"/>
<path d="M198.808 74.0729C198.087 74.1825 197.398 74.3549 196.756 74.5742C197.946 70.72 196.333 69.2943 188.029 68.2132C179.725 67.1165 181.213 62.4789 181.213 62.4789C182.106 64.0456 183.281 65.2834 185.945 65.8474C192.964 67.3201 199.936 66.2234 200.297 72.2084C200.344 73.1328 199.701 73.9475 198.808 74.0885V74.0729Z" fill="#5B1E2C"/>
<path d="M176.873 55.6948C170.402 53.0626 166.423 53.094 160.97 55.9611C155.518 58.8126 157.335 68.2131 157.335 68.2131C155.126 64.0926 155.549 54.2377 166.188 52.5926C171.092 51.8406 174.586 53.564 176.889 55.6948H176.873Z" fill="#8C2F43"/>
<path d="M175.918 67.2731C171.531 69.7329 168.068 68.1975 165.812 66.5837C163.493 69.3569 161.534 70.3126 160.453 70.6416C160.328 70.3596 160.234 70.1089 160.171 69.9052C161.691 69.5449 163.321 67.7588 164.715 66.1293C168.71 61.4448 168.851 68.9025 175.573 66.709C175.683 66.9127 175.792 67.1007 175.933 67.2574L175.918 67.2731Z" fill="#FF948C"/>
<path d="M157.649 170.992C155.957 172.669 154.374 174.408 152.87 176.131C151.35 177.886 149.893 179.625 148.499 181.286C148.421 180.988 148.358 180.675 148.28 180.361C148.139 179.735 148.013 179.077 147.919 178.387C147.872 178.043 147.825 177.698 147.778 177.353C147.559 175.504 147.48 173.718 147.559 172.152C147.559 171.995 147.574 171.838 147.59 171.682C147.621 171.133 147.684 170.6 147.762 170.115C147.778 169.974 147.809 169.848 147.825 169.707C147.888 169.378 147.951 169.065 148.029 168.767C148.186 168.125 148.405 167.608 148.64 167.216C148.64 167.216 147.621 175.802 149.126 178.466C152.902 175.16 155.643 172.747 157.665 170.992H157.649Z" fill="#FF948C"/>
<path opacity="0.75" d="M140.258 146.002V146.3C135.495 144.765 136.372 140.472 136.372 140.472L128.867 141.193C130.575 139.97 132.204 138.325 133.599 136.774C133.99 138.372 135.197 139.547 136.638 139.547C136.732 139.547 136.826 139.547 136.905 139.547C137.03 140.064 137.202 140.817 137.484 141.882C137.641 142.477 137.876 143.088 138.362 143.464C139.192 144.075 140.101 144.671 140.994 145.188L140.242 146.034L140.258 146.002Z" fill="#D35850"/>
<path opacity="0.25" d="M93.6772 207.999C94.4762 211.869 95.1499 215.128 95.6983 217.854C93.5205 217.384 91.6247 216.741 89.9639 216.021C88.7731 215.504 87.7077 214.955 86.7677 214.391C82.6314 211.931 80.9079 209.331 80.9079 209.331C84.3391 170.303 100.743 153.319 112.62 146.723C112.447 146.989 88.7261 183.965 93.6615 207.999H93.6772Z" fill="#BAA3A0"/>
<path opacity="0.5" d="M152.322 187.49C141.072 191.877 133.317 192.018 128.428 191.094C125.53 190.545 123.618 189.621 122.584 188.994C121.942 188.602 121.629 188.32 121.629 188.32C121.629 188.32 111.742 170.162 111.194 155.826C111.194 155.481 111.209 155.137 111.288 154.792C111.695 152.818 113.325 150.75 114.97 148.979C116.458 147.381 118.37 146.378 120.375 146.018C119.968 147.867 116.082 166.433 121.989 176.946L128.225 188.007C128.225 188.007 141.683 187.6 149.314 183.902C149.658 184.795 150.034 185.563 150.442 186.143C151.053 187.051 151.695 187.537 152.306 187.459L152.322 187.49Z" fill="#9C7977"/>
<path d="M117.931 238.519C117.868 235.997 117.727 233.427 117.524 230.889C117.195 226.69 116.709 222.617 116.223 219.123C116.176 218.794 116.129 218.48 116.082 218.151C116.019 217.76 115.972 217.384 115.91 217.008C114.594 217.493 113.262 217.885 111.914 218.167C110.849 218.324 109.815 218.433 108.812 218.527C88.2248 220.314 80.8922 209.315 80.8922 209.315C81.2839 213.89 86.7833 229.134 92.6117 241.7C92.5177 241.433 91.233 237.595 89.6349 232.785C87.6137 226.675 92.6744 220.533 99.0669 221.348C99.1609 221.348 99.2549 221.379 99.3646 221.379C106.807 222.256 112.588 228.257 113.372 235.715C114.296 244.677 114.938 255.613 113.904 263.822C104.801 263.305 85.6709 259.294 79.7485 253.967C79.9522 255.221 80.3125 256.537 80.9236 257.9C81.0176 258.01 81.1272 258.119 81.2212 258.213C87.175 264.245 103.94 267.488 115.957 265.295C119.936 261.895 117.947 238.66 117.931 238.504V238.519Z" fill="#7B504A"/>
<path opacity="0.1" d="M144.237 137.511C144.065 137.902 143.908 138.294 143.736 138.701C143.532 139.203 143.313 139.704 143.328 140.252C143.328 140.785 143.626 141.365 144.143 141.521C144.645 141.678 145.177 141.412 145.585 141.098C145.992 140.769 146.368 140.362 146.854 140.174C147.167 140.049 147.527 140.017 147.825 139.845C148.467 139.469 148.608 138.513 148.232 137.871C147.872 137.229 147.026 136.743 146.305 136.712C145.522 136.665 144.582 136.727 144.253 137.542L144.237 137.511Z" fill="#6B222F"/>
<path d="M105.318 199.068C106.493 202.014 108.687 204.442 111.131 206.448C109.439 204.317 108.374 201.669 108.123 198.959C109.564 200.792 111.742 202.014 114.061 202.28C114.359 201.136 113.575 200.024 112.839 199.1C111.617 197.564 110.379 196.029 109.157 194.493C108.593 193.773 108.013 193.068 107.449 192.347C107.057 191.861 106.321 190.451 105.71 190.31C104.331 189.966 104.394 193.177 104.394 194.008C104.363 195.825 104.88 197.345 105.318 199.068Z" fill="#9C7977"/>
<path opacity="0.1" d="M162.898 157.361C162.146 158.427 161.393 159.508 160.641 160.573C159.952 161.545 159.247 162.547 158.229 163.174C157.288 163.754 156.16 163.957 155.283 164.615C154.782 164.991 154.39 165.477 153.967 165.947C153.544 166.417 153.09 166.856 152.51 167.091C151.82 167.357 150.786 166.997 150.222 166.386C151.476 165.728 152.792 165.007 154.171 164.208C155.643 163.362 157.179 162.453 158.808 161.435L158.996 161.122C159.639 160.088 160.453 159.163 161.378 158.395C161.848 158.004 162.365 157.659 162.898 157.346V157.361Z" fill="#6B222F"/>
<path opacity="0.1" d="M150.645 262.882C148.17 262.726 145.741 261.973 143.626 260.673C142.999 260.297 142.373 259.811 142.138 259.122C141.918 258.433 142.138 257.665 141.997 256.96C141.73 255.769 140.477 255.064 139.991 253.952C139.443 252.683 140.007 251.226 140.571 249.957C141.401 248.108 142.232 246.243 143.062 244.395C143.783 242.765 144.519 241.136 145.24 239.506C145.867 238.112 146.352 236.388 147.245 235.166C147.668 234.587 148.279 234.305 148.953 234.226L142.529 256.929C142.357 257.54 142.592 258.198 143.093 258.574C145.741 260.485 145.616 261.488 150.583 262.851C150.583 262.867 150.614 262.882 150.63 262.914L150.645 262.882Z" fill="#6B222F"/>
</g>
<defs>
<filter id="filter0_d_6_139" x="0" y="0" width="340" height="340" filterUnits="userSpaceOnUse" color-interpolation-filters="sRGB">
<feFlood flood-opacity="0" result="BackgroundImageFix"/>
<feColorMatrix in="SourceAlpha" type="matrix" values="0 0 0 0 0 0 0 0 0 0 0 0 0 0 0 0 0 0 127 0" result="hardAlpha"/>
<feOffset dy="10"/>
<feGaussianBlur stdDeviation="20"/>
<feComposite in2="hardAlpha" operator="out"/>
<feColorMatrix type="matrix" values="0 0 0 0 0 0 0 0 0 0 0 0 0 0 0 0 0 0 0.1 0"/>
<feBlend mode="normal" in2="BackgroundImageFix" result="effect1_dropShadow_6_139"/>
<feBlend mode="normal" in="SourceGraphic" in2="effect1_dropShadow_6_139" result="shape"/>
</filter>
<linearGradient id="paint0_linear_6_139" x1="170" y1="30" x2="170" y2="290" gradientUnits="userSpaceOnUse">
<stop stop-color="#3DBA8C"/>
<stop offset="1" stop-color="#3DBA8C" stop-opacity="0"/>
</linearGradient>
<linearGradient id="paint1_linear_6_139" x1="46" y1="252.338" x2="117.727" y2="252.338" gradientUnits="userSpaceOnUse">
<stop offset="0.01" stop-color="#FFBE9E"/>
<stop offset="1" stop-color="#FD9F7C"/>
</linearGradient>
<linearGradient id="paint2_linear_6_139" x1="147.527" y1="168.83" x2="169.556" y2="168.83" gradientUnits="userSpaceOnUse">
<stop offset="0.01" stop-color="#FFBE9E"/>
<stop offset="1" stop-color="#FD9F7C"/>
</linearGradient>
<linearGradient id="paint3_linear_6_139" x1="55.2283" y1="261.018" x2="58.1582" y2="261.018" gradientUnits="userSpaceOnUse">
<stop offset="0.01" stop-color="#FFBE9E"/>
<stop offset="1" stop-color="#FD9F7C"/>
</linearGradient>
<linearGradient id="paint4_linear_6_139" x1="53.7556" y1="261.143" x2="56.3251" y2="261.143" gradientUnits="userSpaceOnUse">
<stop offset="0.01" stop-color="#FFBE9E"/>
<stop offset="1" stop-color="#FD9F7C"/>
</linearGradient>
<linearGradient id="paint5_linear_6_139" x1="52.5022" y1="261.206" x2="54.8367" y2="261.206" gradientUnits="userSpaceOnUse">
<stop offset="0.01" stop-color="#FFBE9E"/>
<stop offset="1" stop-color="#FD9F7C"/>
</linearGradient>
<linearGradient id="paint6_linear_6_139" x1="51.0137" y1="261.284" x2="53.1132" y2="261.284" gradientUnits="userSpaceOnUse">
<stop offset="0.01" stop-color="#FFBE9E"/>
<stop offset="1" stop-color="#FD9F7C"/>
</linearGradient>
<linearGradient id="paint7_linear_6_139" x1="49.9013" y1="261.363" x2="51.7658" y2="261.363" gradientUnits="userSpaceOnUse">
<stop offset="0.01" stop-color="#FFBE9E"/>
<stop offset="1" stop-color="#FD9F7C"/>
</linearGradient>
<linearGradient id="paint8_linear_6_139" x1="133.52" y1="248.687" x2="155.205" y2="248.687" gradientUnits="userSpaceOnUse">
<stop offset="0.01" stop-color="#FFBE9E"/>
<stop offset="1" stop-color="#FD9F7C"/>
</linearGradient>
<linearGradient id="paint9_linear_6_139" x1="136.701" y1="138.858" x2="152.463" y2="138.858" gradientUnits="userSpaceOnUse">
<stop offset="0.01" stop-color="#FFBE9E"/>
<stop offset="1" stop-color="#FD9F7C"/>
</linearGradient>
<linearGradient id="paint10_linear_6_139" x1="133.473" y1="135.678" x2="139.819" y2="135.678" gradientUnits="userSpaceOnUse">
<stop stop-color="#FD9F7C"/>
<stop offset="0.99" stop-color="#FFBE9E"/>
</linearGradient>
<radialGradient id="paint11_radial_6_139" cx="0" cy="0" r="1" gradientUnits="userSpaceOnUse" gradientTransform="translate(168.047 64.2698) scale(34.2812 34.2806)">
<stop/>
<stop offset="0.11" stop-color="#131313"/>
<stop offset="0.73" stop-color="#767676"/>
<stop offset="1" stop-color="#9E9E9E"/>
</radialGradient>
<linearGradient id="paint12_linear_6_139" x1="201.237" y1="258.135" x2="227.277" y2="258.135" gradientUnits="userSpaceOnUse">
<stop offset="0.01" stop-color="#FFBE9E"/>
<stop offset="1" stop-color="#FD9F7C"/>
</linearGradient>
<linearGradient id="paint13_linear_6_139" x1="142.42" y1="118.49" x2="157.805" y2="118.49" gradientUnits="userSpaceOnUse">
<stop offset="0.01" stop-color="#FFBE9E"/>
<stop offset="1" stop-color="#FD9F7C"/>
</linearGradient>
<linearGradient id="paint14_linear_6_139" x1="157.351" y1="68.7145" x2="181.652" y2="68.7145" gradientUnits="userSpaceOnUse">
<stop offset="0.01" stop-color="#FFBE9E"/>
<stop offset="1" stop-color="#FD9F7C"/>
</linearGradient>
<linearGradient id="paint15_linear_6_139" x1="172.643" y1="80.1361" x2="174.006" y2="80.1361" gradientUnits="userSpaceOnUse">
<stop offset="0.01" stop-color="#FFBE9E"/>
<stop offset="1" stop-color="#FD9F7C"/>
</linearGradient>
<linearGradient id="paint16_linear_6_139" x1="203.305" y1="260.172" x2="207.943" y2="260.172" gradientUnits="userSpaceOnUse">
<stop offset="0.01" stop-color="#FFBE9E"/>
<stop offset="1" stop-color="#FD9F7C"/>
</linearGradient>
<linearGradient id="paint17_linear_6_139" x1="240.516" y1="258.652" x2="253.003" y2="258.652" gradientUnits="userSpaceOnUse">
<stop offset="0.01" stop-color="#FFBE9E"/>
<stop offset="1" stop-color="#FD9F7C"/>
</linearGradient>
<linearGradient id="paint18_linear_6_139" x1="250.81" y1="259.733" x2="253.458" y2="259.733" gradientUnits="userSpaceOnUse">
<stop offset="0.01" stop-color="#FFBE9E"/>
<stop offset="1" stop-color="#FD9F7C"/>
</linearGradient>
<linearGradient id="paint19_linear_6_139" x1="248.224" y1="259.545" x2="251.374" y2="259.545" gradientUnits="userSpaceOnUse">
<stop offset="0.01" stop-color="#FFBE9E"/>
<stop offset="1" stop-color="#FD9F7C"/>
</linearGradient>
<linearGradient id="paint20_linear_6_139" x1="245.655" y1="259.467" x2="249.039" y2="259.467" gradientUnits="userSpaceOnUse">
<stop offset="0.01" stop-color="#FFBE9E"/>
<stop offset="1" stop-color="#FD9F7C"/>
</linearGradient>
<linearGradient id="paint21_linear_6_139" x1="242.709" y1="259.294" x2="246.548" y2="259.294" gradientUnits="userSpaceOnUse">
<stop offset="0.01" stop-color="#FFBE9E"/>
<stop offset="1" stop-color="#FD9F7C"/>
</linearGradient>
<linearGradient id="paint22_linear_6_139" x1="239.262" y1="259.106" x2="244.104" y2="259.106" gradientUnits="userSpaceOnUse">
<stop offset="0.01" stop-color="#FFBE9E"/>
<stop offset="1" stop-color="#FD9F7C"/>
</linearGradient>
<linearGradient id="paint23_linear_6_139" x1="167.05" y1="151.564" x2="186.493" y2="151.564" gradientUnits="userSpaceOnUse">
<stop offset="0.01" stop-color="#FFBE9E"/>
<stop offset="1" stop-color="#FD9F7C"/>
</linearGradient>
<linearGradient id="paint24_linear_6_139" x1="175.134" y1="65.0169" x2="180.117" y2="65.0169" gradientUnits="userSpaceOnUse">
<stop offset="0.01" stop-color="#FFBE9E"/>
<stop offset="1" stop-color="#FD9F7C"/>
</linearGradient>
<clipPath id="clip0_6_139">
<rect width="223" height="236" fill="white" transform="translate(46 30)"/>
</clipPath>
</defs>
</svg>
