<svg width="340" height="340" viewBox="0 0 340 340" fill="none" xmlns="http://www.w3.org/2000/svg">
<path d="M318 160C318 241.738 251.738 308 170 308C88.2619 308 22 241.738 22 160C22 78.2619 88.2619 12 170 12C251.738 12 318 78.2619 318 160Z" fill="#AEF1D8"/>
<g filter="url(#filter0_d_6_140)">
<circle cx="170" cy="160" r="130" fill="url(#paint0_linear_6_140)" shape-rendering="crispEdges"/>
</g>
<g clip-path="url(#clip0_6_140)">
<path d="M174.786 79.3061C187.866 73.8899 194.078 58.8989 188.66 45.8229C183.242 32.7469 168.245 26.5375 155.164 31.9537C142.084 37.37 135.872 52.3609 141.29 65.4369C146.708 78.5129 161.705 84.7224 174.786 79.3061Z" fill="#F4D5B5"/>
<path d="M164.97 80.145C177.886 80.145 188.356 69.6783 188.356 56.7669C188.356 43.8555 177.886 33.3888 164.97 33.3888C152.053 33.3888 141.583 43.8555 141.583 56.7669C141.583 69.6783 152.053 80.145 164.97 80.145Z" fill="#F2C399"/>
<path d="M159.283 44.7265C159.283 44.7265 161.564 41.9155 164.954 41.3846C168.344 40.8536 174.577 43.3054 176.483 50.411C178.389 57.5166 178.905 59.2188 178.061 65.7465C177.327 71.5403 177.874 73.6017 180.483 73.633C184.357 73.6798 187.747 79.9109 184.263 81.8785C180.779 83.8619 174.843 81.2539 174.671 81.0196C174.499 80.7854 165.954 73.305 165.954 72.8834C165.954 72.4617 165.798 59.2032 165.907 58.8284C166.016 58.4536 159.267 44.7109 159.267 44.7109L159.283 44.7265Z" fill="#46161C"/>
<path d="M159.283 44.7266C159.283 44.7266 149.019 48.1622 151.269 55.6582C149.644 60.3901 148.441 68.011 152.831 70.7439C148.738 73.1801 148.785 80.1607 153.862 83.1748C157.908 85.5797 166.001 80.801 166.641 80.1295C167.297 79.458 170.078 72.5867 170.265 72.2587C170.469 71.9308 168.375 62.2172 168.281 60.9523C168.188 59.6717 159.283 44.7266 159.283 44.7266Z" fill="#46161C"/>
<path d="M137.974 290.939C137.974 290.939 141.52 289.08 144.067 287.425C148.847 287.019 151.222 289.299 151.659 290.189C149.113 291.407 146.426 291.501 146.426 291.501L138.911 291.985L137.974 290.954V290.939Z" fill="#FF948C"/>
<path d="M139.224 291.969C139.224 292.547 138.661 293 137.974 293C137.287 293 136.724 292.532 136.724 291.969C136.724 291.407 137.287 290.939 137.974 290.939C138.661 290.939 139.224 291.407 139.224 291.969Z" fill="url(#paint1_linear_6_140)"/>
<path d="M141.52 292.219C141.52 292.844 140.911 293 140.146 293C139.38 293 138.771 292.844 138.771 292.219C138.771 291.595 139.38 290.736 140.146 290.736C140.911 290.736 141.52 291.595 141.52 292.219Z" fill="url(#paint2_linear_6_140)"/>
<path d="M144.067 292.125C144.067 292.813 143.395 293 142.551 293C141.708 293 141.036 292.813 141.036 292.125C141.036 291.438 141.708 290.486 142.551 290.486C143.395 290.486 144.067 291.423 144.067 292.125Z" fill="url(#paint3_linear_6_140)"/>
<path d="M146.941 291.86C146.941 292.641 146.176 293 145.238 293C144.301 293 143.536 292.641 143.536 291.86C143.536 291.079 144.301 290.173 145.238 290.173C146.176 290.173 146.941 291.079 146.941 291.86Z" fill="url(#paint4_linear_6_140)"/>
<path d="M152.159 291.485C152.159 292.594 150.878 292.938 149.3 292.938C147.722 292.938 146.441 292.594 146.441 291.485C146.441 290.376 147.722 288.908 149.3 288.908C150.878 288.908 152.159 290.376 152.159 291.485Z" fill="url(#paint5_linear_6_140)"/>
<path d="M199.479 290.939C199.479 290.939 195.933 289.08 193.387 287.425C188.606 287.019 186.232 289.299 185.794 290.189C188.341 291.407 191.028 291.501 191.028 291.501L199.479 290.954V290.939Z" fill="#FF948C"/>
<path d="M198.245 291.969C198.245 292.547 198.808 293 199.495 293C200.182 293 200.745 292.532 200.745 291.969C200.745 291.407 200.182 290.939 199.495 290.939C198.808 290.939 198.245 291.407 198.245 291.969Z" fill="url(#paint6_linear_6_140)"/>
<path d="M195.933 292.219C195.933 292.844 196.542 293 197.308 293C198.073 293 198.683 292.844 198.683 292.219C198.683 291.595 198.073 290.736 197.308 290.736C196.542 290.736 195.933 291.595 195.933 292.219Z" fill="url(#paint7_linear_6_140)"/>
<path d="M193.387 292.125C193.387 292.813 194.058 293 194.902 293C195.746 293 196.417 292.813 196.417 292.125C196.417 291.438 195.746 290.486 194.902 290.486C194.058 290.486 193.387 291.423 193.387 292.125Z" fill="url(#paint8_linear_6_140)"/>
<path d="M190.512 291.86C190.512 292.641 191.278 293 192.215 293C193.152 293 193.918 292.641 193.918 291.86C193.918 291.079 193.152 290.173 192.215 290.173C191.278 290.173 190.512 291.079 190.512 291.86Z" fill="url(#paint9_linear_6_140)"/>
<path d="M185.31 291.485C185.31 292.594 186.591 292.938 188.169 292.938C189.747 292.938 191.028 292.594 191.028 291.485C191.028 290.376 189.747 288.908 188.169 288.908C186.591 288.908 185.31 290.376 185.31 291.485Z" fill="url(#paint10_linear_6_140)"/>
<path d="M151.347 113.908L151.441 114.345C151.441 114.345 151.159 115.126 150.675 116.391C150.019 118.156 148.988 120.858 147.863 123.794C146.551 127.198 145.098 130.884 143.895 133.741C141.677 136.693 139.552 139.441 137.49 142.003C135.787 144.142 134.131 146.125 132.537 147.999C132.506 148.031 132.475 148.062 132.459 148.093C131.85 148.811 131.241 149.514 130.647 150.201L130.538 152.278C130.538 152.278 123.336 169.019 107.62 172.096L103.183 163.257V147.109L107.87 143.72C107.714 142.752 107.557 141.831 107.354 141.019C107.104 140.941 105.855 139.738 104.667 138.551C103.496 137.38 102.402 136.256 102.402 136.256C102.402 136.256 112.025 128.151 125.32 119.921C135.209 101.134 142.989 91.2485 147.566 86.3917C147.894 86.0325 148.207 85.7202 148.504 85.4078C150.831 83.0341 152.112 82.2064 152.112 82.2064C152.112 82.2064 152.269 91.9981 152.643 92.8726C152.831 93.3255 152.409 94.3874 151.925 95.3088L158.268 107.38L151.394 113.924L151.347 113.908Z" fill="#F8E8D9"/>
<path d="M107.573 172.065C107.307 172.221 106.964 172.299 106.495 172.299C102.839 172.299 100.09 167.036 97.1997 155.574C96.8404 154.168 96.6373 152.778 96.5436 151.435C96.4811 150.389 96.4811 149.358 96.5436 148.374C96.7623 145.345 97.5903 142.643 98.6682 140.519C98.9025 140.066 99.1525 139.629 99.4181 139.223C100.808 137.068 102.449 135.772 103.808 135.772C104.058 135.772 104.292 135.818 104.511 135.912C104.511 135.912 104.511 135.912 104.542 135.912C104.855 136.053 105.151 136.271 105.433 136.584C105.761 136.943 106.042 137.411 106.323 137.974C106.761 138.926 107.136 140.144 107.432 141.565C107.526 142.003 107.62 142.471 107.698 142.955C107.714 143.065 107.729 143.19 107.76 143.314C107.776 143.439 107.792 143.549 107.823 143.674C107.885 144.017 107.932 144.376 107.979 144.736C107.995 144.892 108.01 145.032 108.026 145.188C108.307 148.671 106.839 152.466 106.839 156.714C106.839 166.255 109.37 170.987 107.589 172.033L107.573 172.065Z" fill="#93645F"/>
<path d="M230.458 143.689L235.13 147.078L230.302 144.751C230.349 144.392 230.396 144.033 230.458 143.689Z" fill="white"/>
<path d="M235.067 147.219L230.146 144.845V144.736C230.208 144.376 230.255 144.017 230.302 143.674L230.333 143.424L235.208 146.953L235.051 147.203L235.067 147.219ZM230.474 144.673L233.708 146.219L230.583 143.955C230.552 144.189 230.521 144.423 230.49 144.673H230.474Z" fill="black"/>
<path d="M235.13 147.078V163.241L230.693 172.08C230.693 172.08 230.677 172.08 230.646 172.049C230.318 171.83 228.021 170.3 224.116 166.911C224.116 166.911 224.1 166.88 224.085 166.88C221.366 164.131 218.695 160.415 217.976 155.964C217.226 155.402 216.476 154.839 215.742 154.246C209.446 149.233 203.65 143.018 194.386 133.757C192.012 128.557 189.34 122.529 187.45 118.218C185.982 114.861 184.982 112.565 184.982 112.565L180.061 107.396L186.403 95.3244C185.919 94.403 185.497 93.3411 185.685 92.8882C186.044 92.0137 190.809 86.9695 190.809 86.9695C190.809 86.9695 202.119 97.7918 213.008 119.936C215.742 121.623 218.351 123.341 220.788 124.996C223.225 126.651 225.475 128.26 227.475 129.712C227.475 129.712 232.177 131.945 234.848 133.242C237.52 134.522 238.629 139.113 238.629 139.113L234.442 135.834C234.052 135.834 233.677 135.959 233.349 136.193C233.349 136.193 233.317 136.209 233.317 136.224C233.27 136.256 233.239 136.287 233.192 136.318C232.864 136.584 232.505 137.005 232.161 137.646C231.693 138.52 231.286 139.676 230.974 141.05C230.927 141.237 230.88 141.409 230.849 141.597C230.849 141.628 230.849 141.643 230.833 141.675C230.787 141.893 230.74 142.112 230.693 142.346C230.662 142.534 230.63 142.721 230.599 142.908C230.583 143.033 230.552 143.143 230.537 143.267C230.505 143.424 230.49 143.58 230.458 143.752C230.412 144.095 230.349 144.454 230.302 144.814L233.505 146.36L235.114 147.14L235.13 147.078Z" fill="#F8E8D9"/>
<path d="M241.082 155.589C238.176 167.052 235.442 172.315 231.786 172.315C231.318 172.315 230.958 172.237 230.708 172.08C228.927 171.018 231.458 166.302 231.458 156.76C231.458 152.325 229.849 148.39 230.318 144.767C230.677 141.956 231.208 139.598 231.958 138.005C232.021 137.864 232.083 137.739 232.161 137.614C232.786 136.443 233.536 135.787 234.473 135.787C235.833 135.787 237.489 137.083 238.863 139.239C240.301 141.487 241.472 144.689 241.738 148.39C241.894 150.639 241.738 153.09 241.097 155.589H241.082Z" fill="#93645F"/>
<path d="M148.269 135.35C148.269 135.35 129.335 187.01 127.585 280.6C147.316 285.254 145.488 284.832 145.488 284.832C145.488 284.832 147.801 225.958 148.504 224.396C149.207 222.85 148.269 135.365 148.269 135.365V135.35Z" fill="#DFCCBD"/>
<path d="M169.344 287.487C170.203 287.503 171.078 287.519 171.953 287.534H166.735C167.61 287.534 168.469 287.503 169.344 287.487Z" fill="white"/>
<path d="M171.937 287.69H166.719V287.394C167.594 287.394 168.453 287.362 169.328 287.347C170.187 287.362 171.062 287.378 171.937 287.394V287.69Z" fill="black"/>
<path d="M208.962 284.879C208.962 284.879 195.996 286.363 179.686 287.128C179.498 287.128 179.311 287.128 179.123 287.159C175.968 287.3 172.687 287.425 169.344 287.487C159.33 287.269 149.675 286.66 142.38 286.082C142.192 286.082 142.005 286.051 141.817 286.035C134.256 285.426 129.335 284.879 129.335 284.879C129.335 284.879 139.552 161.414 147.332 138.395C147.847 136.865 148.3 135.366 148.675 133.913C148.738 133.695 148.785 133.492 148.832 133.289C149.003 132.617 149.16 131.961 149.3 131.305C149.878 128.635 150.269 126.105 150.488 123.684C150.503 123.466 150.519 123.247 150.534 123.028C151.237 113.94 149.675 106.584 148.425 100.369C147.629 96.402 146.973 92.9039 147.113 89.7181C147.113 89.4526 147.129 89.2184 147.16 88.9685C147.269 87.6723 147.785 86.423 148.644 85.4547C150.394 83.4558 152.737 81.5818 155.034 79.9889C155.924 82.3158 158.767 88.2657 168.641 88.2657C177.202 88.2657 180.92 82.6125 182.248 79.3486C185.404 81.4256 188.825 84.1117 190.778 86.9696C190.871 87.3912 190.95 87.8285 191.012 88.2657C191.574 92.6696 190.309 97.7763 189.122 103.851C187.919 110.004 186.81 117.125 187.809 125.48C188.106 127.885 188.559 130.399 189.247 133.023C189.7 134.772 190.262 136.568 190.934 138.426C192.309 142.221 193.73 148.78 195.136 157.088C202.088 198.269 208.728 282.396 208.931 284.864V284.895V284.926L208.962 284.879Z" fill="#F8E8D9"/>
<path d="M190.309 132.617C190.2 132.695 190.059 132.773 189.918 132.804C181.186 135.194 173.609 136.037 167.282 136.037C158.767 136.037 152.518 134.522 148.722 133.242C148.519 133.164 148.347 133.054 148.222 132.898C147.957 132.586 147.847 132.149 147.988 131.743C148.207 131.118 148.863 130.79 149.488 131.009C155.83 133.164 169.453 135.975 189.294 130.54C189.918 130.368 190.575 130.743 190.746 131.368C190.871 131.852 190.7 132.352 190.309 132.633V132.617Z" fill="#FCF6F0"/>
<path d="M184.716 154.808C184.716 154.808 196.402 282.958 200.589 288.768C190.137 291.673 178.592 287.159 178.592 287.159L184.716 154.808Z" fill="#F8E8D9"/>
<path d="M217.992 155.964C217.242 155.402 216.492 154.84 215.758 154.246C215.852 140.722 227.412 133.913 227.412 133.913C216.273 145.407 217.992 155.98 217.992 155.98V155.964Z" fill="#DFCCBD"/>
<path d="M179.889 79.0831C179.483 79.7078 178.811 80.5667 177.889 81.4568C175.952 83.2996 172.843 85.2204 168.266 85.2204C160.83 85.2204 158.049 80.3949 157.393 78.9269C159.002 78.2242 162.345 76.6313 163.532 75.1008L164.063 71.4934L164.173 70.775L164.36 67.9172L164.798 61.4207H173.843L174.124 65.6684L174.171 66.3555L174.843 75.1008C174.843 75.1008 177.858 78.1305 179.873 79.0831H179.889Z" fill="url(#paint11_linear_6_140)"/>
<path d="M182.263 79.3017C180.92 82.5656 177.202 88.2188 168.656 88.2188C158.783 88.2188 155.94 82.2845 155.049 79.942C155.784 79.4267 156.518 78.9426 157.236 78.5053C157.299 78.7083 159.642 85.2205 168.281 85.2205C176.921 85.2205 180.451 78.1305 180.451 78.1305C181.045 78.4897 181.654 78.8801 182.263 79.3017Z" fill="#FCF6F0"/>
<path d="M150.675 116.391C150.019 118.156 148.988 120.858 147.863 123.794C146.551 127.198 145.098 130.884 143.895 133.726C141.677 136.677 139.552 139.426 137.49 141.987C137.662 141.628 149.8 116.86 147.941 106.881C146.113 97.0111 147.098 89.9524 147.129 89.6713C146.816 96.5894 150.3 104.96 150.691 116.36L150.675 116.391Z" fill="#DFCCBD"/>
<path d="M187.45 118.218C187.591 105.35 191.996 95.7461 191.028 88.2345C191.106 88.4687 192.855 92.7165 191.028 99.3535C186.81 114.673 194.386 133.741 194.386 133.741C192.012 128.557 189.34 122.513 187.45 118.218Z" fill="#DFCCBD"/>
<path d="M172.984 68.8542C172.812 69.1509 172.546 69.3852 172.234 69.5413L171.187 69.9942L170.141 70.4471C169.828 70.5877 169.469 70.6189 169.141 70.5408C165.298 69.6038 162.501 68.6512 159.877 65.7465C159.845 65.7153 159.814 65.684 159.783 65.6528C158.846 64.5909 157.908 63.2791 156.955 61.6081C156.83 61.4207 156.705 61.2333 156.596 61.0459C156.393 60.7179 156.19 60.39 156.018 60.062C155.971 59.9683 155.924 59.8746 155.877 59.7966C152.019 52.6285 155.096 47.8342 159.174 46.0539C159.174 46.0539 159.174 46.0539 159.189 46.0539L160.502 45.4761L161.205 45.1794L161.829 44.9139C165.344 43.3835 169.984 43.9144 172.906 48.9898C172.968 49.0992 173.031 49.2241 173.109 49.349C173.187 49.4896 173.249 49.6301 173.327 49.7707C173.406 49.9112 173.468 50.0674 173.546 50.2236C173.687 50.5359 173.827 50.8482 173.952 51.1918C173.984 51.2855 174.03 51.3792 174.062 51.4729C174.093 51.5354 174.109 51.6134 174.14 51.6759C174.202 51.8789 174.265 52.0663 174.327 52.2693C174.468 52.7222 174.609 53.1907 174.718 53.6748C174.733 53.7373 174.749 53.7998 174.765 53.8778C175.249 55.4395 175.561 56.7982 175.733 58.0475C175.733 58.0787 175.733 58.11 175.733 58.1412C176.28 62.4358 175.046 65.2312 172.999 68.8854L172.984 68.8542Z" fill="url(#paint12_linear_6_140)"/>
<path opacity="0.75" d="M168.922 55.8455C169.156 55.5801 169.375 55.3146 169.594 55.0335C170.141 54.8773 170.703 54.7055 171.234 54.5337L172.062 54.2526C172.343 54.1589 172.609 54.0652 172.89 53.9559C172.609 54.0184 172.312 54.0809 172.031 54.1589L171.172 54.3776C170.609 54.5181 170.047 54.6899 169.484 54.8461H169.453L169.438 54.8773C169.219 55.1584 169 55.4551 168.797 55.7518C168.594 56.0486 168.375 56.3453 168.188 56.6576C168.438 56.3921 168.688 56.1266 168.922 55.8455Z" fill="#D35850"/>
<path opacity="0.75" d="M160.33 59.25L161.111 58.8439C161.626 58.5784 162.126 58.2974 162.626 58.0163C162.97 58.0475 163.329 58.0943 163.673 58.1099C164.032 58.1412 164.391 58.1568 164.766 58.1568C164.407 58.0787 164.048 58.0162 163.704 57.9538C163.345 57.8913 162.985 57.8445 162.626 57.8132H162.595H162.564C162.048 58.0943 161.548 58.3911 161.048 58.6878L160.298 59.1406C160.048 59.2968 159.799 59.453 159.564 59.6091C159.83 59.4842 160.095 59.3593 160.361 59.2343L160.33 59.25Z" fill="#D35850"/>
<path d="M168.281 60.2026C168.375 60.7648 167.625 61.6393 167.625 61.6393L167.438 61.7174L167.25 61.7955C167.25 61.7955 166.094 61.7486 165.751 61.2957C165.751 61.2957 166.376 60.3743 166.782 60.1869C167.188 60.0152 168.297 60.1869 168.297 60.1869L168.281 60.2026Z" fill="#FF948C"/>
<path d="M174.577 67.8079C174.499 67.9953 174.421 68.1827 174.359 68.3545C174.312 68.4482 174.28 68.5263 174.249 68.6044C173.452 70.4315 171.672 71.6496 169.672 71.7277H169.594C169.078 71.759 168.547 71.6809 168.047 71.5559C166.625 71.1655 165.36 70.6189 164.235 69.963C164.188 69.9318 164.142 69.9006 164.095 69.885C163.735 69.6663 163.376 69.4477 163.048 69.2134C161.658 68.2608 160.423 67.1208 159.361 65.8402C159.361 65.8402 159.345 65.809 159.33 65.7934C158.174 64.3879 157.221 62.8106 156.502 61.1084C156.315 60.7024 156.205 60.4213 156.205 60.4213C156.205 60.4213 156.205 60.4213 156.221 60.4213C156.408 60.593 158.517 62.6544 160.689 64.2005C162.126 65.2312 164.095 65.0594 165.376 63.8413C166.172 63.0917 166.969 62.5451 167.797 62.3733C168.391 62.2328 169.5 62.3109 170.594 62.4358C172.5 62.6544 174.265 61.3739 174.624 59.4999C174.921 57.8757 175.171 56.0642 175.03 54.9398C175.515 55.7987 175.827 56.7201 176.03 57.6727C176.03 57.7352 176.046 57.782 176.061 57.8445C176.702 61.3426 175.64 65.1375 174.562 67.8236L174.577 67.8079Z" fill="#63202B"/>
<path d="M161.173 49.6145C160.861 52.7847 159.814 57.1105 156.705 60.8742C156.658 60.921 156.627 60.9835 156.58 61.0303C156.127 60.2963 155.737 59.5936 155.409 58.9065C155.346 58.7815 155.299 58.6566 155.237 58.5317C155.237 58.5317 155.237 58.516 155.237 58.5004C153.3 54.1278 154.018 50.7389 155.877 48.4745C156.018 48.3027 156.158 48.1466 156.299 47.9904C157.111 47.1315 158.096 46.4756 159.142 46.0071C159.142 46.0071 159.142 46.0071 159.158 46.0071L160.47 45.4293L161.173 45.1326C161.173 45.1326 161.267 45.7572 161.283 46.8036C161.283 47.5532 161.283 48.5058 161.158 49.6145H161.173Z" fill="#46161C"/>
<path d="M174.093 51.629C166.672 50.9731 161.189 49.6145 161.189 49.6145C161.298 48.5057 161.33 47.5531 161.314 46.8035C161.298 45.7572 161.205 45.1325 161.205 45.1325L161.814 44.867C165.329 43.3366 169.969 43.8676 172.89 48.943C173.343 49.7238 173.749 50.6139 174.109 51.629H174.093Z" fill="#46161C"/>
<path opacity="0.5" d="M174.687 53.6436C172.999 53.7061 165.235 53.8622 162.907 52.1444C162.173 57.3135 156.908 60.8273 156.815 61.0303C156.815 61.0147 156.768 60.9522 156.705 60.8741C159.814 57.1105 160.861 52.7847 161.173 49.6145C161.173 49.6145 166.657 50.9888 174.077 51.6447C174.296 52.2693 174.499 52.9252 174.671 53.6436H174.687Z" fill="#FF948C"/>
<path d="M162.345 54.768C162.079 54.7993 161.814 54.8305 161.548 54.8773C161.283 54.9242 161.033 54.971 160.736 55.0491L160.658 55.0804L160.58 55.1584L160.47 55.2678L160.377 55.3771L160.173 55.5957C160.048 55.7363 159.923 55.8768 159.799 56.0174C159.549 56.3141 159.314 56.6108 159.096 56.9075C158.877 57.2198 158.658 57.5322 158.455 57.8445C158.252 58.1725 158.064 58.5004 157.893 58.8596C158.221 58.641 158.517 58.4067 158.814 58.1568C159.111 57.907 159.377 57.6571 159.658 57.3916C159.923 57.1261 160.189 56.8607 160.439 56.5796L161.111 55.83C161.298 55.7675 161.533 55.705 161.736 55.6269C161.986 55.5489 162.236 55.4552 162.501 55.3615C162.751 55.2678 163.001 55.1741 163.251 55.0647C163.501 54.9554 163.751 54.8461 164.001 54.7212C163.72 54.7056 163.454 54.7212 163.173 54.7212C162.907 54.7212 162.626 54.7524 162.361 54.7836L162.345 54.768Z" fill="#46161C"/>
<path d="M171.437 52.363C171.062 52.2849 170.687 52.2381 170.312 52.1912C169.937 52.1444 169.562 52.1131 169.188 52.0975C169 52.0975 168.813 52.0975 168.625 52.0819H168.344H168.203H168.047H167.953L167.875 52.1288C167.61 52.2849 167.407 52.4411 167.188 52.6129C166.969 52.769 166.766 52.9408 166.563 53.1282C166.36 53.3 166.157 53.4874 165.969 53.6748C165.782 53.8622 165.579 54.0652 165.407 54.2839C165.673 54.1902 165.922 54.0965 166.172 53.9715C166.422 53.8622 166.657 53.7373 166.907 53.628C167.141 53.503 167.375 53.3781 167.61 53.2532C167.797 53.1438 168 53.0345 168.188 52.9252H169.203C169.578 52.9408 169.953 52.9252 170.328 52.9252C170.703 52.9096 171.078 52.8784 171.468 52.8315C171.843 52.7847 172.234 52.7378 172.609 52.6441C172.234 52.5192 171.859 52.4411 171.484 52.363H171.437Z" fill="#46161C"/>
<path d="M159.361 65.8403C158.252 66.2463 156.721 65.5748 155.721 64.1849C154.596 62.592 154.581 60.6712 155.69 59.8747C155.737 59.8435 155.784 59.8122 155.846 59.781C155.955 59.984 156.08 60.2027 156.205 60.4213C156.205 60.4213 156.33 60.7024 156.502 61.1084C157.221 62.8106 158.174 64.3879 159.33 65.7934C159.33 65.7934 159.345 65.8247 159.361 65.8247V65.8403Z" fill="url(#paint13_linear_6_140)"/>
<path d="M159.33 65.7933C158.33 65.7933 157.174 65.153 156.377 64.0286C155.377 62.6231 155.252 60.9678 156.002 60.0464C156.065 60.1713 156.143 60.2963 156.221 60.4368C156.221 60.4368 156.346 60.7023 156.518 61.1239C157.236 62.8262 158.189 64.4034 159.345 65.8089L159.33 65.7933Z" fill="#FF948C"/>
<path d="M176.077 57.8445C176.077 57.8445 176.061 57.7352 176.046 57.6728C176.608 56.97 176.843 55.8768 176.577 54.7681C176.264 53.425 175.312 52.4412 174.28 52.2382C174.218 52.0351 174.155 51.8477 174.093 51.6603C174.093 51.6603 174.046 51.5198 174.015 51.4573C175.405 51.3792 176.733 52.6754 177.061 54.4713C177.311 55.8456 176.889 57.1574 176.077 57.8758V57.8445Z" fill="url(#paint14_linear_6_140)"/>
<path d="M176.046 57.6728C175.858 56.7201 175.546 55.7988 175.062 54.9242C174.968 54.5807 174.858 54.2215 174.749 53.8467C174.733 53.7842 174.718 53.7061 174.702 53.6437C174.577 53.1439 174.452 52.6754 174.312 52.2382C175.343 52.4256 176.28 53.425 176.608 54.7681C176.874 55.8925 176.639 56.9856 176.077 57.6728H176.046Z" fill="#FF948C"/>
<path d="M160.189 116.344L159.595 115.345L159.299 114.845L159.017 114.33C158.642 113.658 158.283 112.971 157.939 112.284C157.768 111.941 157.596 111.597 157.424 111.253L156.94 110.207C155.643 107.412 154.643 104.476 153.878 101.509C153.112 98.5258 152.628 95.4806 152.44 92.4041C152.362 90.8737 152.331 89.3276 152.394 87.7972C152.409 87.2974 152.456 86.7821 152.487 86.2824C152.565 87.0632 152.659 87.8596 152.784 88.6405C153.081 90.4364 153.534 92.2167 154.174 93.9345C154.815 95.6367 155.627 97.2921 156.674 98.7757C157.19 99.5253 157.783 100.212 158.408 100.868C159.033 101.524 159.752 102.102 160.47 102.633C159.767 102.055 159.096 101.446 158.502 100.775C157.908 100.103 157.33 99.4004 156.862 98.6351C155.877 97.1203 155.112 95.4806 154.518 93.794C153.94 92.0918 153.518 90.3271 153.268 88.5624C153.018 86.8758 152.862 85.158 152.893 83.4558C152.893 83.3152 152.784 83.1747 152.643 83.159C152.487 83.1434 152.347 83.2371 152.315 83.3933C152.019 84.8456 151.894 86.298 151.815 87.766C151.737 89.3276 151.753 90.8737 151.847 92.4353C152.05 95.543 152.565 98.6195 153.362 101.634C153.768 103.133 154.237 104.616 154.784 106.069C155.049 106.803 155.362 107.505 155.643 108.239L156.112 109.301C156.268 109.66 156.424 110.004 156.612 110.363C156.955 111.066 157.283 111.753 157.674 112.44C158.033 113.127 158.439 113.799 158.83 114.455L159.127 114.955L159.439 115.439L160.064 116.423C160.486 117.063 160.955 117.687 161.392 118.328C160.986 117.672 160.564 117.016 160.158 116.36L160.189 116.344Z" fill="#DFCCBD"/>
<path d="M184.919 86.4855C185.232 90.0148 185.263 93.5598 185.107 97.1048C184.951 100.65 184.607 104.179 184.076 107.693C183.935 108.567 183.81 109.442 183.638 110.316L183.123 112.924C183.045 113.362 182.935 113.799 182.826 114.221L182.513 115.517L182.201 116.813C182.107 117.25 181.951 117.672 181.826 118.094L181.061 120.639C180.779 121.482 180.467 122.31 180.17 123.138L179.717 124.387L179.186 125.605C178.842 126.417 178.483 127.229 178.124 128.041C178.42 127.214 178.733 126.37 179.045 125.558L179.514 124.309L179.904 123.044C180.17 122.201 180.451 121.357 180.701 120.514L181.389 117.953C182.263 114.533 182.998 111.082 183.498 107.584C184.029 104.101 184.419 100.587 184.654 97.0579L184.81 94.4187C184.841 93.5442 184.888 92.654 184.904 91.7639C184.966 89.9992 184.966 88.2345 184.935 86.4542L184.919 86.4855Z" fill="#DFCCBD"/>
<path d="M179.889 79.0831C179.483 79.7078 178.811 80.5667 177.889 81.4569L173.593 76.2877L173.109 72.9614C167.922 74.8979 164.954 72.4773 164.079 71.4934L164.188 70.7751L164.251 69.963C165.376 70.6033 166.641 71.1655 168.063 71.5559C168.563 71.6965 169.078 71.7589 169.609 71.7277H169.687C171.687 71.6496 173.468 70.4315 174.265 68.6044C174.296 68.5263 174.327 68.4482 174.374 68.3545L174.89 75.1009C174.89 75.1009 177.905 78.1305 179.92 79.0831H179.889Z" fill="#FF948C"/>
<path d="M132.522 147.999C132.522 147.999 132.459 148.062 132.444 148.093C131.819 148.811 131.225 149.514 130.632 150.201C130.632 150.201 132.803 136.037 126.851 123.497C128.929 126.792 133.865 134.101 132.537 148.015L132.522 147.999Z" fill="#DFCCBD"/>
<path d="M167.922 66.2306C167.797 66.2306 167.719 66.2306 167.703 66.2306C167.657 66.2306 167.625 66.1993 167.641 66.1525C167.657 66.1056 167.672 66.0744 167.719 66.09C167.719 66.09 169.141 66.1837 170.094 65.5278C170.125 65.5122 170.172 65.5278 170.203 65.5434C170.219 65.5747 170.203 65.6215 170.187 65.6528C169.406 66.1837 168.375 66.2462 167.938 66.2462L167.922 66.2306Z" fill="url(#paint15_linear_6_140)"/>
<path d="M179.483 290.08C178.03 290.423 176.546 290.72 175.046 290.923C173.468 291.126 171.89 291.298 170.297 291.36C167.125 291.516 163.923 291.407 160.751 291.11C157.58 290.814 154.424 290.33 151.3 289.689C148.254 289.049 145.223 288.299 142.27 287.331L142.364 286.082C149.675 286.66 159.314 287.269 169.328 287.487C172.656 287.409 175.952 287.3 179.108 287.159L179.467 290.095L179.483 290.08Z" fill="#F8E8D9"/>
<path d="M180.108 290.517L179.858 290.579C178.295 290.954 176.718 291.282 175.124 291.501C173.531 291.719 171.921 291.876 170.328 291.954C168.719 292.032 167.11 292.047 165.516 292.001C163.907 291.954 162.314 291.86 160.705 291.704C157.502 291.407 154.331 290.907 151.191 290.251C148.051 289.596 144.942 288.815 141.895 287.784L141.692 287.722V287.503L141.817 286.019L146.441 221.148L148.847 187.978L151.3 154.808L149.097 187.994L146.848 221.179L142.38 286.082L142.286 287.331C145.238 288.299 148.269 289.065 151.316 289.689C154.44 290.329 157.596 290.814 160.767 291.11C163.938 291.407 167.125 291.516 170.312 291.36C171.906 291.298 173.484 291.126 175.062 290.923C176.546 290.72 178.03 290.423 179.498 290.08L179.139 287.144L177.452 273.604L175.405 256.863C175.062 254.068 174.733 251.288 174.405 248.493L173.437 240.122C172.781 234.547 172.187 228.956 171.578 223.365C170.39 212.184 169.203 201.018 168.219 189.821L167.5 181.419C167.282 178.608 167.047 175.813 166.86 173.017L166.579 168.816L166.329 164.615C166.188 161.804 166.047 159.009 166.047 156.198C166.047 159.009 166.235 161.804 166.391 164.615L166.672 168.816L166.985 173.017C167.204 175.813 167.453 178.624 167.688 181.419L168.469 189.805C169.547 200.987 170.75 212.168 172 223.334C173.265 234.5 174.577 245.65 175.936 256.816L177.999 273.542L179.717 287.128L180.108 290.267L180.139 290.517H180.108Z" fill="#DFCCBD"/>
<path d="M184.716 154.808L188.216 188.384L191.746 221.944C192.98 233.126 194.152 244.307 195.496 255.489C196.167 261.08 196.87 266.655 197.62 272.23C197.995 275.01 198.401 277.789 198.87 280.569C199.104 281.959 199.339 283.333 199.636 284.708C199.698 285.051 199.776 285.395 199.854 285.738C199.932 286.082 200.01 286.425 200.104 286.753C200.276 287.409 200.479 288.128 200.792 288.643L200.963 288.94L200.651 289.018L199.276 289.33C199.042 289.377 198.823 289.439 198.589 289.486L197.886 289.58C197.417 289.642 196.964 289.72 196.495 289.767L195.089 289.877C193.215 289.955 191.34 289.939 189.481 289.72C187.622 289.533 185.779 289.221 183.951 288.799C182.139 288.362 180.342 287.846 178.592 287.175C180.358 287.8 182.154 288.268 183.982 288.643C185.81 289.033 187.653 289.299 189.497 289.455C191.356 289.627 193.215 289.611 195.058 289.486L196.449 289.361C196.902 289.314 197.37 289.221 197.823 289.143L198.511 289.033C198.745 288.986 198.964 288.924 199.182 288.877L200.526 288.549L200.401 288.924C200.307 288.752 200.198 288.58 200.135 288.409C200.073 288.237 199.995 288.065 199.932 287.893C199.823 287.55 199.714 287.206 199.62 286.863C199.526 286.519 199.432 286.175 199.354 285.832C199.261 285.488 199.182 285.145 199.12 284.801C198.808 283.427 198.558 282.037 198.308 280.647C197.808 277.867 197.37 275.088 196.964 272.308C196.121 266.748 195.418 261.158 194.73 255.567C193.355 244.401 192.074 233.219 190.934 222.022C189.778 210.825 188.637 199.628 187.638 188.431C186.591 177.234 185.622 166.021 184.747 154.793L184.716 154.808Z" fill="#DFCCBD"/>
<path d="M258.094 144.985C258.094 144.985 257.048 143.502 256.048 142.737C254.532 142.284 252.033 142.377 250.72 142.456C250.174 142.487 249.643 142.596 249.127 142.737L248.299 142.986C248.299 142.986 248.283 142.986 248.268 142.986C246.174 143.611 243.925 143.236 242.222 141.878C241.253 141.097 240.097 140.191 238.863 139.207C238.066 138.583 237.238 137.927 236.379 137.255C235.754 136.771 235.114 136.256 234.473 135.756C232.864 135.756 231.739 137.771 230.989 140.956C230.943 141.144 230.896 141.316 230.864 141.503C230.864 141.534 230.864 141.55 230.849 141.581C230.802 141.8 230.755 142.018 230.708 142.253C230.677 142.44 230.646 142.627 230.614 142.815C230.583 142.94 230.568 143.049 230.552 143.174C230.521 143.33 230.505 143.486 230.474 143.658C230.427 144.002 230.38 144.361 230.318 144.72L235.145 147.047L240.488 149.624C243.784 152.622 247.127 154.262 249.721 155.167C253.392 150.967 253.579 147.781 253.579 147.781C253.298 147.578 253.017 147.39 252.736 147.203C252.47 147.031 252.205 146.875 251.939 146.719C252.017 146.61 252.095 146.516 252.158 146.422C252.767 145.579 253.173 144.876 253.173 144.876L255.063 144.611L256.454 145.626C256.688 145.797 256.954 145.876 257.219 145.876C257.501 145.876 257.782 145.782 258.032 145.594C258.235 145.438 258.266 145.126 258.079 144.923L258.094 144.985Z" fill="url(#paint16_linear_6_140)"/>
<path d="M249.721 155.214C252.627 156.214 254.626 156.292 254.626 156.292L259.391 156.745C259.688 156.776 259.969 156.62 260.094 156.354L260.219 156.089H260.344C260.672 156.089 260.953 155.855 261 155.527C261.063 155.167 260.813 154.808 260.453 154.761L255.954 153.965L252.955 151.919L255.97 153.637L261.219 154.558C261.219 154.558 261.297 154.558 261.344 154.558C261.641 154.558 261.922 154.34 261.984 154.043C262.047 153.746 261.922 153.45 261.656 153.309L261.484 153.215L261.625 152.731C261.719 152.403 261.547 152.06 261.219 151.95L256.954 150.404L254.408 148.437C254.142 148.234 253.861 148.031 253.595 147.828C253.595 147.828 253.408 151.013 249.736 155.214H249.721Z" fill="#FF948C"/>
<path d="M240.472 149.655L235.13 147.078L230.302 144.751C230.349 144.392 230.396 144.033 230.458 143.689C230.49 143.533 230.505 143.361 230.537 143.205C230.552 143.08 230.583 142.971 230.599 142.846C230.63 142.659 230.662 142.456 230.708 142.268C230.755 142.049 230.802 141.815 230.849 141.597C230.849 141.565 230.849 141.55 230.865 141.519C230.912 141.331 230.943 141.144 230.99 140.956C231.739 137.771 232.864 135.756 234.473 135.756C234.473 135.756 231.177 140.66 231.755 144.158C239.691 149.124 240.426 149.577 240.504 149.624L240.472 149.655Z" fill="#FF948C"/>
<path d="M252.736 147.25C252.439 147.765 251.392 149.264 249.33 149.873C246.831 150.623 245.456 149.264 245.456 149.264C246.409 149.686 247.643 149.811 249.19 149.311C250.111 149.015 251.158 147.828 251.955 146.75C252.22 146.906 252.486 147.062 252.752 147.234L252.736 147.25Z" fill="#FF948C"/>
<path d="M108.026 145.22L103.87 147.219L98.5276 149.795C97.8715 150.389 97.2153 150.935 96.5592 151.435C93.9346 153.418 91.3726 154.621 89.2948 155.339C85.6235 151.138 85.4361 147.953 85.4361 147.953C85.7173 147.75 85.9985 147.562 86.2797 147.375C86.5453 147.203 86.8108 147.047 87.0764 146.891C86.9983 146.781 86.9202 146.688 86.8577 146.594C86.2484 145.751 85.8423 145.048 85.8423 145.048L83.9519 144.782L82.5616 145.797C82.3428 145.969 82.0616 146.047 81.7961 146.047C81.5149 146.047 81.2337 145.954 80.9837 145.766C80.7806 145.61 80.7494 145.298 80.9368 145.095C80.9368 145.095 81.9835 143.611 82.9834 142.846C84.4987 142.393 86.9983 142.487 88.3106 142.565C88.8574 142.596 89.3885 142.705 89.9041 142.861L90.7321 143.111H90.7633C92.8567 143.736 95.1063 143.361 96.8092 142.003C97.3872 141.534 98.0277 141.034 98.7151 140.488C99.1837 140.113 99.668 139.738 100.168 139.332C100.965 138.707 101.793 138.052 102.652 137.38C103.277 136.896 103.917 136.381 104.558 135.881C105.261 136.162 105.854 136.88 106.354 137.958C107.104 139.551 107.635 141.909 107.995 144.72C108.01 144.876 108.026 145.032 108.042 145.188L108.026 145.22Z" fill="url(#paint17_linear_6_140)"/>
<path d="M89.2792 155.355C86.3734 156.354 84.3738 156.432 84.3738 156.432L79.6089 156.885C79.3121 156.916 79.0309 156.76 78.9059 156.495L78.781 156.229H78.656C78.3279 156.229 78.0467 155.995 77.9998 155.667C77.9374 155.308 78.1873 154.949 78.5466 154.902L83.0459 154.105L86.0454 152.06L83.0302 153.778L77.7811 154.699C77.7811 154.699 77.703 154.699 77.6561 154.699C77.3593 154.699 77.0781 154.48 77.0156 154.184C76.9531 153.887 77.0781 153.59 77.3437 153.45L77.5155 153.356L77.3749 152.872C77.2812 152.544 77.4531 152.2 77.7811 152.091L82.046 150.545L84.5925 148.577C84.8581 148.374 85.1393 148.171 85.4048 147.968C85.4048 147.968 85.5923 151.154 89.2636 155.355H89.2792Z" fill="#FF948C"/>
<path d="M108.026 145.22L103.87 147.219L98.5432 149.795C98.6214 149.748 99.1056 149.436 102.027 147.609C105.995 145.126 107.151 139.863 104.573 135.959C104.573 135.959 104.573 135.943 104.558 135.928C105.245 136.224 105.839 136.927 106.339 137.989C107.089 139.582 107.62 141.94 107.979 144.751C107.995 144.907 108.01 145.048 108.026 145.204V145.22Z" fill="#FF948C"/>
<path d="M86.2641 147.39C86.5609 147.906 87.6076 149.405 89.6697 150.014C92.1693 150.764 93.5441 149.405 93.5441 149.405C92.5911 149.827 91.357 149.951 89.8103 149.452C88.8886 149.155 87.8419 147.968 87.0452 146.891C86.7796 147.047 86.514 147.203 86.2484 147.375L86.2641 147.39Z" fill="#FF948C"/>
<path opacity="0.5" d="M208.946 284.817C208.665 282.724 200.792 222.366 194.293 178.952C191.137 157.9 175.53 140.785 154.815 135.943C150.55 134.944 148.675 133.898 148.675 133.898C148.738 133.679 148.785 133.476 148.832 133.273C152.628 134.553 158.846 136.037 167.282 136.037C173.452 136.037 180.811 135.241 189.278 132.976C189.731 134.725 190.293 136.521 190.965 138.38C199.167 160.93 208.728 281.85 208.946 284.817Z" fill="#DFCCBD"/>
<path opacity="0.25" d="M150.675 116.407C150.019 118.172 148.988 120.873 147.863 123.809C146.551 127.214 145.098 130.899 143.895 133.757C141.677 136.709 139.552 139.457 137.49 142.018C135.787 144.158 134.131 146.141 132.537 148.015C132.506 148.046 132.475 148.078 132.459 148.109C131.85 148.827 131.241 149.53 130.647 150.217L130.538 152.294C130.538 152.294 123.336 169.035 107.62 172.112C109.401 171.05 106.87 166.333 106.87 156.792C106.87 152.544 108.338 148.749 108.057 145.267C108.057 145.11 108.026 144.954 108.01 144.798C107.964 144.439 107.917 144.08 107.854 143.736C107.839 143.611 107.823 143.502 107.792 143.377C107.776 143.252 107.76 143.143 107.729 143.018C107.651 142.534 107.557 142.065 107.464 141.628C107.167 140.207 106.792 138.989 106.354 138.036C106.089 137.474 105.792 136.99 105.464 136.646C111.697 142.346 109.385 155.386 109.385 155.386C109.385 155.386 118.274 149.389 135.584 135.381C143.176 126.152 147.426 105.725 148.441 100.384C149.378 105.022 150.472 110.285 150.691 116.438L150.675 116.407Z" fill="#DFCCBD"/>
<path opacity="0.25" d="M230.302 144.767C229.834 148.374 231.443 152.325 231.443 156.76C231.443 166.302 228.912 171.034 230.693 172.08C230.693 172.08 230.677 172.08 230.646 172.049C230.318 171.83 228.021 170.3 224.116 166.911C224.116 166.911 224.1 166.88 224.085 166.88C221.366 164.131 218.695 160.415 217.976 155.964C217.226 155.402 216.476 154.84 215.742 154.246C209.446 149.233 203.65 143.018 194.386 133.757C192.012 128.557 189.34 122.529 187.45 118.219C187.513 112.893 188.309 108.13 189.137 103.836C189.715 105.866 195.433 125.761 199.979 131.805C216.367 143.689 226.537 145.641 226.537 145.641L232.161 137.614C232.099 137.739 232.021 137.864 231.958 138.005C231.208 139.598 230.677 141.956 230.318 144.767H230.302Z" fill="#DFCCBD"/>
<path d="M251.767 150.67C251.908 151.295 251.377 151.935 250.611 152.091C249.83 152.263 249.096 151.904 248.955 151.279C248.815 150.654 249.346 150.014 250.111 149.858C250.877 149.702 251.627 150.045 251.767 150.67Z" fill="#FF5E5A"/>
<path d="M87.8732 150.67C87.7326 151.295 88.2637 151.935 89.0292 152.091C89.8103 152.263 90.5446 151.904 90.6852 151.279C90.8258 150.654 90.2946 150.014 89.5291 149.858C88.7636 149.702 88.0138 150.045 87.8732 150.67Z" fill="#FF5E5A"/>
</g>
<defs>
<filter id="filter0_d_6_140" x="0" y="0" width="340" height="340" filterUnits="userSpaceOnUse" color-interpolation-filters="sRGB">
<feFlood flood-opacity="0" result="BackgroundImageFix"/>
<feColorMatrix in="SourceAlpha" type="matrix" values="0 0 0 0 0 0 0 0 0 0 0 0 0 0 0 0 0 0 127 0" result="hardAlpha"/>
<feOffset dy="10"/>
<feGaussianBlur stdDeviation="20"/>
<feComposite in2="hardAlpha" operator="out"/>
<feColorMatrix type="matrix" values="0 0 0 0 0 0 0 0 0 0 0 0 0 0 0 0 0 0 0.1 0"/>
<feBlend mode="normal" in2="BackgroundImageFix" result="effect1_dropShadow_6_140"/>
<feBlend mode="normal" in="SourceGraphic" in2="effect1_dropShadow_6_140" result="shape"/>
</filter>
<linearGradient id="paint0_linear_6_140" x1="170" y1="30" x2="170" y2="290" gradientUnits="userSpaceOnUse">
<stop stop-color="#3DBA8C"/>
<stop offset="1" stop-color="#3DBA8C" stop-opacity="0"/>
</linearGradient>
<linearGradient id="paint1_linear_6_140" x1="136.724" y1="291.969" x2="139.224" y2="291.969" gradientUnits="userSpaceOnUse">
<stop offset="0.01" stop-color="#FFBE9E"/>
<stop offset="1" stop-color="#FD9F7C"/>
</linearGradient>
<linearGradient id="paint2_linear_6_140" x1="138.786" y1="291.86" x2="141.52" y2="291.86" gradientUnits="userSpaceOnUse">
<stop offset="0.01" stop-color="#FFBE9E"/>
<stop offset="1" stop-color="#FD9F7C"/>
</linearGradient>
<linearGradient id="paint3_linear_6_140" x1="141.036" y1="291.751" x2="144.067" y2="291.751" gradientUnits="userSpaceOnUse">
<stop offset="0.01" stop-color="#FFBE9E"/>
<stop offset="1" stop-color="#FD9F7C"/>
</linearGradient>
<linearGradient id="paint4_linear_6_140" x1="143.536" y1="291.594" x2="146.941" y2="291.594" gradientUnits="userSpaceOnUse">
<stop offset="0.01" stop-color="#FFBE9E"/>
<stop offset="1" stop-color="#FD9F7C"/>
</linearGradient>
<linearGradient id="paint5_linear_6_140" x1="146.426" y1="290.923" x2="152.159" y2="290.923" gradientUnits="userSpaceOnUse">
<stop offset="0.01" stop-color="#FFBE9E"/>
<stop offset="1" stop-color="#FD9F7C"/>
</linearGradient>
<linearGradient id="paint6_linear_6_140" x1="198.245" y1="29.9985" x2="200.729" y2="29.9985" gradientUnits="userSpaceOnUse">
<stop offset="0.01" stop-color="#FFBE9E"/>
<stop offset="1" stop-color="#FD9F7C"/>
</linearGradient>
<linearGradient id="paint7_linear_6_140" x1="195.933" y1="291.86" x2="198.683" y2="291.86" gradientUnits="userSpaceOnUse">
<stop offset="0.01" stop-color="#FFBE9E"/>
<stop offset="1" stop-color="#FD9F7C"/>
</linearGradient>
<linearGradient id="paint8_linear_6_140" x1="193.387" y1="291.751" x2="196.417" y2="291.751" gradientUnits="userSpaceOnUse">
<stop offset="0.01" stop-color="#FFBE9E"/>
<stop offset="1" stop-color="#FD9F7C"/>
</linearGradient>
<linearGradient id="paint9_linear_6_140" x1="190.512" y1="291.594" x2="193.918" y2="291.594" gradientUnits="userSpaceOnUse">
<stop offset="0.01" stop-color="#FFBE9E"/>
<stop offset="1" stop-color="#FD9F7C"/>
</linearGradient>
<linearGradient id="paint10_linear_6_140" x1="185.31" y1="290.923" x2="191.028" y2="290.923" gradientUnits="userSpaceOnUse">
<stop offset="0.01" stop-color="#FFBE9E"/>
<stop offset="1" stop-color="#FD9F7C"/>
</linearGradient>
<linearGradient id="paint11_linear_6_140" x1="157.393" y1="73.3362" x2="179.889" y2="73.3362" gradientUnits="userSpaceOnUse">
<stop offset="0.01" stop-color="#FFBE9E"/>
<stop offset="1" stop-color="#FD9F7C"/>
</linearGradient>
<linearGradient id="paint12_linear_6_140" x1="154.081" y1="57.3447" x2="175.843" y2="57.3447" gradientUnits="userSpaceOnUse">
<stop offset="0.01" stop-color="#FFBE9E"/>
<stop offset="1" stop-color="#FD9F7C"/>
</linearGradient>
<linearGradient id="paint13_linear_6_140" x1="154.877" y1="62.8731" x2="159.361" y2="62.8731" gradientUnits="userSpaceOnUse">
<stop offset="0.01" stop-color="#FFBE9E"/>
<stop offset="1" stop-color="#FD9F7C"/>
</linearGradient>
<linearGradient id="paint14_linear_6_140" x1="174.015" y1="54.6275" x2="177.124" y2="54.6275" gradientUnits="userSpaceOnUse">
<stop offset="0.01" stop-color="#FFBE9E"/>
<stop offset="1" stop-color="#FD9F7C"/>
</linearGradient>
<linearGradient id="paint15_linear_6_140" x1="167.625" y1="65.8714" x2="170.203" y2="65.8714" gradientUnits="userSpaceOnUse">
<stop offset="0.01" stop-color="#FFBE9E"/>
<stop offset="1" stop-color="#FD9F7C"/>
</linearGradient>
<linearGradient id="paint16_linear_6_140" x1="230.302" y1="145.501" x2="258.204" y2="145.501" gradientUnits="userSpaceOnUse">
<stop offset="0.01" stop-color="#FFBE9E"/>
<stop offset="1" stop-color="#FD9F7C"/>
</linearGradient>
<linearGradient id="paint17_linear_6_140" x1="80.7806" y1="145.641" x2="108.026" y2="145.641" gradientUnits="userSpaceOnUse">
<stop offset="0.01" stop-color="#FFBE9E"/>
<stop offset="1" stop-color="#FD9F7C"/>
</linearGradient>
<clipPath id="clip0_6_140">
<rect width="185" height="263" fill="white" transform="translate(77 30)"/>
</clipPath>
</defs>
</svg>
