<svg width="340" height="340" viewBox="0 0 340 340" fill="none" xmlns="http://www.w3.org/2000/svg">
<path d="M318 160C318 241.738 251.738 308 170 308C88.2619 308 22 241.738 22 160C22 78.2619 88.2619 12 170 12C251.738 12 318 78.2619 318 160Z" fill="#AEF1D8"/>
<g filter="url(#filter0_d_6_138)">
<circle cx="170" cy="160" r="130" fill="url(#paint0_linear_6_138)" shape-rendering="crispEdges"/>
</g>
<g clip-path="url(#clip0_6_138)">
<path d="M118.378 244.479L98.0415 256.71L84.0718 252.513L71.0408 248.582L63 223.667L88.4051 195.43L114.06 213.028L118.378 244.479Z" fill="#896064"/>
<path d="M118.378 244.479L98.0416 256.71L84.0719 252.513L84.6507 239.97L100.185 213.886L88.4052 195.43L114.061 213.028L118.378 244.479Z" fill="#966F70"/>
<path d="M254.508 245.945L212.568 257.427H97.979L104.174 218.004C104.174 218.004 96.8683 188.644 98.1354 185.586C99.4026 182.528 121.663 145.305 121.663 145.305L124.354 146.818L129.72 149.829L183.737 180.157L196.392 187.255L245.763 214.978L254.508 245.93V245.945Z" fill="#966F70"/>
<path d="M138.542 221.561L137.166 257.427H97.9944L104.189 218.004C104.189 218.004 96.8837 188.644 98.1508 185.586C99.4179 182.528 121.679 145.305 121.679 145.305L124.369 146.818L129.735 149.829C126.763 150.5 122.946 151.389 122.946 151.389L118.785 170.734L114.326 191.483L138.558 221.561H138.542Z" fill="#896064"/>
<path d="M254.508 245.945L212.568 257.427H187.726C185.864 242.482 179.388 190.531 179.388 188.503C179.388 188.503 186.944 187.911 196.392 187.271L245.763 214.993L254.508 245.945Z" fill="#896064"/>
<path opacity="0.5" d="M189.838 189.736C189.838 189.736 142.704 190.656 135.007 186.444C128.249 182.731 120.521 173.043 118.738 170.75L122.899 151.405C122.899 151.405 126.716 150.5 129.688 149.845L183.706 180.173L189.822 189.752L189.838 189.736Z" fill="#896064"/>
<path d="M146.834 30.8424C146.834 30.8424 156.157 28.6739 158.394 38.0655C165.668 44.8362 164.12 52.5742 161.601 58.0969C159.083 63.6195 157.909 67.9721 158.598 70.1874C159.27 72.4183 156.799 81.3887 148.023 80.1875C139.247 78.9862 138.558 73.1984 138.558 73.1984C138.558 73.1984 145.989 57.426 146.474 57.3324C146.959 57.2388 154.327 49.8753 154.327 49.8753L146.834 30.8424Z" fill="#5E1928"/>
<path d="M209.064 85.991C209.064 85.991 208.939 86.4434 208.688 87.1611C208.172 88.6119 207.108 91.1081 205.434 92.8553L204.762 92.5433L199.177 89.9536C199.177 89.9536 199.709 87.6759 200.194 83.7757C200.209 83.6041 200.241 83.4169 200.256 83.2453C200.679 80.016 201.414 75.7726 201.789 74.3841C201.821 74.2437 201.883 74.0877 201.962 73.9785C202.04 73.8693 202.149 73.7913 202.29 73.7913C202.759 73.7913 203.135 74.1813 203.135 74.6493L203.025 81.9192V82.122C203.025 82.122 203.104 82.122 203.135 82.122C205.591 82.3093 207.734 83.9005 208.485 86.2406C208.688 86.0846 208.892 85.9286 208.892 85.9286L209.064 86.0066V85.991Z" fill="#FF948C"/>
<path d="M175.321 113.386C174.773 115.492 174.226 117.442 173.694 119.22C170.299 130.531 167.374 135.336 167.374 135.336C167.374 135.336 161.038 131.264 157.033 120.547C153.044 109.876 153.029 79.9535 153.029 79.6259C153.029 79.6259 164.229 88.0346 173.975 110.234C174.429 111.264 174.867 112.309 175.321 113.386Z" fill="#F7D7BC"/>
<path d="M204.777 106.833C204.652 107.114 196.846 124.431 185.395 135.055C184.926 135.492 184.456 135.913 183.987 136.319C183.987 136.319 179.059 137.208 177.307 137.817C169.235 140.625 164.261 133.651 165.481 127.832C165.934 125.679 167.155 123.167 168.844 120.5C170.502 117.879 172.614 115.117 174.914 112.387C183.314 102.387 194.187 92.8552 194.187 92.8552C193.983 93.292 193.921 93.8225 193.936 94.4465C193.952 94.8989 194.046 95.3981 194.187 95.9286C194.562 97.3794 195.329 99.0955 196.392 100.936C196.596 101.28 196.799 101.623 197.003 101.95C197.347 102.496 197.691 103.011 198.051 103.511C198.145 103.651 198.254 103.776 198.348 103.916C198.41 103.994 198.457 104.057 198.52 104.135C198.661 104.322 198.817 104.509 198.958 104.681C199.114 104.883 199.286 105.071 199.443 105.258C200.773 106.74 202.102 107.692 203.213 107.692C203.244 107.692 203.291 107.692 203.323 107.692C203.354 107.692 203.385 107.692 203.416 107.692C203.448 107.692 203.463 107.692 203.495 107.692C203.51 107.692 203.542 107.692 203.557 107.692C203.573 107.692 203.588 107.692 203.604 107.692H203.635C203.667 107.692 203.698 107.692 203.729 107.66C203.776 107.66 203.807 107.629 203.854 107.614C203.886 107.614 203.933 107.582 203.964 107.567C204.011 107.551 204.058 107.52 204.105 107.489C204.371 107.333 204.605 107.13 204.777 106.865V106.833Z" fill="#F7D7BC"/>
<path d="M261.751 233.714C261.751 233.714 236.158 244.12 221.25 228.784C206.357 213.449 219.357 206.85 220.421 206.85C221.485 206.85 249.737 211.218 250.926 211.92C252.115 212.622 261.751 233.714 261.751 233.714Z" fill="#DFCCBD"/>
<path d="M163.166 143.339L243.573 157.661L230.495 177.458L139.998 169.377L163.166 143.339Z" fill="white"/>
<path d="M230.558 177.598H230.48L139.732 169.486L163.103 143.199H163.166L243.761 157.583L230.542 177.598H230.558ZM140.263 169.283L230.433 177.333L243.354 157.754L163.213 143.464L140.263 169.268V169.283Z" fill="black"/>
<path d="M246.217 259.674C246.217 260.782 245.498 261.92 244.449 262.498C243.777 262.872 243.088 263.153 242.369 263.356C239.741 264.089 236.894 263.683 234.547 262.154L221 252.669C219.232 251.421 218.2 249.346 218.372 247.193C218.622 244.136 221.094 242.669 221.062 238.551C207.828 197.115 200.898 210.391 195.657 171.686C194.75 150.765 210.894 138.441 210.894 138.441L222.721 153.807C222.721 153.807 222.017 209.814 230.527 237.396C233.827 247.318 231.684 246.679 242.181 255.29C243.12 256.055 244.152 256.897 245.294 257.817C245.936 258.332 246.201 259.003 246.201 259.674H246.217Z" fill="url(#paint1_linear_6_138)"/>
<path d="M273.374 261.374C272.123 260.204 271.028 259.128 270.058 258.129C262.189 250.017 262.596 246.85 257.731 239.112L248.235 177.474L240.054 158.737L224.551 181.218L249.799 240.813C249.643 242.123 249.252 243.246 248.814 244.26C247.813 246.569 246.624 248.254 247.625 250.126C247.907 250.672 248.345 251.125 248.83 251.499L265.959 263.964L266.726 264.526C268.228 265.587 270.12 265.852 271.826 265.275C272.185 265.15 272.529 265.009 272.858 264.807C273.531 264.416 273.984 263.621 273.984 262.825C273.984 262.31 273.797 261.796 273.359 261.39L273.374 261.374Z" fill="url(#paint2_linear_6_138)"/>
<path d="M153.029 79.6103C138.23 86.8959 129.36 77.0986 127.686 75.0081H127.717C127.717 75.0081 127.749 75.0081 127.796 75.0081C128.562 75.0081 134.444 74.5089 132.755 59.1578C132.301 58.5026 131.816 57.9565 131.347 57.5353L131.91 50.9674H145.097L145.535 67.1298L145.707 73.3232L145.739 74.6337C145.739 74.6337 148.382 77.8007 153.029 79.6103Z" fill="#FF948C"/>
<path d="M204.793 106.834C204.605 107.099 204.386 107.302 204.105 107.458C202.837 108.191 201.132 107.161 199.443 105.258C199.286 105.071 199.114 104.883 198.958 104.681C198.082 103.604 197.206 102.309 196.408 100.936C195.344 99.0956 194.562 97.3795 194.202 95.9286C194.061 95.3982 193.983 94.899 193.952 94.4466C193.921 93.8381 193.999 93.3077 194.202 92.8553C194.39 92.4341 194.687 92.1065 195.094 91.8568C195.845 91.4356 196.486 91.3732 197.534 91.8256C198.661 92.3249 198.989 93.9317 199.678 95.5386C200.116 96.5371 200.679 97.5355 201.664 98.2375C205.653 101.108 205.966 105.211 204.809 106.834H204.793Z" fill="#D1896D"/>
<path d="M261.751 233.714C254.32 236.398 250.66 234.276 247.234 231.281C243.792 228.27 240.601 224.354 234.093 223.511C232.592 223.309 230.918 223.277 229.025 223.465L215.79 144.541C215.79 144.541 217.934 144.931 221.485 145.726C225.802 146.693 232.185 148.269 239.287 150.5C254.242 170.563 259.827 213.589 261.751 233.73V233.714Z" fill="#F7D7BC"/>
<path d="M234.954 226.975C233.64 226.865 232.435 226.803 231.309 226.803C221.891 226.803 218.434 230.438 214.523 233.34C214.101 233.652 213.663 233.964 213.209 234.26C212.865 234.494 212.505 234.713 212.145 234.915C209.846 236.226 207.061 237.1 202.838 236.85C187.178 206.928 195.532 200.235 186.506 188.472C180.061 180.095 167.233 181.935 146.505 178.472C144.91 178.207 143.361 177.801 141.875 177.271C141.108 177.006 140.342 176.694 139.606 176.35C139.278 176.194 138.949 176.038 138.621 175.882C131.925 172.481 126.826 166.397 124.792 158.94C114.53 121.295 117.565 77.5041 117.565 77.5041C124.104 76.2249 127.717 74.9924 127.717 74.9924C127.717 74.9924 140.623 79.501 153.029 79.5946C160.381 83.8224 163.963 98.5027 165.715 111.795C166.013 114.025 166.247 116.21 166.451 118.3C166.56 119.392 166.654 120.469 166.732 121.514C166.779 122.075 166.857 122.621 166.951 123.167C168.297 130.141 174.523 135.274 181.813 135.102C191.074 134.884 203.01 135.102 212.067 137.021C215.055 137.754 217.183 139.782 219.185 142.31C220.03 143.386 220.812 144.509 221.5 145.695C224.128 150.126 225.63 155.165 225.927 160.328C226.037 162.216 226.162 164.338 226.303 166.615C227.398 183.589 231.371 213.418 234.954 226.959V226.975Z" fill="#F8E8D9"/>
<path d="M159.286 113.136C156.142 143.589 143.564 178.238 134.851 177.458C132.864 177.037 131.347 176.226 130.189 175.212C126.137 171.67 126.403 165.711 126.403 165.711C126.403 165.711 121.898 158.566 122.899 151.389C159.724 131.576 153.013 79.6103 153.013 79.6103C153.013 79.6103 157.565 78.6431 158.723 85.289C160.318 93.0893 160.334 102.871 159.27 113.136H159.286Z" fill="#C83D3A"/>
<path d="M239.303 150.484C239.303 150.484 251.88 216.865 246.843 233.823C251.505 240.438 256.855 240.126 261.767 238.55C264.082 230.095 252.991 165.913 239.303 150.484Z" fill="#F8E8D9"/>
<path d="M203.135 85.3981C202.837 85.3201 202.634 85.0393 202.681 84.7273L203.025 82.1688C203.072 81.8099 203.416 81.5759 203.776 81.6539L204.308 81.7787C204.668 81.8723 204.855 82.2312 204.73 82.5744L203.854 85.0081C203.745 85.3045 203.432 85.4605 203.135 85.3981Z" fill="url(#paint3_linear_6_138)"/>
<path d="M204.339 86.1314C204.011 85.9754 203.854 85.601 203.964 85.2577L204.934 82.4184C205.074 82.0128 205.528 81.8256 205.904 82.0128L206.482 82.278C206.858 82.4496 207.014 82.9176 206.795 83.2921L205.247 85.8662C205.059 86.1782 204.668 86.2874 204.339 86.147V86.1314Z" fill="url(#paint4_linear_6_138)"/>
<path d="M205.747 86.849C205.481 86.6773 205.387 86.3341 205.528 86.0533L206.701 83.7288C206.874 83.4012 207.28 83.292 207.577 83.4948L208.047 83.7912C208.36 83.994 208.422 84.4152 208.188 84.6961L206.545 86.7085C206.342 86.9582 205.997 87.005 205.732 86.8334L205.747 86.849Z" fill="url(#paint5_linear_6_138)"/>
<path d="M207.014 87.9723C206.78 87.8006 206.701 87.4886 206.842 87.239L207.703 85.5385C207.859 85.2421 208.25 85.1485 208.532 85.3357L208.954 85.6321C209.236 85.8194 209.283 86.2094 209.064 86.4746L207.781 87.8942C207.593 88.1127 207.265 88.1595 207.03 87.9878L207.014 87.9723Z" fill="url(#paint6_linear_6_138)"/>
<path d="M205.434 92.8397L204.23 95.1174L199.099 104.852C198.16 103.745 197.237 102.387 196.392 100.921C195.61 99.5792 194.984 98.3 194.578 97.1455C194.499 96.9271 194.421 96.7087 194.359 96.5059C194.327 96.4279 194.312 96.3499 194.296 96.2875C194.265 96.1627 194.234 96.0379 194.202 95.9287L194.265 95.8507L197.832 91.9505C198.379 91.3576 198.833 90.6712 199.193 89.9692C199.193 89.9692 198.489 87.4263 198.848 85.1174C199.02 84.3685 199.599 83.7445 200.272 83.2609C200.976 82.746 202.04 82.3092 202.65 82.0752C202.884 81.9816 203.135 82.1688 203.103 82.434C203.103 82.5744 203.072 82.746 203.057 82.9021C203.01 83.2609 202.838 83.5885 202.587 83.8225C202.071 84.3061 201.367 84.9926 200.882 85.523L200.96 85.757C201.258 86.693 201.852 87.5043 202.665 88.0503C203.604 88.6743 204.777 89.8444 204.809 91.8725C204.809 92.2937 205.059 92.6837 205.434 92.8709V92.8397Z" fill="url(#paint7_linear_6_138)"/>
<path d="M204.777 106.833C204.652 107.114 196.846 124.431 185.395 135.055C188.915 130.703 197.55 117.489 201.32 109.111C193.639 103.62 193.921 94.4309 193.921 94.4309C193.936 94.8833 194.03 95.3826 194.171 95.913C194.546 97.3638 195.313 99.0799 196.377 100.921C196.58 101.264 196.784 101.607 196.987 101.935C197.331 102.481 197.675 102.996 198.035 103.495C198.129 103.635 198.238 103.76 198.332 103.901C198.395 103.979 198.442 104.041 198.504 104.119C198.645 104.306 198.802 104.493 198.942 104.665C199.099 104.868 199.271 105.055 199.427 105.242C200.757 106.724 202.087 107.676 203.197 107.676C203.244 107.676 203.276 107.676 203.307 107.676C203.338 107.676 203.369 107.676 203.401 107.676C203.432 107.676 203.448 107.676 203.479 107.676C203.495 107.676 203.526 107.676 203.542 107.676C203.573 107.676 203.604 107.676 203.635 107.66C203.667 107.66 203.698 107.66 203.729 107.629C203.776 107.629 203.807 107.598 203.854 107.582C203.886 107.582 203.933 107.551 203.964 107.536C204.011 107.52 204.058 107.489 204.105 107.458C204.371 107.302 204.605 107.099 204.777 106.833Z" fill="#F4C3AB"/>
<path d="M174.914 112.387C172.614 115.118 170.502 117.879 168.844 120.5C169.767 117.848 173.005 111.997 173.991 110.234C174.304 110.937 174.617 111.654 174.914 112.387Z" fill="#F4C3AB"/>
<path d="M153.029 79.6103C150.51 85.3982 123.65 77.7538 124.041 76.0533C124.495 74.1189 127.717 75.0081 127.717 75.0081C127.717 75.0081 141.703 79.1111 153.029 79.6103Z" fill="#F7D7BC"/>
<path d="M158.957 60.6397C158.957 60.7645 158.957 60.8894 158.957 60.9986C158.957 61.2326 158.957 61.4822 158.957 61.7318C158.957 61.8566 158.957 61.9658 158.957 62.0906C158.879 64.9767 158.472 68.6585 157.487 70.8738L153.263 71.7007C153.263 71.7007 150.588 70.8582 147.819 69.8286C147.115 69.5634 146.364 69.2201 145.598 68.7989C142.469 67.1296 139.137 64.4151 138.777 62.4494C138.449 60.6241 138.324 59.4697 138.167 58.7677C137.854 58.7677 137.526 58.7365 137.213 58.6428C136.978 60.0157 136.869 61.4354 136.869 62.8706C136.869 63.0422 136.869 63.2139 136.869 63.3855C136.869 63.5103 136.869 63.6507 136.869 63.7755C136.869 64.1811 136.9 64.5867 136.931 65.0079C132.535 61.451 129.188 56.4743 129.188 50.9829C129.188 40.1404 130.893 31.3572 144.331 31.3572C147.193 31.3572 149.868 32.3868 152.152 34.1653C152.434 34.3837 152.716 34.6177 152.982 34.8673C152.982 34.8673 153.013 34.8829 153.013 34.8985C153.013 34.8985 153.013 34.8985 153.028 34.9141C155.093 36.8018 156.783 39.3291 157.909 42.2933C158.144 42.9173 158.363 43.5725 158.551 44.2278C158.551 44.2278 159.036 48.6428 158.566 50.8893C158.566 50.9205 158.566 50.9517 158.551 50.9829C158.551 50.9829 158.551 51.0141 158.551 51.0609C158.613 51.7161 158.973 55.2887 158.942 60.6397H158.957Z" fill="url(#paint8_linear_6_138)"/>
<path d="M153.248 36.8955C153.232 37.4259 153.138 38.0187 152.935 38.6584C152.841 38.9392 152.716 43.2294 148.664 46.5991C145.942 48.8612 142.281 47.3324 140.357 50.3901C139.059 52.4494 138.058 54.7583 137.463 57.2544C137.354 57.7069 137.26 58.1749 137.182 58.6273C136.9 60.281 136.791 62.0127 136.853 63.7599C136.853 64.1656 136.884 64.5712 136.916 64.9924C136.963 65.5228 137.025 66.0688 137.103 66.6149C137.276 67.8941 137.229 68.9706 136.978 69.9066C135.398 75.9285 126.184 75.8193 123.275 77.5042C119.911 79.4543 117.158 81.42 113.795 79.5947C110.431 77.7694 108.163 66.5993 116.204 66.5993C122.086 66.5993 128.75 60.3122 125.418 52.309C121.397 42.6522 136.478 21.8252 151.292 33.3853C151.855 33.8222 152.418 34.3058 152.982 34.8518C152.982 34.8518 153.013 34.8674 153.013 34.883C153.013 34.883 153.013 34.883 153.029 34.8986C153.029 34.8986 153.31 35.6942 153.248 36.8799V36.8955Z" fill="#6B222F"/>
<path d="M141.421 55.476C141.343 55.8816 141.233 56.256 141.077 56.5992C140.733 57.4105 140.185 58.0501 139.497 58.4245C139.419 58.4713 139.325 58.5025 139.247 58.5493C139.137 58.5961 139.028 58.6273 138.918 58.6585C138.668 58.7365 138.402 58.7677 138.152 58.7677C137.901 58.7677 137.635 58.7365 137.369 58.6897C137.307 58.6897 137.244 58.6585 137.182 58.6429C136.759 58.5181 136.337 58.3153 135.93 58.0345C134.898 57.3013 134.022 56.0688 133.584 54.5555C132.755 51.685 133.803 48.8613 135.915 48.2528C136.446 48.0968 136.994 48.1124 137.526 48.2528C138.59 48.518 139.591 49.2981 140.326 50.4213C140.701 50.983 141.014 51.6538 141.218 52.387C141.531 53.4791 141.578 54.5555 141.39 55.4916L141.421 55.476Z" fill="url(#paint9_linear_6_138)"/>
<path d="M140.123 53.7599C140.701 55.788 139.966 57.7849 138.464 58.2218C136.963 58.6586 135.289 57.3481 134.694 55.3044C134.116 53.2763 134.851 51.2794 136.353 50.8426C137.854 50.4214 139.528 51.7163 140.123 53.7599Z" fill="#FF948C"/>
<path d="M158.551 44.2278C158.551 44.2278 158.551 44.2278 158.551 44.1966C156.564 40.156 152.935 38.6584 152.935 38.6584C152.966 38.5648 152.997 38.4711 153.013 38.3775C153.044 38.2839 153.06 38.1903 153.075 38.0967C153.091 38.0187 153.107 37.9563 153.122 37.8783C153.185 37.5351 153.232 37.2075 153.232 36.8955C153.294 35.7098 153.013 34.9142 153.013 34.9142C154.233 36.0218 155.313 37.3479 156.22 38.8612C156.861 39.922 157.424 41.0765 157.894 42.2933C158.05 42.6989 158.191 43.1046 158.316 43.5258C158.316 43.5258 158.316 43.557 158.316 43.5726C158.347 43.6818 158.379 43.791 158.41 43.869C158.426 43.9314 158.441 43.9782 158.457 44.0406C158.457 44.0718 158.488 44.1186 158.488 44.1654C158.488 44.181 158.488 44.2122 158.504 44.2278H158.551Z" fill="#5E1928"/>
<path d="M247.25 231.281C243.808 228.27 240.617 224.354 234.109 223.511C230.761 208.847 227.32 182.279 226.303 166.647C226.162 164.369 226.021 162.247 225.927 160.36C225.63 155.18 224.128 150.157 221.5 145.726C221.719 145.898 228.759 151.436 228.759 159.611C228.759 167.786 235.032 215.446 237.973 222.763C244.59 224.759 247.265 231.296 247.265 231.296L247.25 231.281Z" fill="#F4C3AB"/>
<path d="M150.369 50.0781C150.76 49.5321 151.261 49.0797 151.824 48.7208C152.387 48.3464 153.013 48.0656 153.67 47.894C154.327 47.7224 155.031 47.6912 155.719 47.8004C156.392 47.9096 157.033 48.1748 157.565 48.5804C156.924 48.4244 156.298 48.3152 155.672 48.3152C155.047 48.3152 154.436 48.3776 153.842 48.5336C153.248 48.674 152.653 48.908 152.074 49.1577C151.495 49.4229 150.932 49.7349 150.369 50.0625V50.0781Z" fill="#5E1928"/>
<path opacity="0.75" d="M151.793 50.8738C152.121 50.7178 152.465 50.5618 152.825 50.437C153.169 50.3122 153.529 50.1874 153.889 50.0938C154.249 49.9845 154.609 49.9065 154.984 49.8441C155.359 49.7817 155.719 49.7193 156.095 49.7037C156.095 49.7037 156.126 49.7037 156.142 49.7037C156.767 49.9533 157.377 50.2186 157.988 50.515C157.331 50.3434 156.705 50.1562 156.063 49.9377H156.11C154.655 50.1094 153.232 50.515 151.793 50.8738Z" fill="#D35850"/>
<path d="M158.973 60.6399C159.004 55.2888 158.645 51.7162 158.582 51.061C158.582 51.0142 158.582 50.983 158.582 50.983C158.582 50.9518 158.582 50.9206 158.598 50.8894C159.098 52.8083 159.974 56.4277 160.24 59.033C160.318 59.813 159.771 60.5307 159.004 60.6399H158.973Z" fill="#FF948C"/>
<path d="M159.192 61.3731C159.192 61.3731 159.63 70.9831 157.706 73.7289C154.968 74.6025 147.741 74.1813 141.468 68.0034C139.606 66.1625 138.339 63.8068 137.807 61.2483C137.557 60.0158 137.416 59.2358 137.369 58.6741C137.62 58.7366 137.886 58.7678 138.136 58.7522C138.402 58.7522 138.652 58.7054 138.902 58.6429C139.012 58.6117 139.121 58.5649 139.231 58.5337C139.325 58.5025 139.403 58.4557 139.481 58.4089C139.919 59.9222 140.874 62.9331 145.629 62.9955C151.715 63.0736 152.403 60.2498 155.672 60.1718C158.144 60.0938 159.192 61.3731 159.192 61.3731Z" fill="#6B222F"/>
<path d="M155.704 66.6461C154.061 66.6461 153.201 66.0377 153.154 66.0065C153.075 65.9441 153.06 65.8348 153.107 65.7568C153.169 65.6788 153.279 65.6632 153.357 65.71C153.357 65.71 154.624 66.5993 156.971 66.1625C157.065 66.1625 157.158 66.2093 157.174 66.3029C157.19 66.3965 157.127 66.4901 157.033 66.5057C156.548 66.5993 156.095 66.6305 155.688 66.6305L155.704 66.6461Z" fill="url(#paint10_linear_6_138)"/>
<path d="M217.308 241.905C213.804 245.399 206.842 246.117 203.698 246.257C202.697 246.304 202.087 246.288 202.087 246.288C202.087 246.288 191.543 222.279 188.273 199.736C186.365 186.585 169.454 183.449 149.431 178.925C149.431 178.925 157.941 177.349 168.391 177.942C176.009 178.379 184.66 179.97 191.793 184.182C208.688 194.166 208.094 231.702 217.308 241.889V241.905Z" fill="#F8E8D9"/>
<path d="M214.523 233.355C214.101 233.667 213.663 233.979 213.209 234.276C207.765 219.346 205.732 192.419 191.809 184.182C184.675 179.97 176.025 178.378 168.406 177.942C176.4 178.238 185.817 179.736 193.467 184.26C207.093 192.31 209.345 218.238 214.523 233.34V233.355Z" fill="#DFCCBD"/>
<path d="M164.261 79.6259L160.068 80.8271L160.991 82.3872C160.991 82.3872 162.759 82.4964 163.682 82.4964C164.605 82.4964 165.027 82.3716 165.168 82.278C165.293 82.1844 164.261 79.6259 164.261 79.6259Z" fill="#472B28"/>
<path d="M174.069 116.537L168.375 117.879L158.41 120.219L149.728 122.247L143.721 107.255L142.626 104.556L137.322 91.3108L160.178 80.2499L174.069 116.537Z" fill="#946761"/>
<path d="M157.049 94.3842L152.544 96.1938L150.917 92.0284L148.711 92.9957L150.322 97.0831L146.208 98.7524L147.084 100.968L151.229 99.3764L154.687 108.144L156.955 107.426L153.466 98.5183L157.972 96.7711L157.049 94.3842Z" fill="#F4D5B5"/>
<path d="M160.178 80.2499L160.866 80.3123L174.429 116.038L174.069 116.537L160.178 80.2499Z" fill="#A98581"/>
<path d="M160.991 80.6399C160.991 80.6399 163.541 81.5759 164.48 80.2343C166.044 84.1188 176.04 113.916 176.04 113.916C176.04 113.916 175.555 115.398 174.288 115.695L160.991 80.6399Z" fill="#F9EDE1"/>
<path d="M176.181 114.306L164.261 79.6259L164.824 79.4855L176.619 113.838L176.181 114.306Z" fill="#A98581"/>
<path d="M163.4 106.615C161.945 107.114 160.24 107.567 158.754 107.66L126.747 140.703L118.394 126.366L153.482 101.248L153.779 101.014C155.657 99.5323 157.8 98.4403 160.068 97.8007C160.068 97.8007 161.961 104.493 163.4 106.615Z" fill="url(#paint11_linear_6_138)"/>
<path d="M156.908 119.392C152.434 128.877 144.737 138.643 121.96 142.403C120.772 141.779 119.677 141.171 118.66 140.546C117.127 139.61 115.781 138.659 114.608 137.645C114.608 137.645 114.592 137.645 114.592 137.629C112.355 135.663 110.744 133.417 109.586 130.422C107.13 124.072 106.645 114.306 106.254 96.5836C106.16 92.309 106.99 88.3933 108.695 85.1951C110.603 81.5913 113.591 78.8924 117.58 77.5352C120.459 78.3152 123.071 80.0001 125.136 82.7614C129.641 88.7989 131.487 99.9534 127.623 117.847C137.26 110.812 140.201 109.439 146.896 105.382C148.461 104.446 150.213 103.354 152.309 102.013C152.7 101.763 153.091 101.513 153.498 101.248C153.498 101.248 157.831 110.812 156.939 119.392H156.908Z" fill="#F8E8D9"/>
<path d="M127.608 117.832C127.921 115.336 127.968 112.996 127.796 110.827C126.309 92.0597 108.679 85.1797 108.679 85.1797C108.679 85.1797 108.351 84.3841 108.632 83.4481C108.867 82.6992 109.508 81.8724 111.041 81.2796C111.041 77.9566 114.764 77.5042 117.549 77.5198C121.131 77.7538 124.025 79.0487 126.294 81.0456C135.946 89.5636 134.35 110.921 127.592 117.832H127.608Z" fill="#C83D3A"/>
<path opacity="0.5" d="M111.996 81.7476C114.811 82.6993 117.393 84.2749 119.661 86.1782C120.803 87.1299 121.835 88.2063 122.79 89.3452C123.024 89.6416 123.259 89.9224 123.478 90.2188L124.135 91.1237L124.745 92.0597C124.948 92.3717 125.121 92.6993 125.308 93.0114C126.028 94.3062 126.669 95.6635 127.139 97.0675L127.326 97.598L127.483 98.1284C127.592 98.4872 127.702 98.8304 127.796 99.1892C127.968 99.9069 128.171 100.625 128.265 101.358L128.453 102.45L128.578 103.557C128.687 104.291 128.703 105.04 128.75 105.773C128.781 106.506 128.75 107.255 128.765 107.988C128.75 108.721 128.687 109.47 128.656 110.203C128.75 107.255 128.578 104.291 127.999 101.405C127.874 100.671 127.655 99.9693 127.498 99.2516C127.405 98.8928 127.279 98.5496 127.185 98.1908L127.029 97.6604L126.841 97.1455C126.356 95.7571 125.715 94.431 124.995 93.1518C123.587 90.5776 121.663 88.2999 119.458 86.3498C118.347 85.3826 117.174 84.4934 115.922 83.7133C114.671 82.9333 113.357 82.2313 111.98 81.7164L111.996 81.7476Z" fill="#AE2C2C"/>
<path d="M227.695 256.07C227.695 256.07 231.856 249.284 237.519 251.312L238.458 252.154C238.458 252.154 231.137 252.7 229.572 257.63L227.679 256.07H227.695Z" fill="#7B504A"/>
<path d="M232.2 259.565C229.338 257.599 226.647 255.103 224.222 253.137C224.144 253.075 224.081 253.028 224.019 252.966C221.766 250.984 223.158 247.318 226.146 247.162C230.057 246.975 232.701 244.526 232.701 244.526C232.701 244.526 232.951 243.449 232.013 242.217C228.712 246.772 220.014 243.184 219.858 243.122C216.87 247.069 217.98 250.204 218.716 251.062C219.811 252.342 233.859 262.856 237.879 263.714C241.899 264.573 245.372 263.262 245.763 261.234C241.18 264.307 236.502 262.544 232.2 259.58V259.565Z" fill="#7B504A"/>
<path d="M256.667 256.335C256.667 256.335 259.749 251.873 265.146 252.326C266.037 253.527 266.663 254.323 266.663 254.323C266.663 254.323 261.423 254.104 258.169 257.427L256.683 256.351L256.667 256.335Z" fill="#7B504A"/>
<path d="M266.006 262.685C260.969 259.643 254.461 254.728 251.771 252.669C251.739 252.638 251.692 252.607 251.661 252.591C249.674 251.031 250.988 247.849 253.507 248.161C258.497 248.8 262.08 247.146 262.08 247.146C262.08 247.146 261.845 245.446 260.969 244.931C254.524 247.693 248.83 244.245 248.83 244.245C247.828 246.554 246.639 248.239 247.641 250.111C247.922 250.657 248.36 251.109 248.845 251.483L265.975 263.948L266.741 264.51C268.243 265.571 270.152 265.836 271.857 265.259C270.762 265.306 268.587 264.245 266.006 262.7V262.685Z" fill="#7B504A"/>
<path d="M243.573 164.977C244.731 167.786 245.748 170.64 246.765 173.495C247.249 174.931 247.734 176.366 248.204 177.817C248.657 179.268 249.127 180.703 249.565 182.154C251.332 187.957 252.865 193.839 254.226 199.751C254.571 201.234 254.899 202.716 255.196 204.198L256.104 208.659L256.902 213.137C257.027 213.886 257.183 214.635 257.293 215.383L257.621 217.63C257.84 219.128 258.075 220.625 258.263 222.138L258.794 226.663C258.873 227.412 258.966 228.176 259.029 228.925L259.201 231.187C259.326 232.7 259.436 234.213 259.545 235.727C259.358 234.229 259.185 232.716 259.013 231.218L258.763 228.956C258.669 228.207 258.544 227.458 258.45 226.709L257.825 222.216C257.59 220.719 257.324 219.221 257.089 217.739C256.62 214.744 256.025 211.78 255.478 208.8L254.539 204.354C254.383 203.62 254.242 202.872 254.07 202.138L253.554 199.923C252.912 196.959 252.162 194.026 251.442 191.093L250.269 186.709L249.048 182.325C248.642 180.859 248.204 179.424 247.781 177.957C247.343 176.506 246.89 175.055 246.452 173.62C245.544 170.734 244.59 167.848 243.589 164.993L243.573 164.977Z" fill="#DFCCBD"/>
<path d="M165.481 155.96C166.028 156.834 166.701 157.629 167.405 158.378C168.109 159.127 168.875 159.829 169.689 160.469C171.3 161.748 173.099 162.809 174.976 163.636C175.915 164.057 176.885 164.4 177.871 164.712C178.856 164.993 179.857 165.274 180.858 165.445C182.876 165.835 184.941 166.007 186.991 166.023L188.539 165.991H190.119L191.699 166.194C192.216 166.319 192.732 166.413 193.248 166.553C195.282 167.13 197.175 168.16 198.833 169.47C200.491 170.765 201.915 172.341 203.15 174.041C204.386 175.726 205.45 177.536 206.373 179.408C208.188 183.168 209.533 187.115 210.581 191.14C211.614 195.165 212.411 199.237 212.943 203.34C213.491 207.443 213.835 211.577 214.038 215.711C214.21 219.845 214.273 223.979 214.164 228.114C214.117 223.979 213.991 219.845 213.694 215.727C213.428 211.608 213.006 207.489 212.411 203.418C211.801 199.346 211.035 195.274 209.971 191.296C208.923 187.318 207.562 183.402 205.763 179.72C204.856 177.879 203.823 176.101 202.619 174.447C201.43 172.793 200.053 171.249 198.457 169.985C196.862 168.722 195.063 167.723 193.107 167.146C192.622 167.021 192.122 166.912 191.621 166.803L190.104 166.616L188.571 166.584H187.006C184.926 166.553 182.83 166.35 180.78 165.913C179.748 165.711 178.747 165.43 177.745 165.118C176.76 164.775 175.774 164.416 174.836 163.979C172.943 163.09 171.159 161.982 169.579 160.64C167.984 159.299 166.545 157.77 165.481 155.991V155.96Z" fill="#DFCCBD"/>
<path d="M137.322 263.964L128.765 237.162L153.467 224.354L191.778 244.167L199.427 261.686L167.295 271L137.322 263.964Z" fill="#B28E90"/>
<path d="M137.322 263.964L136.008 241.359L155.078 234.947L186.334 248.317L199.427 261.686L191.778 244.167L153.467 224.354L128.765 237.162L137.322 263.964Z" fill="#C0979D"/>
<path d="M85.777 261.062L91.0176 246.304L105.081 249.518L110.181 262.841L96.3989 268.083L85.777 261.062Z" fill="#B28E90"/>
<path d="M91.0176 246.304L95.2883 254.276L104.393 252.295L105.081 249.518L91.0176 246.304Z" fill="#C0979D"/>
<path d="M95.2882 254.276L96.3989 268.083L99.1678 267.022L96.2268 254.65L105.081 252.919V249.518L104.393 252.295L95.2882 254.276Z" fill="#896064"/>
<path opacity="0.75" d="M145.692 73.3388C140.232 71.8568 136.853 63.7756 136.853 63.7756C136.853 63.6508 136.853 63.5104 136.853 63.3856C136.853 63.214 136.853 63.0423 136.853 62.8707C136.853 61.4355 136.963 60.0158 137.197 58.6429C137.51 58.7365 137.839 58.7834 138.152 58.7678C138.324 59.4698 138.433 60.6242 138.762 62.4495C139.121 64.4152 142.454 67.1297 145.582 68.799L145.707 73.3388H145.692Z" fill="#D35850"/>
<path d="M142.297 103.713C141.202 97.0832 145.332 90.7181 151.84 89.002L162.462 86.1939L160.178 80.25L137.322 91.3265L142.297 103.713Z" fill="#A98581"/>
<path d="M159.474 129.408C158.128 152.653 144.581 173.371 141.875 177.286C141.108 177.021 140.342 176.709 139.606 176.366C139.278 176.21 138.949 176.054 138.621 175.898C146.098 169.455 154.859 144.478 158.41 120.219L166.451 118.331C166.56 119.423 166.654 120.5 166.732 121.545C166.779 122.107 166.857 122.653 166.951 123.199C166.936 123.199 166.92 123.199 166.904 123.199C163.087 122.715 159.693 125.586 159.474 129.423V129.408Z" fill="#DFCCBD"/>
<path d="M127.78 110.827L127.592 117.832C127.592 117.832 122.039 90.562 108.507 88.0659C108.257 107.224 105.629 111.093 109.571 130.391C107.115 124.041 106.63 114.275 106.239 96.5527C106.145 92.2781 106.974 88.3623 108.679 85.1642C108.976 85.2734 126.309 92.2157 127.78 110.812V110.827Z" fill="#DFCCBD"/>
<path d="M156.908 119.392C152.434 128.877 144.737 138.644 121.961 142.403C120.772 141.779 119.677 141.171 118.66 140.547C116.72 139.112 114.843 137.801 114.608 137.645C114.608 137.645 114.592 137.645 114.592 137.629C114.983 137.676 145.739 140.952 155.14 118.347C153.451 106.568 152.637 103.074 152.293 102.029C152.684 101.779 153.076 101.529 153.482 101.264C153.482 101.264 157.815 110.827 156.924 119.408L156.908 119.392Z" fill="#DFCCBD"/>
<path d="M127.608 117.832C134.366 110.937 135.961 89.5948 126.325 81.0612C126.747 81.3264 132.833 85.367 134.507 95.1798C136.243 105.351 133.114 112.169 133.114 112.169L142.641 104.556L143.721 107.255C138.981 110.063 135.586 111.997 127.608 117.832Z" fill="#DFCCBD"/>
<path d="M153.467 224.354L155.078 234.947L186.334 248.317L191.778 244.167L153.467 224.354Z" fill="#CDACB1"/>
<path d="M136.008 241.359L166.951 267.568L199.427 261.686L167.295 271L137.322 263.964L136.008 241.359Z" fill="#966F70"/>
<path d="M153.529 39.9065C153.952 46.802 146.302 50.5774 141.718 50.8738C142.141 53.0267 141.421 55.476 141.421 55.476C141.609 54.5244 141.562 53.4479 141.249 52.3559C141.046 51.6226 140.733 50.9674 140.357 50.3902C142.281 47.3324 145.958 48.8457 148.664 46.5992C152.716 43.2295 152.841 38.9393 152.935 38.6584C152.935 38.6584 156.564 40.1717 158.551 44.1967V44.2123C158.441 44.1031 156.674 42.4338 153.529 39.8909V39.9065Z" fill="#FF948C"/>
<path d="M204.23 95.1331L199.099 104.868C198.16 103.76 197.237 102.403 196.392 100.937C195.61 99.5949 194.985 98.3156 194.578 97.1611C194.5 96.9427 194.421 96.7243 194.359 96.5215C194.328 96.4435 194.312 96.3655 194.296 96.3031C194.265 96.1783 194.234 96.0535 194.202 95.9443L194.265 95.8663C194.891 97.0519 197.175 101.171 199.49 102.434C203.792 95.8351 204.199 95.2111 204.246 95.1487L204.23 95.1331Z" fill="#FF948C"/>
<path d="M163.275 101.873L171.769 100.047C172.129 99.9693 172.473 100.203 172.552 100.562C172.614 100.89 172.427 101.202 172.114 101.311L163.932 104.088L171.597 102.294C171.879 102.231 172.176 102.403 172.254 102.684C172.333 102.965 172.192 103.245 171.91 103.339C170.831 103.729 168.125 104.712 166.06 105.554C166.06 105.554 166.044 105.554 166.028 105.554C165.324 105.851 164.683 106.1 164.182 106.303C163.838 106.428 163.557 106.522 163.4 106.584C161.961 104.462 160.068 97.7696 160.068 97.7696L170.596 96.0535C170.909 96.0067 171.206 96.1939 171.269 96.5059C171.347 96.818 171.159 97.13 170.847 97.208L162.086 99.6417L171.848 98.0348C172.129 97.988 172.411 98.144 172.505 98.4248C172.614 98.7368 172.442 99.0957 172.114 99.1893L163.275 101.857V101.873Z" fill="#FF948C"/>
</g>
<defs>
<filter id="filter0_d_6_138" x="0" y="0" width="340" height="340" filterUnits="userSpaceOnUse" color-interpolation-filters="sRGB">
<feFlood flood-opacity="0" result="BackgroundImageFix"/>
<feColorMatrix in="SourceAlpha" type="matrix" values="0 0 0 0 0 0 0 0 0 0 0 0 0 0 0 0 0 0 127 0" result="hardAlpha"/>
<feOffset dy="10"/>
<feGaussianBlur stdDeviation="20"/>
<feComposite in2="hardAlpha" operator="out"/>
<feColorMatrix type="matrix" values="0 0 0 0 0 0 0 0 0 0 0 0 0 0 0 0 0 0 0.1 0"/>
<feBlend mode="normal" in2="BackgroundImageFix" result="effect1_dropShadow_6_138"/>
<feBlend mode="normal" in="SourceGraphic" in2="effect1_dropShadow_6_138" result="shape"/>
</filter>
<linearGradient id="paint0_linear_6_138" x1="170" y1="30" x2="170" y2="290" gradientUnits="userSpaceOnUse">
<stop stop-color="#3DBA8C"/>
<stop offset="1" stop-color="#3DBA8C" stop-opacity="0"/>
</linearGradient>
<linearGradient id="paint1_linear_6_138" x1="195.642" y1="201.078" x2="246.217" y2="201.078" gradientUnits="userSpaceOnUse">
<stop offset="0.01" stop-color="#FFBE9E"/>
<stop offset="1" stop-color="#FD9F7C"/>
</linearGradient>
<linearGradient id="paint2_linear_6_138" x1="224.551" y1="212.138" x2="274" y2="212.138" gradientUnits="userSpaceOnUse">
<stop offset="0.01" stop-color="#FFBE9E"/>
<stop offset="1" stop-color="#FD9F7C"/>
</linearGradient>
<linearGradient id="paint3_linear_6_138" x1="202.665" y1="83.526" x2="204.762" y2="83.526" gradientUnits="userSpaceOnUse">
<stop offset="0.01" stop-color="#FFBE9E"/>
<stop offset="1" stop-color="#FD9F7C"/>
</linearGradient>
<linearGradient id="paint4_linear_6_138" x1="203.932" y1="84.0721" x2="206.905" y2="84.0721" gradientUnits="userSpaceOnUse">
<stop offset="0.01" stop-color="#FFBE9E"/>
<stop offset="1" stop-color="#FD9F7C"/>
</linearGradient>
<linearGradient id="paint5_linear_6_138" x1="205.466" y1="85.1797" x2="208.328" y2="85.1797" gradientUnits="userSpaceOnUse">
<stop offset="0.01" stop-color="#FFBE9E"/>
<stop offset="1" stop-color="#FD9F7C"/>
</linearGradient>
<linearGradient id="paint6_linear_6_138" x1="206.78" y1="86.6462" x2="209.189" y2="86.6462" gradientUnits="userSpaceOnUse">
<stop offset="0.01" stop-color="#FFBE9E"/>
<stop offset="1" stop-color="#FD9F7C"/>
</linearGradient>
<linearGradient id="paint7_linear_6_138" x1="194.187" y1="93.4481" x2="205.434" y2="93.4481" gradientUnits="userSpaceOnUse">
<stop offset="0.01" stop-color="#FFBE9E"/>
<stop offset="1" stop-color="#FD9F7C"/>
</linearGradient>
<linearGradient id="paint8_linear_6_138" x1="129.188" y1="51.5289" x2="158.957" y2="51.5289" gradientUnits="userSpaceOnUse">
<stop offset="0.01" stop-color="#FFBE9E"/>
<stop offset="1" stop-color="#FD9F7C"/>
</linearGradient>
<linearGradient id="paint9_linear_6_138" x1="133.302" y1="53.4479" x2="141.531" y2="53.4479" gradientUnits="userSpaceOnUse">
<stop offset="0.01" stop-color="#FFBE9E"/>
<stop offset="1" stop-color="#FD9F7C"/>
</linearGradient>
<linearGradient id="paint10_linear_6_138" x1="153.075" y1="66.1781" x2="157.19" y2="66.1781" gradientUnits="userSpaceOnUse">
<stop offset="0.01" stop-color="#FFBE9E"/>
<stop offset="1" stop-color="#FD9F7C"/>
</linearGradient>
<linearGradient id="paint11_linear_6_138" x1="118.378" y1="119.252" x2="163.4" y2="119.252" gradientUnits="userSpaceOnUse">
<stop offset="0.01" stop-color="#FFBE9E"/>
<stop offset="1" stop-color="#FD9F7C"/>
</linearGradient>
<clipPath id="clip0_6_138">
<rect width="211" height="241" fill="white" transform="translate(63 30)"/>
</clipPath>
</defs>
</svg>
