<svg width="42" height="42" viewBox="0 0 42 42" fill="none" xmlns="http://www.w3.org/2000/svg">
<g clip-path="url(#clip0_0_1257)">
<path d="M9.67422 36.0618H36.6779C36.8287 35.5505 37.0319 35.0262 37.2875 34.5018H7.1246C5.50568 34.5018 4.19482 36.1732 4.19482 38.2312C4.19482 40.2827 5.50568 41.9541 7.1246 41.9541H37.2088C36.9401 41.4428 36.7369 40.9185 36.5927 40.3942H9.67422C9.30062 40.3942 8.99913 40.0927 8.99913 39.7191C8.99913 39.3455 9.30062 39.044 9.67422 39.044H36.3437C36.2978 38.5065 36.3109 37.9691 36.383 37.4251H9.67422C9.30062 37.4251 8.99913 37.1236 8.99913 36.75C8.99913 36.3633 9.30062 36.0618 9.67422 36.0618ZM7.1246 33.1451H9.00568V0H7.86523C5.83995 0 4.19482 1.64513 4.19482 3.66385V34.5281C4.95512 33.676 5.9907 33.1451 7.1246 33.1451ZM35.721 0H10.3559V33.1451H37.7528V2.03183C37.7528 0.911048 36.8418 0 35.721 0ZM31.9326 14.6947C31.9326 15.0683 31.6311 15.3698 31.2575 15.3698H26.7941V27.7116C26.7941 28.0852 26.4926 28.3867 26.119 28.3867H21.9963C21.6162 28.3867 21.3212 28.0852 21.3212 27.7116V15.3698H16.8577C16.4841 15.3698 16.1826 15.0683 16.1826 14.6947V10.5721C16.1826 10.1985 16.4841 9.89699 16.8577 9.89699H21.3212V5.43352C21.3212 5.05992 21.6162 4.75842 21.9963 4.75842H26.119C26.4926 4.75842 26.7941 5.05992 26.7941 5.43352V9.89699H31.2575C31.6311 9.89699 31.9326 10.1985 31.9326 10.5721V14.6947Z" fill="#257FD0"/>
<path d="M25.4372 10.5721V6.10858H22.6713V10.5721C22.6713 10.9457 22.3698 11.2472 21.9962 11.2472H17.5327V14.0131H21.9962C22.3698 14.0131 22.6713 14.3146 22.6713 14.6882V27.0299H25.4372V14.6947C25.4372 14.3211 25.7387 14.0196 26.1123 14.0196H30.5758V11.2537H26.1123C25.7453 11.2537 25.4372 10.9457 25.4372 10.5721Z" fill="#257FD0"/>
</g>
<defs>
<clipPath id="clip0_0_1257">
<rect width="41.9475" height="41.9475" fill="white"/>
</clipPath>
</defs>
</svg>
