<svg width="22" height="22" viewBox="0 0 22 22" fill="none" xmlns="http://www.w3.org/2000/svg">
<path d="M2.75 20.625C2.56766 20.625 2.3928 20.5526 2.26386 20.4236C2.13493 20.2947 2.0625 20.1198 2.0625 19.9375V17.875C1.51549 17.875 0.990886 17.6577 0.604092 17.2709C0.217298 16.8841 0 16.3595 0 15.8125L0 3.4375C0 2.89049 0.217298 2.36589 0.604092 1.97909C0.990886 1.5923 1.51549 1.375 2.0625 1.375H19.9375C20.4845 1.375 21.0091 1.5923 21.3959 1.97909C21.7827 2.36589 22 2.89049 22 3.4375V15.8125C22 16.3595 21.7827 16.8841 21.3959 17.2709C21.0091 17.6577 20.4845 17.875 19.9375 17.875H9.625C9.44266 17.875 9.2678 17.8026 9.13886 17.6736C9.00993 17.5447 8.9375 17.3698 8.9375 17.1875C8.9375 17.0052 9.00993 16.8303 9.13886 16.7014C9.2678 16.5724 9.44266 16.5 9.625 16.5H19.9375C20.1198 16.5 20.2947 16.4276 20.4236 16.2986C20.5526 16.1697 20.625 15.9948 20.625 15.8125V3.4375C20.625 3.25516 20.5526 3.0803 20.4236 2.95136C20.2947 2.82243 20.1198 2.75 19.9375 2.75H2.0625C1.88016 2.75 1.7053 2.82243 1.57636 2.95136C1.44743 3.0803 1.375 3.25516 1.375 3.4375V15.8125C1.375 15.9948 1.44743 16.1697 1.57636 16.2986C1.7053 16.4276 1.88016 16.5 2.0625 16.5H2.75C2.93234 16.5 3.1072 16.5724 3.23614 16.7014C3.36507 16.8303 3.4375 17.0052 3.4375 17.1875V18.6519L6.49687 16.5894C6.57137 16.5294 6.65757 16.4856 6.74996 16.4608C6.84235 16.436 6.9389 16.4307 7.03343 16.4454C7.12796 16.46 7.2184 16.4943 7.29895 16.5459C7.3795 16.5974 7.4484 16.6653 7.50124 16.745C7.55408 16.8248 7.5897 16.9147 7.60582 17.0089C7.62194 17.1032 7.6182 17.1999 7.59485 17.2926C7.57149 17.3854 7.52904 17.4723 7.4702 17.5477C7.41136 17.6231 7.33742 17.6854 7.25313 17.7306C2.805 20.7281 3.04562 20.625 2.75 20.625Z" fill="#237758"/>
<path d="M11 12.375C10.8176 12.375 10.6428 12.3026 10.5138 12.1736C10.3849 12.0447 10.3125 11.8698 10.3125 11.6875C10.3124 11.2128 10.4526 10.7487 10.7157 10.3536C10.9787 9.95848 11.3527 9.64996 11.7906 9.46688C12.1556 9.31389 12.4689 9.05911 12.6931 8.73295C12.9173 8.40679 13.0429 8.02301 13.0549 7.62742C13.0669 7.23183 12.9649 6.84113 12.761 6.50194C12.557 6.16275 12.2598 5.8894 11.9048 5.71451C11.5497 5.53961 11.1519 5.47056 10.7587 5.51559C10.3655 5.56062 9.99353 5.71784 9.68723 5.96847C9.38092 6.2191 9.1532 6.55257 9.03123 6.92908C8.90926 7.30559 8.8982 7.70925 8.99936 8.09188C9.03035 8.18154 9.04245 8.27666 9.0349 8.37123C9.02734 8.4658 9.00029 8.55779 8.95545 8.64139C8.91061 8.725 8.84896 8.79843 8.77436 8.85704C8.69976 8.91566 8.61384 8.95821 8.522 8.982C8.43016 9.00579 8.33438 9.01032 8.24071 8.9953C8.14703 8.98027 8.05748 8.94602 7.97768 8.8947C7.89789 8.84338 7.82958 8.7761 7.77706 8.69709C7.72453 8.61809 7.68893 8.52906 7.67248 8.43563C7.50803 7.79731 7.53057 7.12516 7.73742 6.49929C7.94427 5.87343 8.32671 5.32023 8.83916 4.90562C9.3516 4.49102 9.97245 4.2325 10.6277 4.16086C11.283 4.08923 11.945 4.2075 12.5349 4.50159C13.1249 4.79568 13.6178 5.25318 13.955 5.81958C14.2922 6.38597 14.4594 7.03737 14.4368 7.69614C14.4141 8.35492 14.2025 8.99329 13.8272 9.53518C13.4519 10.0771 12.9287 10.4996 12.32 10.7525C12.134 10.8285 11.9747 10.9579 11.8622 11.1242C11.7496 11.2906 11.6888 11.4866 11.6875 11.6875C11.6875 11.8698 11.6151 12.0447 11.4861 12.1736C11.3572 12.3026 11.1823 12.375 11 12.375ZM11 15.125C10.864 15.125 10.7311 15.0847 10.618 15.0091C10.505 14.9336 10.4169 14.8262 10.3648 14.7006C10.3128 14.575 10.2992 14.4367 10.3257 14.3034C10.3522 14.17 10.4177 14.0475 10.5138 13.9514C10.61 13.8552 10.7325 13.7897 10.8659 13.7632C10.9992 13.7367 11.1375 13.7503 11.2631 13.8023C11.3887 13.8544 11.4961 13.9425 11.5716 14.0555C11.6472 14.1686 11.6875 14.3015 11.6875 14.4375C11.6875 14.6198 11.6151 14.7947 11.4861 14.9236C11.3572 15.0526 11.1823 15.125 11 15.125Z" fill="#4F9E81"/>
</svg>
