<svg width="108" height="148" viewBox="0 0 108 148" fill="none" xmlns="http://www.w3.org/2000/svg">
<path d="M17.4583 126.138H106.886V145.05H17.4583V126.138Z" fill="#00603D"/>
<path d="M6.34256 0C2.86121 0 0.0600586 2.64032 0.0600586 5.92L0.0600586 112.48L0.0600586 124.32L0.0600586 136.16C0.0600586 142.719 5.35388 148 11.9296 148H103.919C104.706 148 105.46 147.688 106.017 147.133C106.573 146.578 106.886 145.825 106.886 145.04C106.886 144.255 106.573 143.502 106.017 142.947C105.46 142.392 104.706 142.08 103.919 142.08H101.542H11.9296C8.64175 142.08 5.99484 139.44 5.99484 136.16C5.99484 132.88 8.64175 130.24 11.9296 130.24H100.604H101.542H103.919C104.706 130.24 105.46 129.928 106.017 129.373C106.573 128.818 106.886 128.065 106.886 127.28V5.92C106.886 2.64032 104.085 0 100.604 0L6.34256 0Z" fill="#00603D"/>
<path d="M16.9363 142.101H106.886C106.886 144.88 104.633 147.132 101.854 147.132H16.9363V142.101Z" fill="#046D47"/>
<path d="M5.93176 0.0653076C2.64551 0.0653076 0 2.7036 0 5.98075L0 124.29C0 127.567 2.64551 130.205 5.93176 130.205H17.7953L17.7953 0.0653076L5.93176 0.0653076Z" fill="#00603D"/>
<path d="M11.8636 130.205H103.806V142.036H11.8636C8.57732 142.036 5.93176 139.397 5.93176 136.12C5.93176 132.843 8.57732 130.205 11.8636 130.205Z" fill="#C4CBCD"/>
<path d="M14.5005 0L78.0598 0C94.0761 0 107.06 12.9837 107.06 29V110.047C107.06 119.988 99.001 128.047 89.0598 128.047H14.5005L14.5005 0Z" fill="#046D47"/>
<path d="M33.4333 10.9308C32.2231 17.1031 27.4985 18.9949 25.2875 19.1693L25.2875 108.877C27.4985 109.052 32.2231 110.944 33.4333 117.116H88.127C89.3372 110.944 94.0618 109.052 96.2728 108.877V19.1693C94.0618 18.9949 89.3372 17.1031 88.127 10.9308L33.4333 10.9308Z" fill="#4F9E81"/>
<path d="M56.2916 34.3497H68.1551V93.5042H56.2916V34.3497Z" fill="#EEBB01"/>
<path d="M80.0187 46.1807V58.0116H44.4281V46.1807H80.0187Z" fill="#EEBB01"/>
</svg>
