<svg width="18" height="18" viewBox="0 0 18 18" fill="none" xmlns="http://www.w3.org/2000/svg">
<path fill-rule="evenodd" clip-rule="evenodd" d="M8.99737 0C4.03613 0 1.02353e-05 4.03687 1.02353e-05 8.99998C-0.00285837 10.8956 0.597325 12.7431 1.71376 14.2751L0.592509 17.619L4.0515 16.5135C5.51919 17.4863 7.24178 18.0035 9.00262 18C13.9639 18 18 13.9627 18 8.99998C18 4.03724 13.9642 0 9.00262 0H8.99737ZM6.48487 4.57124C6.31012 4.15349 6.17812 4.13774 5.91375 4.12687C5.81337 4.12051 5.71283 4.11713 5.61225 4.11674C5.268 4.11674 4.90838 4.21724 4.69163 4.43924C4.42725 4.70924 3.77138 5.33849 3.77138 6.62961C3.77138 7.92074 4.71263 9.16948 4.83975 9.34423C4.97213 9.51861 6.67537 12.2062 9.31987 13.3016C11.388 14.1589 12.0019 14.0794 12.4725 13.9789C13.1602 13.8307 14.0224 13.3226 14.2391 12.7091C14.4562 12.0952 14.4562 11.5714 14.3929 11.4604C14.3291 11.3494 14.1544 11.286 13.8904 11.1536C13.6256 11.0212 12.3401 10.3864 12.0967 10.3016C11.859 10.2116 11.6317 10.2435 11.4517 10.4974C11.1979 10.8521 10.9492 11.2117 10.7482 11.4285C10.5896 11.598 10.3301 11.6194 10.1134 11.529C9.82237 11.4075 9.00787 11.1217 8.00287 10.2277C7.22512 9.53436 6.69637 8.67224 6.543 8.41274C6.38925 8.14836 6.52725 7.99499 6.64875 7.85211C6.78112 7.68786 6.90787 7.57161 7.04025 7.41824C7.17225 7.26449 7.2465 7.18536 7.33125 7.00574C7.42125 6.83099 7.3575 6.65099 7.29375 6.51824C7.23075 6.38624 6.70162 5.09512 6.48487 4.57162V4.57124Z" fill="white"/>
</svg>
