<svg width="20" height="20" viewBox="0 0 20 20" fill="none" xmlns="http://www.w3.org/2000/svg">
<g clip-path="url(#clip0_1_1283)">
<path d="M2.3158 1.43298V0.838577H5.56645V19.1498H2.3158V18.5931H3.24744C4.14243 18.5931 4.87634 17.8611 4.87634 16.9649V16.1986C4.87634 15.3028 4.14322 14.5697 3.24744 14.5697H2.3158V12.0254H3.24744C4.14322 12.0254 4.87634 11.2923 4.87634 10.3965V9.63024C4.87634 8.73446 4.14322 8.00134 3.24744 8.00134H2.3158V5.45707H3.24744C4.14322 5.45707 4.87634 4.72395 4.87634 3.82816V3.06188C4.87634 2.1661 4.14322 1.43298 3.24744 1.43298H2.3158ZM18.9831 19.1498H7.23311V0.838577H18.9831V19.1498ZM15.5964 2.07881H10.1289C9.2332 2.07881 8.49939 2.81262 8.49939 3.70837V6.15173C8.49939 7.04748 9.2332 7.78128 10.1289 7.78128H15.5964C16.4925 7.78128 17.2253 7.0471 17.2253 6.15173V3.70837C17.2253 2.813 16.4925 2.07881 15.5964 2.07881ZM1.01697 3.7904V3.09964L3.20968 3.09964V3.7904H1.01697ZM10.1661 6.11397V3.74548H15.5586V6.11397H10.1661ZM1.01697 10.3588V9.668H3.20968V10.3588H1.01697ZM1.01697 16.9265V16.2364H3.20968V16.9265H1.01697Z" stroke="#237758"/>
</g>
<defs>
<clipPath id="clip0_1_1283">
<rect width="20" height="20" fill="white"/>
</clipPath>
</defs>
</svg>
