<svg width="30" height="30" viewBox="0 0 30 30" fill="none" xmlns="http://www.w3.org/2000/svg">
<path d="M20.1562 13.5L21.3023 12.7359C21.3794 12.6845 21.4699 12.6571 21.5625 12.6571C21.6551 12.6571 21.7456 12.6845 21.8227 12.7359L22.9688 13.5L24.1148 12.7359C24.1982 12.6817 24.2968 12.6556 24.3961 12.6614C24.2725 12.2744 24.129 11.8941 23.9662 11.5219L23.2631 12.0844C23.1854 12.1466 23.0899 12.1824 22.9905 12.1867C22.891 12.191 22.7928 12.1635 22.71 12.1083L21.5625 11.3438L20.4164 12.1078C20.3336 12.1631 20.2354 12.1905 20.1359 12.1862C20.0365 12.1819 19.941 12.1461 19.8633 12.0839L19.1555 11.5177C18.9883 11.8906 18.8414 12.2722 18.7153 12.6609C18.819 12.652 18.9228 12.6779 19.0102 12.7345L20.1562 13.5ZM21.3023 10.3912C21.3794 10.3399 21.4699 10.3124 21.5625 10.3124C21.6551 10.3124 21.7456 10.3399 21.8227 10.3912L22.9434 11.1412L23.5345 10.6683C22.897 9.54563 22.1897 8.90625 21.5625 8.90625C20.873 8.90625 20.1666 9.64875 19.5863 10.6622L20.1816 11.1389L21.3023 10.3912ZM14.7755 4.16109C14.6953 4.1175 14.6119 4.08047 14.5312 4.03781V28.5258C14.8407 28.5877 15.1593 28.5877 15.4688 28.5258V4.03781C15.3881 4.08047 15.3047 4.1175 15.2245 4.16109C15.1557 4.19867 15.0785 4.21837 15 4.21837C14.9215 4.21837 14.8443 4.19867 14.7755 4.16109ZM3.28125 1.40625V25.3125H5.4375C8.38995 25.3179 11.2577 26.2998 13.5938 28.1053V3.5625C10.5834 2.14535 7.2976 1.40913 3.97031 1.40625H3.28125ZM4.6875 11.25C4.6875 11.1257 4.73689 11.0065 4.82479 10.9185C4.9127 10.8306 5.03193 10.7812 5.15625 10.7812H7.03125V8.90625C7.03125 8.78193 7.08064 8.6627 7.16854 8.57479C7.25645 8.48689 7.37568 8.4375 7.5 8.4375H9.375C9.49932 8.4375 9.61855 8.48689 9.70646 8.57479C9.79436 8.6627 9.84375 8.78193 9.84375 8.90625V10.7812H11.7188C11.8431 10.7812 11.9623 10.8306 12.0502 10.9185C12.1381 11.0065 12.1875 11.1257 12.1875 11.25V13.125C12.1875 13.2493 12.1381 13.3685 12.0502 13.4565C11.9623 13.5444 11.8431 13.5938 11.7188 13.5938H9.84375V19.2188C9.84375 19.3431 9.79436 19.4623 9.70646 19.5502C9.61855 19.6381 9.49932 19.6875 9.375 19.6875H7.5C7.37568 19.6875 7.25645 19.6381 7.16854 19.5502C7.08064 19.4623 7.03125 19.3431 7.03125 19.2188V13.5938H5.15625C5.03193 13.5938 4.9127 13.5444 4.82479 13.4565C4.73689 13.3685 4.6875 13.2493 4.6875 13.125V11.25Z" fill="#A1ADB5"/>
<path d="M7.96875 13.125V18.75H8.90625V13.125C8.90625 13.0007 8.95564 12.8815 9.04354 12.7935C9.13145 12.7056 9.25068 12.6562 9.375 12.6562H11.25V11.7188H9.375C9.25068 11.7188 9.13145 11.6694 9.04354 11.5815C8.95564 11.4935 8.90625 11.3743 8.90625 11.25V9.375H7.96875V11.25C7.96875 11.3743 7.91936 11.4935 7.83146 11.5815C7.74355 11.6694 7.62432 11.7188 7.5 11.7188H5.625V12.6562H7.5C7.62432 12.6562 7.74355 12.7056 7.83146 12.7935C7.91936 12.8815 7.96875 13.0007 7.96875 13.125Z" fill="#A1ADB5"/>
<path d="M2.8125 26.25C2.68818 26.25 2.56895 26.2006 2.48104 26.1127C2.39314 26.0248 2.34375 25.9056 2.34375 25.7812V2.34375H1.40625V27.6562H11.1478C9.38422 26.7376 7.42601 26.2554 5.4375 26.25H2.8125ZM26.7188 25.3125V1.40625H26.0297C22.7024 1.40913 19.4167 2.14535 16.4062 3.5625V28.1053C18.7423 26.2998 21.6101 25.3179 24.5625 25.3125H26.7188ZM21.5625 19.2188C20.444 19.2175 19.3717 18.7726 18.5808 17.9817C17.7899 17.1908 17.345 16.1185 17.3438 15C17.3438 12.9722 19.0252 7.96875 21.5625 7.96875C22.9331 7.96875 23.948 9.39 24.5578 10.5825C25.2695 11.9535 25.6862 13.4582 25.7812 15C25.7812 16.1189 25.3368 17.1919 24.5456 17.9831C23.7544 18.7743 22.6814 19.2188 21.5625 19.2188Z" fill="#A1ADB5"/>
<path d="M23.2289 16.7963C23.1519 16.8477 23.0614 16.8751 22.9688 16.8751C22.8762 16.8751 22.7857 16.8477 22.7086 16.7963L21.5625 16.0313L20.4164 16.7953C20.3394 16.8467 20.2489 16.8741 20.1563 16.8741C20.0637 16.8741 19.9732 16.8467 19.8961 16.7953L18.7163 16.0088L18.4843 16.125C18.6979 16.7114 19.0745 17.2246 19.5698 17.6044C20.065 17.9841 20.6584 18.2146 21.2802 18.2688C21.9019 18.3229 22.5262 18.1985 23.0797 17.9101C23.6331 17.6217 24.0928 17.1813 24.4046 16.6406C24.4977 16.476 24.5762 16.3035 24.6389 16.125L24.4088 16.0097L23.2289 16.7963Z" fill="#A1ADB5"/>
<path d="M27.6562 2.34375V25.7812C27.6562 25.9056 27.6068 26.0248 27.5189 26.1127C27.431 26.2006 27.3118 26.25 27.1874 26.25H24.5624C22.5736 26.2552 20.6151 26.7375 18.8512 27.6562H28.5937V2.34375H27.6562Z" fill="#A1ADB5"/>
<path d="M24.4087 13.6664L23.2289 14.453C23.1519 14.5044 23.0614 14.5318 22.9688 14.5318C22.8761 14.5318 22.7856 14.5044 22.7086 14.453L21.5625 13.6875L20.4164 14.4516C20.3394 14.5029 20.2489 14.5304 20.1562 14.5304C20.0636 14.5304 19.9731 14.5029 19.8961 14.4516L18.7163 13.665L18.4153 13.8155C18.333 14.2051 18.2881 14.6018 18.2812 15C18.2813 15.0586 18.2869 15.1162 18.2902 15.1739L18.5405 15.0487C18.6143 15.012 18.6965 14.9954 18.7788 15.0006C18.8611 15.0057 18.9406 15.0326 19.0092 15.0783L20.1562 15.8437L21.3023 15.0797C21.3794 15.0283 21.4699 15.0009 21.5625 15.0009C21.6551 15.0009 21.7456 15.0283 21.8227 15.0797L22.9688 15.8437L24.1148 15.0797C24.1835 15.034 24.263 15.0072 24.3453 15.002C24.4276 14.9968 24.5098 15.0134 24.5836 15.0501L24.8316 15.1744C24.8344 15.1167 24.8428 15.0595 24.8428 15.0014C24.8334 14.6014 24.7852 14.2033 24.6989 13.8126L24.4087 13.6664Z" fill="#A1ADB5"/>
</svg>
