<svg width="40" height="40" viewBox="0 0 40 40" fill="none" xmlns="http://www.w3.org/2000/svg">
<g clip-path="url(#clip0_1_1213)">
<path d="M4.11079 0.677145C3.84533 0.677145 3.63162 0.890854 3.63162 1.15631V3.86595H6.4949C7.73419 3.86595 8.75271 4.88447 8.75271 6.12376V7.65631C8.75271 8.8956 7.73419 9.91412 6.4949 9.91412H3.63162V17.0027H6.4949C7.73419 17.0027 8.75271 18.0212 8.75271 19.2605V20.793C8.75271 22.0323 7.73419 23.0508 6.4949 23.0508H3.63162V30.1394H6.4949C7.73419 30.1394 8.75271 31.1579 8.75271 32.3972V33.9297C8.75271 35.169 7.73353 36.1863 6.4949 36.1863H3.63162V38.8204C3.63162 39.0858 3.84533 39.2995 4.11079 39.2995H12.1329V0.677145H4.11079ZM13.4663 0.677145V39.2995H38.4871C38.7525 39.2995 38.9663 39.0858 38.9663 38.8204V1.15631C38.9663 0.890854 38.7525 0.677145 38.4871 0.677145H13.4663ZM20.2579 5.15761H31.1928C32.432 5.15761 33.4506 6.17752 33.4506 7.41673V12.3034C33.4506 13.5427 32.432 14.5626 31.1928 14.5626H20.2579C19.0187 14.5626 17.9988 13.5427 17.9988 12.3034V7.41673C17.9988 6.17752 19.0187 5.15761 20.2579 5.15761ZM1.95844 5.19928C1.43491 5.19928 1.03396 5.60023 1.03396 6.12376V7.65631C1.03396 8.17984 1.43491 8.58079 1.95844 8.58079H6.4949C7.01843 8.58079 7.41938 8.17984 7.41938 7.65631V6.12376C7.41938 5.60023 7.01843 5.19928 6.4949 5.19928L1.95844 5.19928ZM20.2579 6.49095C19.7343 6.49095 19.3321 6.89312 19.3321 7.41673V12.3034C19.3321 12.8271 19.7343 13.2279 20.2579 13.2279H31.1928C31.7164 13.2279 32.1173 12.8271 32.1173 12.3034V7.41673C32.1173 6.89312 31.7164 6.49095 31.1928 6.49095H20.2579ZM1.95844 18.336C1.43491 18.336 1.03396 18.7369 1.03396 19.2605V20.793C1.03396 21.3166 1.43491 21.7175 1.95844 21.7175H6.4949C7.01843 21.7175 7.41938 21.3166 7.41938 20.793V19.2605C7.41938 18.7369 7.01843 18.336 6.4949 18.336H1.95844ZM1.95844 31.4727C1.43491 31.4727 1.03396 31.8737 1.03396 32.3972V33.9297C1.03396 34.4533 1.43425 34.8529 1.95844 34.8529H6.4949C7.01909 34.8529 7.41938 34.4533 7.41938 33.9297V32.3972C7.41938 31.8737 7.01843 31.4727 6.4949 31.4727H1.95844Z" fill="#4F9E81"/>
</g>
<defs>
<clipPath id="clip0_1_1213">
<rect width="39.0875" height="39.0875" fill="white" transform="scale(1.02335)"/>
</clipPath>
</defs>
</svg>
