<svg width="29" height="29" viewBox="0 0 29 29" fill="none" xmlns="http://www.w3.org/2000/svg">
<path d="M14.5 28.2774C17.3678 28.2774 20.1712 27.4482 22.5558 25.8946C24.9403 24.341 26.7988 22.1329 27.8962 19.5494C28.9937 16.9658 29.2809 14.123 28.7214 11.3804C28.1619 8.63775 26.7809 6.11847 24.753 4.14114C22.7252 2.1638 20.1415 0.817223 17.3288 0.271678C14.5161 -0.273867 11.6006 0.00612607 8.95109 1.07625C6.30156 2.14638 4.03697 3.95857 2.44369 6.28367C0.85041 8.60876 0 11.3423 0 14.1387C0 17.8885 1.52767 21.4848 4.24695 24.1363C5.5934 25.4492 7.19187 26.4906 8.95109 27.2012C10.7103 27.9117 12.5958 28.2774 14.5 28.2774ZM9.12485 13.1391C9.25943 13.0078 9.41924 12.9036 9.59514 12.8325C9.77104 12.7614 9.95959 12.7248 10.15 12.7248C10.3404 12.7248 10.529 12.7614 10.7049 12.8325C10.8808 12.9036 11.0406 13.0078 11.1751 13.1391L13.05 14.9671L17.8248 10.3114C18.0983 10.0538 18.4646 9.9113 18.8448 9.91453C19.225 9.91775 19.5886 10.0664 19.8575 10.3286C20.1263 10.5907 20.2788 10.9453 20.2821 11.3161C20.2854 11.6868 20.1393 12.0439 19.8751 12.3106L14.0751 17.9661C13.9406 18.0974 13.7807 18.2016 13.6048 18.2726C13.4289 18.3437 13.2404 18.3803 13.05 18.3803C12.8596 18.3803 12.671 18.3437 12.4951 18.2726C12.3192 18.2016 12.1594 18.0974 12.0248 17.9661L9.12485 15.1383C8.99015 15.0071 8.88329 14.8513 8.81038 14.6797C8.73747 14.5082 8.69995 14.3244 8.69995 14.1387C8.69995 13.953 8.73747 13.7692 8.81038 13.5977C8.88329 13.4262 8.99015 13.2703 9.12485 13.1391Z" fill="white"/>
</svg>
