<svg width="14" height="14" viewBox="0 0 14 14" fill="none" xmlns="http://www.w3.org/2000/svg">
<path d="M12.635 6.99999C12.6355 7.22088 12.5732 7.43737 12.4555 7.62428C12.3378 7.81119 12.1694 7.96084 11.97 8.05582L3.42418 12.1041C3.26777 12.1894 3.0945 12.2392 2.91668 12.25C2.72209 12.2496 2.53069 12.2005 2.35991 12.1072C2.18913 12.014 2.04439 11.8794 1.93887 11.716C1.83335 11.5525 1.77041 11.3652 1.75576 11.1711C1.74111 10.9771 1.77524 10.7825 1.85502 10.605L3.18502 7.58332H6.41667C6.57138 7.58332 6.71975 7.52186 6.82915 7.41247C6.93855 7.30307 7 7.1547 7 6.99999C7 6.84528 6.93855 6.69691 6.82915 6.58751C6.71975 6.47812 6.57138 6.41666 6.41667 6.41666H3.18502L1.85502 3.42417C1.75865 3.20671 1.73105 2.96498 1.77592 2.73139C1.82079 2.49781 1.93599 2.28351 2.10607 2.11724C2.27616 1.95096 2.493 1.84065 2.72754 1.80107C2.96209 1.7615 3.20312 1.79457 3.41835 1.89584L11.9642 5.94416C12.1647 6.0383 12.3342 6.18759 12.453 6.37457C12.5718 6.56154 12.6349 6.77847 12.635 6.99999Z" fill="white"/>
</svg>
