<svg width="21" height="24" viewBox="0 0 21 24" fill="none" xmlns="http://www.w3.org/2000/svg">
<path d="M17.2646 7.38975C18.2547 7.38876 19.2039 6.99922 19.904 6.30661C20.6042 5.61399 20.998 4.67486 20.9992 3.69525C20.9982 2.71551 20.6045 1.77619 19.9043 1.08341C19.2041 0.390631 18.2548 0.000992742 17.2646 0C16.2746 0.00119123 15.3255 0.390917 14.6255 1.08367C13.9255 1.77643 13.5318 2.71564 13.5308 3.69525C13.5308 4.1745 13.6301 4.629 13.7991 5.04975L6.38148 9.30675C6.03535 8.96001 5.62307 8.68473 5.16857 8.49689C4.71407 8.30905 4.2264 8.21238 3.73384 8.2125C2.74393 8.21369 1.79492 8.60331 1.09495 9.29591C0.394975 9.9885 0.00120353 10.9275 0 11.907C0.00100296 12.8866 0.394686 13.8258 1.09468 14.5186C1.79467 15.2113 2.7438 15.6011 3.73384 15.6023C4.78365 15.6023 5.73037 15.1672 6.40953 14.4742L13.765 19.0613C13.6146 19.4594 13.5355 19.8805 13.5316 20.3055C13.5328 21.285 13.9265 22.224 14.6265 22.9166C15.3265 23.6092 16.2755 23.9988 17.2654 24C18.2554 23.999 19.2047 23.6095 19.9048 22.9169C20.6049 22.2242 20.9988 21.2851 21 20.3055C20.999 19.3258 20.6052 18.3864 19.9051 17.6937C19.2049 17.0009 18.2556 16.6112 17.2654 16.6102C16.7566 16.6111 16.2534 16.7154 15.787 16.9167C15.3206 17.1179 14.9009 17.4119 14.5541 17.7803L7.21754 13.2045C7.37217 12.7987 7.46768 12.3645 7.46768 11.9062C7.46768 11.433 7.36914 10.9845 7.20466 10.5683L14.6291 6.3075C14.9746 6.651 15.3853 6.92348 15.8376 7.10922C16.2899 7.29496 16.7749 7.39031 17.2646 7.38975ZM17.2646 18.111C17.8529 18.1116 18.4168 18.3431 18.8328 18.7546C19.2487 19.1662 19.4827 19.7242 19.4833 20.3063C19.4825 20.8882 19.2484 21.446 18.8325 21.8574C18.4166 22.2688 17.8527 22.5002 17.2646 22.5007C16.6767 22.5 16.113 22.2685 15.6973 21.8571C15.2815 21.4457 15.0476 20.888 15.0468 20.3063C15.0468 19.9028 15.165 19.5292 15.3576 19.2045C15.3636 19.1962 15.3712 19.1903 15.3773 19.1813C15.3856 19.1685 15.3856 19.1535 15.3932 19.1408C15.5913 18.8262 15.867 18.5667 16.1944 18.3866C16.5218 18.2064 16.8901 18.1116 17.2646 18.111ZM3.73308 14.103C3.14498 14.1022 2.58121 13.8706 2.16543 13.4591C1.74965 13.0476 1.51582 12.4897 1.51521 11.9078C1.51602 11.326 1.74994 10.7683 2.1657 10.3569C2.58146 9.9455 3.14511 9.71404 3.73308 9.71325C4.4562 9.71325 5.09367 10.0627 5.49919 10.5945C5.5098 10.6185 5.51056 10.644 5.5242 10.6665C5.55922 10.7262 5.60261 10.7808 5.65306 10.8285C5.83725 11.1488 5.9517 11.5133 5.9517 11.907C5.95073 12.3216 5.83002 12.7273 5.60379 13.0763L5.59848 13.0815C5.59545 13.086 5.59621 13.0905 5.59318 13.095C5.39309 13.4036 5.11796 13.6575 4.79299 13.8336C4.46802 14.0097 4.10359 14.1023 3.73308 14.103ZM17.2646 1.50075C17.8529 1.50135 18.4168 1.73282 18.8328 2.14438C19.2487 2.55594 19.4827 3.11397 19.4833 3.696C19.4825 4.2779 19.2484 4.83574 18.8325 5.24713C18.4166 5.65853 17.8527 5.8899 17.2646 5.8905C16.6767 5.88971 16.113 5.65825 15.6973 5.24687C15.2815 4.83549 15.0476 4.27777 15.0468 3.696C15.0472 3.11403 15.281 2.55601 15.6968 2.14443C16.1126 1.73285 16.6765 1.50135 17.2646 1.50075Z" fill="white"/>
</svg>
