<svg width="40" height="40" viewBox="0 0 40 40" fill="none" xmlns="http://www.w3.org/2000/svg">
<path d="M4.01688 0.661682C3.75748 0.661682 3.54865 0.870515 3.54865 1.12992V3.77774H6.34661C7.55762 3.77774 8.55291 4.77302 8.55291 5.98404V7.48163C8.55291 8.69265 7.55762 9.68793 6.34661 9.68793H3.54865V16.6148H6.34661C7.55762 16.6148 8.55291 17.61 8.55291 18.8211V20.3187C8.55291 21.5297 7.55762 22.525 6.34661 22.525H3.54865V29.4518H6.34661C7.55762 29.4518 8.55291 30.4471 8.55291 31.6581V33.1557C8.55291 34.3667 7.55698 35.3607 6.34661 35.3607H3.54865V37.9347C3.54865 38.1941 3.75748 38.403 4.01688 38.403H11.856V0.661682H4.01688ZM13.1589 0.661682V38.403H37.6089C37.8683 38.403 38.0772 38.1941 38.0772 37.9347V1.12992C38.0772 0.870515 37.8683 0.661682 37.6089 0.661682H13.1589ZM19.7956 5.03994H30.4811C31.692 5.03994 32.6874 6.03657 32.6874 7.24751V12.0227C32.6874 13.2337 31.692 14.2303 30.4811 14.2303H19.7956C18.5847 14.2303 17.5881 13.2337 17.5881 12.0227V7.24751C17.5881 6.03657 18.5847 5.03994 19.7956 5.03994ZM1.91364 5.08065C1.40205 5.08065 1.01025 5.47245 1.01025 5.98404V7.48163C1.01025 7.99322 1.40205 8.38502 1.91364 8.38502H6.34661C6.85819 8.38502 7.25 7.99322 7.25 7.48163V5.98404C7.25 5.47245 6.85819 5.08065 6.34661 5.08065L1.91364 5.08065ZM19.7956 6.34285C19.284 6.34285 18.891 6.73585 18.891 7.24751V12.0227C18.891 12.5344 19.284 12.9261 19.7956 12.9261H30.4811C30.9927 12.9261 31.3845 12.5344 31.3845 12.0227V7.24751C31.3845 6.73585 30.9927 6.34285 30.4811 6.34285H19.7956ZM1.91364 17.9177C1.40205 17.9177 1.01025 18.3095 1.01025 18.8211V20.3187C1.01025 20.8302 1.40205 21.222 1.91364 21.222H6.34661C6.85819 21.222 7.25 20.8302 7.25 20.3187V18.8211C7.25 18.3095 6.85819 17.9177 6.34661 17.9177H1.91364ZM1.91364 30.7547C1.40205 30.7547 1.01025 31.1465 1.01025 31.6581V33.1557C1.01025 33.6673 1.40141 34.0578 1.91364 34.0578H6.34661C6.85884 34.0578 7.25 33.6673 7.25 33.1557V31.6581C7.25 31.1465 6.85819 30.7547 6.34661 30.7547H1.91364Z" fill="#257FD0"/>
</svg>
