<svg width="40" height="40" viewBox="0 0 40 40" fill="none" xmlns="http://www.w3.org/2000/svg">
<g clip-path="url(#clip0_1_1175)">
<path d="M40 20C40 25.596 37.7016 30.6548 33.9977 34.2846C33.9746 34.3073 33.9511 34.3299 33.9275 34.3526C33.6237 34.6473 33.3107 34.9329 32.9881 35.2084C32.3524 35.7529 31.6819 36.2573 30.9809 36.7185C27.8289 38.7933 24.0553 40 20 40C15.9447 40 12.1711 38.7933 9.0191 36.7185C8.31808 36.2573 7.64757 35.7529 7.01195 35.2084C6.68934 34.9329 6.37632 34.6473 6.07246 34.3526C6.04891 34.3299 6.02537 34.3073 6.00227 34.2846C2.29837 30.6544 0 25.596 0 20C0 8.95414 8.95414 0 20 0C31.0459 0 40 8.95414 40 20Z" fill="#CFEEE3"/>
<path d="M33.9276 34.3522C33.6237 34.6469 33.3107 34.9324 32.9881 35.208C32.3525 35.7525 31.682 36.2569 30.981 36.7181C27.829 38.7928 24.0553 39.9996 20.0001 39.9996C15.9448 39.9996 12.1711 38.7928 9.01915 36.7181C8.31813 36.2569 7.64763 35.7525 7.012 35.208C6.68939 34.9324 6.37637 34.6469 6.07251 34.3522C6.82628 32.0163 8.66951 30.1229 11.1008 29.3557L17.0207 27.4863V26.5102C16.2787 26.0694 15.6156 25.5654 15.0689 25.1962C14.0518 24.51 13.3674 23.4345 13.1651 22.2247L12.8495 20.3361C11.8607 20.3361 11.0616 19.537 11.0616 18.5483C11.0616 17.8132 11.5028 17.1828 12.1358 16.9086C11.583 15.6125 11.1776 14.2388 10.9339 12.8302C10.7791 11.9378 10.6919 10.9966 10.9539 10.136C11.2155 9.27545 11.9087 8.52037 12.7265 8.50555L12.8338 8.51296C13.35 7.70687 14.1565 7.17587 15.0031 6.86896C15.8497 6.56161 16.7434 6.45742 17.6289 6.3554C17.975 6.31573 18.3229 6.27518 18.6717 6.24031C20.2799 6.08554 22.0312 6.04805 23.6756 6.50581C25.3205 6.964 26.9095 7.99111 27.747 9.62857C28.4123 10.9277 28.547 12.495 28.3796 13.9777C28.2689 14.9616 28.033 15.9194 27.7562 16.865C28.4463 17.1122 28.9385 17.7718 28.9385 18.5483C28.9385 19.537 28.1403 20.3361 27.1506 20.3361L26.835 22.2247C26.6327 23.4345 25.9487 24.51 24.9316 25.1962C24.384 25.5654 23.7218 26.0694 22.9798 26.5102V27.4863L28.8993 29.3557C31.331 30.1234 33.1743 32.0167 33.9285 34.3522H33.9276Z" fill="#4F9E81"/>
</g>
<defs>
<clipPath id="clip0_1_1175">
<rect width="40" height="40" fill="white"/>
</clipPath>
</defs>
</svg>
