<svg width="41" height="39" viewBox="0 0 41 39" fill="none" xmlns="http://www.w3.org/2000/svg">
<path d="M27.4353 0C27.2833 0.00584206 27.1372 0.0605344 27.0188 0.155949C26.9003 0.251363 26.8159 0.382405 26.7779 0.529601L26.7751 0.543724L24.7677 8.02875L15.8913 5.65614C15.8015 5.63202 15.7078 5.62582 15.6157 5.6379C15.5235 5.64998 15.4347 5.6801 15.3542 5.72654C15.2737 5.77298 15.2031 5.83482 15.1466 5.90853C15.0901 5.98224 15.0486 6.06636 15.0247 6.15608L13.5615 11.6131C13.5136 11.7936 13.5391 11.9858 13.6327 12.1475C13.7262 12.3092 13.88 12.4273 14.0605 12.476L22.9384 14.8543L19.3378 28.2765C19.3078 28.3885 19.3059 28.5061 19.3323 28.619C19.3586 28.7319 19.4123 28.8366 19.4888 28.9239C19.5652 29.0111 19.6619 29.0782 19.7705 29.1192C19.879 29.1603 19.996 29.174 20.1111 29.1591C20.6059 29.0956 21.0964 29.0462 21.5855 29.032C21.6605 29.0316 21.735 29.0192 21.8061 28.9953C21.85 28.9819 21.8949 28.972 21.9404 28.9657C21.9488 28.9658 21.9573 28.9658 21.9658 28.9657H21.9983C22.0478 28.9657 22.0944 28.9798 22.1425 28.984C22.1939 28.9964 22.2465 29.0031 22.2994 29.0038C23.4275 29.0264 24.5401 29.1916 25.6385 29.4416C25.8164 29.4818 26.0029 29.4518 26.1591 29.3578C26.3153 29.2639 26.4292 29.1132 26.4768 28.9374L29.7665 16.6831L38.6429 19.0572C38.8236 19.1051 39.0159 19.0795 39.1778 18.9861C39.3397 18.8927 39.458 18.739 39.5067 18.5586L40.9698 13.1016C40.994 13.012 41.0002 12.9186 40.9882 12.8266C40.9762 12.7346 40.9462 12.6459 40.8999 12.5655C40.8535 12.4851 40.7918 12.4146 40.7182 12.358C40.6445 12.3015 40.5605 12.26 40.4708 12.2359L31.5929 9.86047L33.606 2.35849C33.6302 2.26891 33.6364 2.17545 33.6244 2.08346C33.6124 1.99146 33.5824 1.90272 33.536 1.82233C33.4897 1.74193 33.428 1.67144 33.3543 1.61489C33.2807 1.55835 33.1966 1.51685 33.107 1.49277L27.6459 0.03107C27.5773 0.0130097 27.5063 0.00539198 27.4353 0.00847368V0ZM21.9983 29.6605C18.7228 29.6746 15.5633 30.7621 12.9211 32.687C11.8114 32.3382 10.6635 32.1065 9.49438 32.1023C9.49344 32.1023 9.4925 32.1023 9.49155 32.1023C5.67888 32.1023 2.12914 33.9651 0.11466 37.0424C0.0452062 37.1489 0.00579795 37.2721 0.000592249 37.3991C-0.00461345 37.5261 0.0245762 37.6521 0.0850826 37.7639C0.145589 37.8756 0.23517 37.969 0.344377 38.0342C0.453584 38.0994 0.578371 38.1339 0.705576 38.1341H34.6337C34.7595 38.1341 34.883 38.1007 34.9915 38.0371C35.1 37.9735 35.1895 37.8822 35.2509 37.7725C35.3123 37.6629 35.3432 37.5388 35.3406 37.4132C35.338 37.2876 35.3019 37.165 35.236 37.058C33.8452 34.7991 31.8989 32.9334 29.5822 31.6385C27.2656 30.3437 24.6557 29.6627 22.0011 29.6605C22.0002 29.6605 21.9993 29.6605 21.9983 29.6605Z" fill="#257FD0"/>
</svg>
