<svg width="30" height="30" viewBox="0 0 30 30" fill="none" xmlns="http://www.w3.org/2000/svg">
<path d="M4.37482 17.3905V17.1349C4.41846 16.3164 4.67678 15.5234 5.12414 14.8347C5.87009 13.9989 6.38291 12.9836 6.61161 11.8899C6.66753 11.0565 6.61161 10.2008 6.66753 9.35629C7.07015 5.3003 11.0852 2.5 14.9325 2.5H15.0443C18.9587 2.5 22.8731 5.3003 23.2981 9.35629C23.3763 10.1897 23.2981 11.0565 23.3652 11.8899C23.5883 12.9855 24.1018 14.0021 24.8526 14.8347C25.3194 15.5155 25.5866 16.3119 25.6244 17.1349V17.3905C25.6312 18.4991 25.2339 19.5728 24.5059 20.413C23.572 21.4092 22.3024 22.0301 20.9382 22.1577C16.9547 22.6688 12.9215 22.6688 8.93787 22.1577C7.58956 22.0196 6.33762 21.3996 5.41492 20.413C4.70975 19.5648 4.33996 18.4902 4.37482 17.3905Z" fill="#9BC4B5"/>
<path opacity="0.4" d="M16.4534 23.8689C15.6594 23.8134 15.0107 23.8689 14.362 23.8689C13.7187 23.8578 13.0765 23.925 12.4496 24.069C11.9127 24.1912 11.3312 24.4801 11.3312 25.0913C11.3875 25.682 11.7077 26.2163 12.2035 26.547C13.1586 27.2764 14.3621 27.6072 15.5587 27.4693C16.7218 27.3836 17.7849 26.784 18.4554 25.8358C18.8259 25.3554 18.7414 24.6687 18.2652 24.2912C17.7014 24.0156 17.0818 23.8712 16.4534 23.8689Z" fill="#9BC4B5"/>
</svg>
