<svg width="42" height="42" viewBox="0 0 42 42" fill="none" xmlns="http://www.w3.org/2000/svg">
<g clip-path="url(#clip0_1_1210)">
<path d="M9.6862 36.1069H36.7237C36.8746 35.595 37.0781 35.07 37.334 34.545H7.13339C5.51245 34.545 4.19995 36.2184 4.19995 38.2791C4.19995 40.3331 5.51245 42.0066 7.13339 42.0066H37.2553C36.9862 41.4947 36.7828 40.9697 36.6384 40.4447H9.6862C9.31214 40.4447 9.01026 40.1428 9.01026 39.7688C9.01026 39.3947 9.31214 39.0928 9.6862 39.0928H36.389C36.3431 38.5547 36.3562 38.0166 36.4284 37.4719H9.6862C9.31214 37.4719 9.01026 37.17 9.01026 36.7959C9.01026 36.4088 9.31214 36.1069 9.6862 36.1069ZM7.13339 33.1866H9.01682V0H7.87495C5.84714 0 4.19995 1.64719 4.19995 3.66844V34.5713C4.9612 33.7181 5.99807 33.1866 7.13339 33.1866ZM35.7656 0H10.3687V33.1866H37.7999V2.03437C37.7999 0.912187 36.8878 0 35.7656 0ZM31.9724 14.7131C31.9724 15.0872 31.6706 15.3891 31.2965 15.3891H26.8274V27.7462C26.8274 28.1203 26.5256 28.4222 26.1515 28.4222H22.0237C21.6431 28.4222 21.3478 28.1203 21.3478 27.7462V15.3891H16.8787C16.5046 15.3891 16.2028 15.0872 16.2028 14.7131V10.5853C16.2028 10.2112 16.5046 9.90938 16.8787 9.90938H21.3478V5.44031C21.3478 5.06625 21.6431 4.76438 22.0237 4.76438H26.1515C26.5256 4.76438 26.8274 5.06625 26.8274 5.44031V9.90938H31.2965C31.6706 9.90938 31.9724 10.2112 31.9724 10.5853V14.7131Z" fill="#4F9E81"/>
<path d="M25.469 10.5853V6.11625H22.6996V10.5853C22.6996 10.9594 22.3978 11.2613 22.0237 11.2613H17.5546V14.0306H22.0237C22.3978 14.0306 22.6996 14.3325 22.6996 14.7066V27.0638H25.469V14.7131C25.469 14.3391 25.7709 14.0372 26.145 14.0372H30.614V11.2678H26.145C25.7775 11.2678 25.469 10.9594 25.469 10.5853Z" fill="#4F9E81"/>
</g>
<defs>
<clipPath id="clip0_1_1210">
<rect width="41.9475" height="41.9475" fill="white" transform="scale(1.00125)"/>
</clipPath>
</defs>
</svg>
