<svg width="8" height="6" viewBox="0 0 8 6" fill="none" xmlns="http://www.w3.org/2000/svg">
<path d="M7.97 2.86C7.31333 1.43667 5.83333 0 4 0C2.16667 0 0.686667 1.43667 0.03 2.86C0.0102245 2.90402 0 2.95174 0 3C0 3.04826 0.0102245 3.09598 0.03 3.14C0.686667 4.56333 2.16667 6 4 6C5.83333 6 7.31333 4.56333 7.97 3.14C7.98978 3.09598 8 3.04826 8 3C8 2.95174 7.98978 2.90402 7.97 2.86ZM4 4.66667C3.67036 4.66667 3.34813 4.56892 3.07405 4.38578C2.79997 4.20265 2.58635 3.94235 2.4602 3.63781C2.33405 3.33326 2.30105 2.99815 2.36536 2.67485C2.42967 2.35155 2.5884 2.05458 2.82149 1.82149C3.05458 1.5884 3.35155 1.42967 3.67485 1.36536C3.99815 1.30105 4.33326 1.33405 4.63781 1.4602C4.94235 1.58635 5.20265 1.79997 5.38578 2.07405C5.56892 2.34813 5.66667 2.67036 5.66667 3C5.66614 3.44187 5.49037 3.86548 5.17793 4.17793C4.86548 4.49037 4.44186 4.66614 4 4.66667Z" fill="#4F9E81"/>
<path d="M3.99994 3.99976C4.55222 3.99976 4.99994 3.55204 4.99994 2.99976C4.99994 2.44747 4.55222 1.99976 3.99994 1.99976C3.44765 1.99976 2.99994 2.44747 2.99994 2.99976C2.99994 3.55204 3.44765 3.99976 3.99994 3.99976Z" fill="#4F9E81"/>
</svg>
