<svg width="58" height="60" viewBox="0 0 58 60" fill="none" xmlns="http://www.w3.org/2000/svg">
<g filter="url(#filter0_d_1_1641)">
<path d="M34.3264 22.378C34.3264 22.3831 34.3244 22.388 34.3208 22.3916L29.3999 27.3205C28.7541 27.8944 27.9133 28.2 27.0497 28.1745C26.186 28.1491 25.3647 27.7947 24.7537 27.1837C24.1427 26.5727 23.7883 25.7514 23.7629 24.8877C23.7374 24.0241 24.043 23.1833 24.6169 22.5375L30.9943 16.1601C31.375 15.7985 31.8801 15.5968 32.4053 15.5968C32.9304 15.5968 33.4355 15.7985 33.8162 16.1601C34.1872 16.5361 34.3952 17.043 34.3952 17.5711C34.3952 18.0993 34.1872 18.6062 33.8162 18.9821L28.3158 24.4746C28.2614 24.5332 28.1959 24.5805 28.1232 24.6139C28.0504 24.6472 27.9719 24.6659 27.8919 24.6688C27.812 24.6718 27.7322 24.659 27.6572 24.6311C27.5822 24.6033 27.5135 24.5609 27.4548 24.5065C27.3962 24.452 27.3489 24.3866 27.3156 24.3138C27.2822 24.2411 27.2636 24.1625 27.2606 24.0826C27.2576 24.0026 27.2705 23.9229 27.2983 23.8479C27.3262 23.7729 27.3685 23.7041 27.423 23.6455L31.5124 19.564C31.6625 19.4139 31.7469 19.2103 31.7469 18.998C31.7469 18.7858 31.6625 18.5822 31.5124 18.4321C31.3623 18.2819 31.1587 18.1976 30.9464 18.1976C30.7342 18.1976 30.5306 18.2819 30.3805 18.4321L26.291 22.5295C26.0864 22.7325 25.9239 22.9741 25.8131 23.2402C25.7023 23.5063 25.6452 23.7917 25.6452 24.08C25.6452 24.3682 25.7023 24.6537 25.8131 24.9198C25.9239 25.1859 26.0864 25.4274 26.291 25.6305C26.709 26.0286 27.2642 26.2507 27.8415 26.2507C28.4188 26.2507 28.974 26.0286 29.392 25.6305L34.8844 20.13C35.5181 19.45 35.8631 18.5506 35.8467 17.6212C35.8303 16.6919 35.4538 15.8052 34.7965 15.1479C34.1393 14.4907 33.2526 14.1142 32.3233 14.0978C31.3939 14.0814 30.4945 14.4264 29.8145 15.06L23.4371 21.4374C22.5771 22.3899 22.1178 23.6374 22.1549 24.9202C22.192 26.2029 22.7226 27.4219 23.6361 28.3231C24.5497 29.2243 25.7758 29.7383 27.0589 29.7579C28.342 29.7776 29.5832 29.3014 30.5239 28.4285L35.4584 23.502C35.5327 23.4277 35.5917 23.3395 35.6319 23.2424C35.6721 23.1452 35.6928 23.0412 35.6928 22.936C35.6928 22.8309 35.6721 22.7268 35.6319 22.6297C35.5917 22.5326 35.5327 22.4444 35.4584 22.3701C35.3841 22.2957 35.2958 22.2368 35.1987 22.1965C35.1016 22.1563 34.9975 22.1356 34.8924 22.1356C34.7873 22.1356 34.6832 22.1563 34.5861 22.1965C34.4914 22.2357 34.4052 22.2928 34.3321 22.3644C34.3284 22.368 34.3264 22.3729 34.3264 22.378Z" fill="url(#paint0_linear_1_1641)"/>
</g>
<defs>
<filter id="filter0_d_1_1641" x="0" y="0" width="58" height="59.9669" filterUnits="userSpaceOnUse" color-interpolation-filters="sRGB">
<feFlood flood-opacity="0" result="BackgroundImageFix"/>
<feColorMatrix in="SourceAlpha" type="matrix" values="0 0 0 0 0 0 0 0 0 0 0 0 0 0 0 0 0 0 127 0" result="hardAlpha"/>
<feOffset dy="8"/>
<feGaussianBlur stdDeviation="11"/>
<feComposite in2="hardAlpha" operator="out"/>
<feColorMatrix type="matrix" values="0 0 0 0 0.161973 0 0 0 0 0.152778 0 0 0 0 0.229167 0 0 0 0.21 0"/>
<feBlend mode="normal" in2="BackgroundImageFix" result="effect1_dropShadow_1_1641"/>
<feBlend mode="normal" in="SourceGraphic" in2="effect1_dropShadow_1_1641" result="shape"/>
</filter>
<linearGradient id="paint0_linear_1_1641" x1="23.8012" y1="14.0973" x2="36.5732" y2="27.1908" gradientUnits="userSpaceOnUse">
<stop stop-color="#4F9E81"/>
<stop offset="0.9999" stop-color="#157A55"/>
</linearGradient>
</defs>
</svg>
