<svg width="31" height="31" viewBox="0 0 31 31" fill="none" xmlns="http://www.w3.org/2000/svg">
<path d="M15.5 12.555C18.7102 12.555 21.3125 9.95265 21.3125 6.74249C21.3125 3.53234 18.7102 0.929993 15.5 0.929993C12.2898 0.929993 9.6875 3.53234 9.6875 6.74249C9.6875 9.95265 12.2898 12.555 15.5 12.555Z" fill="#A1ADB5"/>
<path d="M29.8956 26.0012C29.2926 23.2561 27.9101 20.7433 25.914 18.7647C25.4295 18.2785 24.9045 17.8345 24.3446 17.4375C21.7949 15.525 18.6871 14.5038 15.4999 14.5312C11.6028 14.5113 7.85584 16.0331 5.0762 18.7647C3.08009 20.7433 1.69757 23.2561 1.09464 26.0012C0.989836 26.4867 0.995497 26.9894 1.1112 27.4723C1.2269 27.9553 1.44968 28.406 1.76307 28.7912C2.08763 29.1847 2.49633 29.5004 2.95906 29.715C3.4218 29.9296 3.92679 30.0377 4.43682 30.0312H26.5631C27.0746 30.0316 27.5797 29.9168 28.0408 29.6954C28.502 29.4741 28.9074 29.1518 29.2271 28.7525C29.5349 28.3718 29.7545 27.9276 29.87 27.4519C29.9856 26.9761 29.9943 26.4807 29.8956 26.0012Z" fill="#A1ADB5"/>
</svg>
