<svg width="20" height="20" viewBox="0 0 20 20" fill="none" xmlns="http://www.w3.org/2000/svg">
<g clip-path="url(#clip0_1_1643)">
<g filter="url(#filter0_d_1_1643)">
<path fill-rule="evenodd" clip-rule="evenodd" d="M12.5 9.16675C12.5 10.5501 11.3833 11.6667 9.99998 11.6667C8.61664 11.6667 7.49998 10.5501 7.49998 9.16675V4.16675C7.49998 2.78341 8.61664 1.66675 9.99998 1.66675C11.3833 1.66675 12.5 2.78341 12.5 4.16675V9.16675ZM10.0003 13.3334C12.0168 13.3334 13.7003 11.8985 14.0846 9.99475C14.1757 9.54361 14.5401 9.16675 15.0003 9.16675C15.4605 9.16675 15.8399 9.54183 15.7749 9.99746C15.4516 12.2644 13.8241 14.1023 11.6785 14.7467C11.2025 14.8896 10.8336 15.3022 10.8336 15.7993V16.6667C10.8336 17.127 10.4605 17.5001 10.0003 17.5001C9.54007 17.5001 9.16697 17.127 9.16697 16.6667V15.7993C9.16697 15.3022 8.79812 14.8896 8.3221 14.7467C6.17646 14.1023 4.54896 12.2644 4.22566 9.99746C4.16068 9.54183 4.54007 9.16675 5.0003 9.16675C5.46054 9.16675 5.82495 9.54361 5.91602 9.99475C6.30035 11.8985 7.98378 13.3334 10.0003 13.3334Z" fill="url(#paint0_linear_1_1643)"/>
</g>
</g>
<defs>
<filter id="filter0_d_1_1643" x="-17.7816" y="-12.3333" width="55.5638" height="59.8334" filterUnits="userSpaceOnUse" color-interpolation-filters="sRGB">
<feFlood flood-opacity="0" result="BackgroundImageFix"/>
<feColorMatrix in="SourceAlpha" type="matrix" values="0 0 0 0 0 0 0 0 0 0 0 0 0 0 0 0 0 0 127 0" result="hardAlpha"/>
<feOffset dy="8"/>
<feGaussianBlur stdDeviation="11"/>
<feComposite in2="hardAlpha" operator="out"/>
<feColorMatrix type="matrix" values="0 0 0 0 0.161973 0 0 0 0 0.152778 0 0 0 0 0.229167 0 0 0 0.21 0"/>
<feBlend mode="normal" in2="BackgroundImageFix" result="effect1_dropShadow_1_1643"/>
<feBlend mode="normal" in="SourceGraphic" in2="effect1_dropShadow_1_1643" result="shape"/>
</filter>
<linearGradient id="paint0_linear_1_1643" x1="5.61033" y1="1.66675" x2="18.3727" y2="12.5948" gradientUnits="userSpaceOnUse">
<stop stop-color="#4F9E81"/>
<stop offset="0.9999" stop-color="#157A55"/>
</linearGradient>
<clipPath id="clip0_1_1643">
<rect width="20" height="20" fill="white"/>
</clipPath>
</defs>
</svg>
