<svg width="29" height="29" viewBox="0 0 29 29" fill="none" xmlns="http://www.w3.org/2000/svg">
<g clip-path="url(#clip0_0_14)">
<path d="M6.68815 24.9309H25.3569C25.4611 24.5775 25.6016 24.215 25.7783 23.8525H4.92549C3.80627 23.8525 2.90002 25.008 2.90002 26.4308C2.90002 27.8491 3.80627 29.0045 4.92549 29.0045H25.7239C25.5381 28.6511 25.3977 28.2886 25.298 27.9261H6.68815C6.42987 27.9261 6.22143 27.7177 6.22143 27.4594C6.22143 27.2011 6.42987 26.9927 6.68815 26.9927H25.1258C25.0941 26.6211 25.1031 26.2495 25.153 25.8734H6.68815C6.42987 25.8734 6.22143 25.665 6.22143 25.4067C6.22143 25.1394 6.42987 24.9309 6.68815 24.9309ZM4.92549 22.9145H6.22596V0H5.43752C4.03737 0 2.90002 1.13734 2.90002 2.53297V23.8706C3.42565 23.2816 4.14159 22.9145 4.92549 22.9145ZM24.6953 0H7.1594V22.9145H26.1V1.40469C26.1 0.629844 25.4702 0 24.6953 0ZM22.0763 10.1591C22.0763 10.4173 21.8678 10.6258 21.6096 10.6258H18.5238V19.1581C18.5238 19.4164 18.3153 19.6248 18.0571 19.6248H15.2069C14.9441 19.6248 14.7402 19.4164 14.7402 19.1581V10.6258H11.6544C11.3961 10.6258 11.1877 10.4173 11.1877 10.1591V7.30891C11.1877 7.05063 11.3961 6.84219 11.6544 6.84219H14.7402V3.75641C14.7402 3.49813 14.9441 3.28969 15.2069 3.28969H18.0571C18.3153 3.28969 18.5238 3.49813 18.5238 3.75641V6.84219H21.6096C21.8678 6.84219 22.0763 7.05063 22.0763 7.30891V10.1591Z" fill="#A1ADB5"/>
<path d="M17.5858 7.30891V4.22313H15.6736V7.30891C15.6736 7.56719 15.4652 7.77563 15.2069 7.77563H12.1211V9.68782H15.2069C15.4652 9.68782 15.6736 9.89625 15.6736 10.1545V18.6869H17.5858V10.1591C17.5858 9.90079 17.7942 9.69235 18.0525 9.69235H21.1383V7.78016H18.0525C17.7987 7.78016 17.5858 7.56719 17.5858 7.30891Z" fill="#A1ADB5"/>
</g>
<defs>
<clipPath id="clip0_0_14">
<rect width="29" height="29" fill="white"/>
</clipPath>
</defs>
</svg>
