<svg width="211" height="241" viewBox="0 0 211 241" fill="none" xmlns="http://www.w3.org/2000/svg">
<g clip-path="url(#clip0_1_1074)">
<path d="M55.3781 214.479L35.0415 226.71L21.0718 222.513L8.04078 218.582L0 193.667L25.4051 165.43L51.0605 183.028L55.3781 214.479Z" fill="#896064"/>
<path d="M55.3781 214.479L35.0415 226.71L21.0718 222.513L21.6506 209.97L37.1847 183.886L25.4051 165.43L51.0605 183.028L55.3781 214.479Z" fill="#966F70"/>
<path d="M191.508 215.945L149.568 227.427H34.9789L41.1738 188.004C41.1738 188.004 33.8682 158.644 35.1354 155.586C36.4025 152.528 58.6633 115.305 58.6633 115.305L61.3539 116.818L66.7197 119.829L120.737 150.157L133.392 157.255L182.763 184.978L191.508 215.93V215.945Z" fill="#966F70"/>
<path d="M75.5424 191.561L74.1657 227.427H34.9943L41.1892 188.004C41.1892 188.004 33.8836 158.644 35.1508 155.586C36.4179 152.528 58.6786 115.305 58.6786 115.305L61.3693 116.818L66.7351 119.829C63.7628 120.5 59.9458 121.389 59.9458 121.389L55.7846 140.734L51.3262 161.483L75.558 191.561H75.5424Z" fill="#896064"/>
<path d="M191.508 215.945L149.568 227.427H124.726C122.864 212.482 116.388 160.531 116.388 158.503C116.388 158.503 123.944 157.911 133.392 157.271L182.763 184.993L191.508 215.945Z" fill="#896064"/>
<path opacity="0.5" d="M126.838 159.736C126.838 159.736 79.7038 160.656 72.0072 156.444C65.2492 152.731 57.5213 143.043 55.7379 140.75L59.8991 121.405C59.8991 121.405 63.7161 120.5 66.6884 119.845L120.706 150.173L126.822 159.752L126.838 159.736Z" fill="#896064"/>
<path d="M83.8337 0.84239C83.8337 0.84239 93.1572 -1.32611 95.3942 8.06553C102.668 14.8362 101.12 22.5742 98.6012 28.0969C96.0825 33.6195 94.9093 37.9721 95.5976 40.1874C96.2703 42.4183 93.7986 51.3887 85.0226 50.1875C76.2465 48.9862 75.5582 43.1984 75.5582 43.1984C75.5582 43.1984 82.9889 27.426 83.4739 27.3324C83.9588 27.2388 91.3269 19.8753 91.3269 19.8753L83.8337 0.84239Z" fill="#5E1928"/>
<path d="M146.064 55.991C146.064 55.991 145.938 56.4434 145.688 57.1611C145.172 58.6119 144.108 61.1081 142.434 62.8553L141.762 62.5433L136.177 59.9536C136.177 59.9536 136.709 57.6759 137.194 53.7757C137.209 53.6041 137.241 53.4169 137.256 53.2453C137.679 50.016 138.414 45.7726 138.789 44.3841C138.821 44.2437 138.883 44.0877 138.961 43.9785C139.04 43.8693 139.149 43.7913 139.29 43.7913C139.759 43.7913 140.135 44.1813 140.135 44.6493L140.025 51.9192V52.122C140.025 52.122 140.103 52.122 140.135 52.122C142.591 52.3093 144.734 53.9005 145.485 56.2406C145.688 56.0846 145.892 55.9286 145.892 55.9286L146.064 56.0066V55.991Z" fill="#FF948C"/>
<path d="M112.321 83.3858C111.773 85.4919 111.225 87.442 110.694 89.2205C107.299 100.531 104.374 105.336 104.374 105.336C104.374 105.336 98.038 101.264 94.0333 90.5466C90.0441 79.8757 90.0285 49.9535 90.0285 49.6259C90.0285 49.6259 101.229 58.0346 110.975 80.2345C111.429 81.2641 111.867 82.3094 112.321 83.3858Z" fill="#F7D7BC"/>
<path d="M141.777 76.8335C141.652 77.1143 133.846 94.4311 122.395 105.055C121.926 105.492 121.456 105.913 120.987 106.319C120.987 106.319 116.059 107.208 114.307 107.817C106.235 110.625 101.261 103.651 102.481 97.832C102.934 95.6791 104.155 93.1674 105.844 90.4997C107.502 87.8788 109.614 85.1175 111.914 82.3873C120.314 72.3873 131.187 62.8552 131.187 62.8552C130.983 63.292 130.921 63.8225 130.936 64.4465C130.952 64.8989 131.046 65.3981 131.187 65.9286C131.562 67.3794 132.329 69.0955 133.392 70.9364C133.596 71.2796 133.799 71.6228 134.002 71.9504C134.347 72.4965 134.691 73.0113 135.051 73.5105C135.144 73.6509 135.254 73.7757 135.348 73.9161C135.41 73.9941 135.457 74.0565 135.52 74.1345C135.661 74.3218 135.817 74.509 135.958 74.6806C136.114 74.8834 136.286 75.0706 136.443 75.2578C137.773 76.7399 139.102 77.6915 140.213 77.6915C140.244 77.6915 140.291 77.6915 140.322 77.6915C140.354 77.6915 140.385 77.6915 140.416 77.6915C140.448 77.6915 140.463 77.6915 140.495 77.6915C140.51 77.6915 140.541 77.6915 140.557 77.6915C140.573 77.6915 140.588 77.6915 140.604 77.6915H140.635C140.667 77.6915 140.698 77.6915 140.729 77.6603C140.776 77.6603 140.807 77.6291 140.854 77.6135C140.886 77.6135 140.933 77.5823 140.964 77.5667C141.011 77.5511 141.058 77.5199 141.105 77.4887C141.371 77.3327 141.605 77.1299 141.777 76.8647V76.8335Z" fill="#F7D7BC"/>
<path d="M198.751 203.714C198.751 203.714 173.158 214.12 158.25 198.784C143.357 183.449 156.357 176.85 157.421 176.85C158.485 176.85 186.737 181.218 187.926 181.92C189.115 182.622 198.751 203.714 198.751 203.714Z" fill="#DFCCBD"/>
<path d="M100.166 113.339L180.573 127.661L167.495 147.458L76.9974 139.377L100.166 113.339Z" fill="white"/>
<path d="M167.558 147.598H167.48L76.7315 139.486L100.103 113.199H100.166L180.761 127.583L167.542 147.598H167.558ZM77.2634 139.283L167.433 147.333L180.354 127.754L100.212 113.464L77.2634 139.268V139.283Z" fill="black"/>
<path d="M183.217 229.674C183.217 230.782 182.497 231.92 181.449 232.498C180.777 232.872 180.088 233.153 179.369 233.356C176.741 234.089 173.894 233.683 171.547 232.154L158 222.669C156.232 221.421 155.199 219.346 155.372 217.193C155.622 214.136 158.094 212.669 158.062 208.551C144.828 167.115 137.898 180.391 132.657 141.686C131.75 120.765 147.894 108.441 147.894 108.441L159.72 123.807C159.72 123.807 159.017 179.814 167.527 207.396C170.827 217.318 168.684 216.679 179.181 225.29C180.12 226.055 181.152 226.897 182.294 227.817C182.935 228.332 183.201 229.003 183.201 229.674H183.217Z" fill="url(#paint0_linear_1_1074)"/>
<path d="M210.374 231.374C209.123 230.204 208.028 229.128 207.058 228.129C199.189 220.017 199.596 216.85 194.731 209.112L185.235 147.474L177.054 128.737L161.551 151.218L186.799 210.813C186.643 212.123 186.252 213.246 185.814 214.26C184.813 216.569 183.624 218.254 184.625 220.126C184.907 220.672 185.345 221.125 185.83 221.499L202.959 233.964L203.726 234.526C205.228 235.587 207.12 235.852 208.826 235.275C209.185 235.15 209.529 235.009 209.858 234.807C210.531 234.416 210.984 233.621 210.984 232.825C210.984 232.31 210.797 231.796 210.359 231.39L210.374 231.374Z" fill="url(#paint1_linear_1_1074)"/>
<path d="M90.0285 49.6103C75.2297 56.8959 66.3598 47.0986 64.686 45.0081H64.7173C64.7173 45.0081 64.7485 45.0081 64.7955 45.0081C65.562 45.0081 71.444 44.5089 69.7545 29.1578C69.3008 28.5026 68.8159 27.9565 68.3466 27.5353L68.9097 20.9674H82.0972L82.5352 37.1298L82.7073 43.3232L82.7386 44.6337C82.7386 44.6337 85.3824 47.8007 90.0285 49.6103Z" fill="#FF948C"/>
<path d="M141.793 76.8335C141.605 77.0988 141.386 77.3016 141.105 77.4576C139.838 78.1908 138.132 77.1612 136.443 75.2579C136.286 75.0707 136.114 74.8835 135.958 74.6806C135.082 73.6042 134.206 72.3093 133.408 70.9365C132.344 69.0956 131.562 67.3795 131.202 65.9286C131.062 65.3982 130.983 64.899 130.952 64.4466C130.921 63.8381 130.999 63.3077 131.202 62.8553C131.39 62.4341 131.687 62.1065 132.094 61.8568C132.845 61.4356 133.486 61.3732 134.534 61.8256C135.661 62.3249 135.989 63.9317 136.678 65.5386C137.116 66.5371 137.679 67.5355 138.664 68.2375C142.653 71.1081 142.966 75.2111 141.809 76.8335H141.793Z" fill="#D1896D"/>
<path d="M198.751 203.714C191.32 206.398 187.66 204.276 184.234 201.281C180.792 198.27 177.601 194.354 171.093 193.511C169.592 193.309 167.918 193.277 166.025 193.465L152.79 114.541C152.79 114.541 154.934 114.931 158.485 115.726C162.802 116.693 169.185 118.269 176.287 120.5C191.242 140.563 196.827 183.589 198.751 203.73V203.714Z" fill="#F7D7BC"/>
<path d="M171.954 196.975C170.64 196.865 169.435 196.803 168.309 196.803C158.891 196.803 155.434 200.438 151.523 203.34C151.101 203.652 150.663 203.964 150.209 204.26C149.865 204.494 149.505 204.713 149.145 204.915C146.846 206.226 144.061 207.1 139.838 206.85C124.178 176.928 132.532 170.235 123.506 158.472C117.061 150.095 104.233 151.935 83.5052 148.472C81.9095 148.207 80.3608 147.801 78.8747 147.271C78.1081 147.006 77.3416 146.694 76.6064 146.35C76.2779 146.194 75.9493 146.038 75.6208 145.882C68.9254 142.481 63.8256 136.397 61.7919 128.94C51.5298 91.2954 54.5646 47.5041 54.5646 47.5041C61.1036 46.2249 64.7173 44.9924 64.7173 44.9924C64.7173 44.9924 77.6232 49.501 90.0285 49.5946C97.381 53.8224 100.963 68.5027 102.715 81.7945C103.013 84.0254 103.247 86.2095 103.451 88.3C103.56 89.3921 103.654 90.4685 103.732 91.5138C103.779 92.0754 103.857 92.6214 103.951 93.1675C105.297 100.141 111.523 105.274 118.813 105.102C128.074 104.884 140.01 105.102 149.067 107.021C152.055 107.754 154.183 109.782 156.185 112.31C157.03 113.386 157.812 114.509 158.5 115.695C161.128 120.126 162.63 125.165 162.927 130.328C163.037 132.216 163.162 134.338 163.303 136.615C164.398 153.589 168.371 183.418 171.954 196.959V196.975Z" fill="#F8E8D9"/>
<path d="M96.2859 83.1363C93.1416 113.589 80.5642 148.238 71.8507 147.458C69.864 147.037 68.3466 146.226 67.189 145.212C63.1373 141.67 63.4032 135.711 63.4032 135.711C63.4032 135.711 58.8979 128.566 59.8991 121.389C96.724 101.576 90.0129 49.6103 90.0129 49.6103C90.0129 49.6103 94.5651 48.6431 95.7228 55.289C97.3184 63.0893 97.3341 72.871 96.2703 83.1363H96.2859Z" fill="#C83D3A"/>
<path d="M176.303 120.484C176.303 120.484 188.88 186.865 183.843 203.823C188.505 210.438 193.855 210.126 198.767 208.55C201.082 200.095 189.991 135.913 176.303 120.484Z" fill="#F8E8D9"/>
<path d="M140.135 55.3981C139.838 55.3201 139.634 55.0393 139.681 54.7273L140.025 52.1688C140.072 51.8099 140.416 51.5759 140.776 51.6539L141.308 51.7787C141.668 51.8723 141.856 52.2312 141.73 52.5744L140.854 55.0081C140.745 55.3045 140.432 55.4605 140.135 55.3981Z" fill="url(#paint2_linear_1_1074)"/>
<path d="M141.339 56.1314C141.011 55.9754 140.854 55.601 140.964 55.2577L141.934 52.4184C142.075 52.0128 142.528 51.8256 142.904 52.0128L143.482 52.278C143.858 52.4496 144.014 52.9176 143.795 53.2921L142.247 55.8662C142.059 56.1782 141.668 56.2874 141.339 56.147V56.1314Z" fill="url(#paint3_linear_1_1074)"/>
<path d="M142.747 56.849C142.481 56.6773 142.387 56.3341 142.528 56.0533L143.701 53.7288C143.874 53.4012 144.28 53.292 144.578 53.4948L145.047 53.7912C145.36 53.994 145.422 54.4152 145.188 54.6961L143.545 56.7085C143.342 56.9582 142.998 57.005 142.732 56.8334L142.747 56.849Z" fill="url(#paint4_linear_1_1074)"/>
<path d="M144.014 57.9723C143.78 57.8006 143.701 57.4886 143.842 57.239L144.703 55.5385C144.859 55.2421 145.25 55.1485 145.532 55.3357L145.954 55.6321C146.236 55.8194 146.283 56.2094 146.064 56.4746L144.781 57.8942C144.593 58.1127 144.265 58.1595 144.03 57.9878L144.014 57.9723Z" fill="url(#paint5_linear_1_1074)"/>
<path d="M142.434 62.8397L141.23 65.1174L136.099 74.8523C135.16 73.7446 134.237 72.3874 133.392 70.9209C132.61 69.5792 131.985 68.3 131.578 67.1455C131.5 66.9271 131.421 66.7087 131.359 66.5059C131.327 66.4279 131.312 66.3499 131.296 66.2875C131.265 66.1627 131.234 66.0379 131.202 65.9287L131.265 65.8507L134.832 61.9505C135.379 61.3576 135.833 60.6712 136.193 59.9692C136.193 59.9692 135.489 57.4263 135.848 55.1174C136.021 54.3685 136.599 53.7445 137.272 53.2609C137.976 52.746 139.04 52.3092 139.65 52.0752C139.884 51.9816 140.135 52.1688 140.103 52.434C140.103 52.5744 140.072 52.746 140.057 52.9021C140.01 53.2609 139.838 53.5885 139.587 53.8225C139.071 54.3061 138.367 54.9926 137.882 55.523L137.96 55.757C138.258 56.693 138.852 57.5043 139.665 58.0503C140.604 58.6743 141.777 59.8444 141.809 61.8725C141.809 62.2937 142.059 62.6837 142.434 62.8709V62.8397Z" fill="url(#paint6_linear_1_1074)"/>
<path d="M141.777 76.8335C141.652 77.1143 133.846 94.4311 122.395 105.055C125.915 100.703 134.55 87.4888 138.32 79.1112C130.639 73.6197 130.921 64.4309 130.921 64.4309C130.936 64.8833 131.03 65.3826 131.171 65.913C131.546 67.3638 132.313 69.0799 133.377 70.9208C133.58 71.264 133.784 71.6072 133.987 71.9349C134.331 72.4809 134.675 72.9957 135.035 73.4949C135.129 73.6353 135.238 73.7601 135.332 73.9005C135.395 73.9786 135.442 74.041 135.504 74.119C135.645 74.3062 135.802 74.4934 135.942 74.665C136.099 74.8678 136.271 75.055 136.427 75.2422C137.757 76.7243 139.087 77.6759 140.197 77.6759C140.244 77.6759 140.276 77.6759 140.307 77.6759C140.338 77.6759 140.369 77.6759 140.401 77.6759C140.432 77.6759 140.448 77.6759 140.479 77.6759C140.495 77.6759 140.526 77.6759 140.542 77.6759C140.573 77.6759 140.604 77.6759 140.635 77.6603C140.667 77.6603 140.698 77.6603 140.729 77.6291C140.776 77.6291 140.807 77.5979 140.854 77.5823C140.886 77.5823 140.933 77.5511 140.964 77.5355C141.011 77.5199 141.058 77.4887 141.105 77.4575C141.371 77.3015 141.605 77.0987 141.777 76.8335Z" fill="#F4C3AB"/>
<path d="M111.914 82.3874C109.614 85.1175 107.502 87.8788 105.844 90.4998C106.767 87.8476 110.005 81.9974 110.991 80.2345C111.304 80.9365 111.617 81.6542 111.914 82.3874Z" fill="#F4C3AB"/>
<path d="M90.0285 49.6103C87.5099 55.3982 60.6499 47.7538 61.041 46.0533C61.4947 44.1189 64.7173 45.0081 64.7173 45.0081C64.7173 45.0081 78.7026 49.1111 90.0285 49.6103Z" fill="#F7D7BC"/>
<path d="M95.9574 30.6397C95.9574 30.7645 95.9574 30.8894 95.9574 30.9986C95.9574 31.2326 95.9574 31.4822 95.9574 31.7318C95.9574 31.8566 95.9574 31.9658 95.9574 32.0906C95.8792 34.9767 95.4725 38.6585 94.487 40.8738L90.2632 41.7007C90.2632 41.7007 87.5882 40.8582 84.8193 39.8286C84.1153 39.5634 83.3644 39.2201 82.5979 38.7989C79.4692 37.1296 76.1371 34.4151 75.7773 32.4494C75.4488 30.6241 75.3236 29.4697 75.1672 28.7677C74.8543 28.7677 74.5258 28.7365 74.2129 28.6428C73.9783 30.0157 73.8688 31.4354 73.8688 32.8706C73.8688 33.0422 73.8688 33.2139 73.8688 33.3855C73.8688 33.5103 73.8688 33.6507 73.8688 33.7755C73.8688 34.1811 73.9001 34.5867 73.9314 35.0079C69.5355 31.451 66.1878 26.4743 66.1878 20.9829C66.1878 10.1404 67.893 1.35718 81.3307 1.35718C84.1935 1.35718 86.8686 2.38683 89.1525 4.16531C89.4341 4.38372 89.7157 4.61773 89.9816 4.86734C89.9816 4.86734 90.0129 4.88294 90.0129 4.89854C90.0129 4.89854 90.0129 4.89854 90.0285 4.91414C92.0935 6.80183 93.783 9.32915 94.9093 12.2933C95.144 12.9173 95.363 13.5725 95.5507 14.2278C95.5507 14.2278 96.0357 18.6428 95.5664 20.8893C95.5664 20.9205 95.5664 20.9517 95.5507 20.9829C95.5507 20.9829 95.5507 21.0141 95.5507 21.0609C95.6133 21.7161 95.9731 25.2887 95.9418 30.6397H95.9574Z" fill="url(#paint7_linear_1_1074)"/>
<path d="M90.2475 6.89549C90.2319 7.42592 90.138 8.01875 89.9346 8.65838C89.8408 8.93919 89.7156 13.2294 85.6639 16.5991C82.942 18.8612 79.2814 17.3324 77.3572 20.3901C76.0588 22.4494 75.0576 24.7583 74.4632 27.2544C74.3537 27.7069 74.2598 28.1749 74.1816 28.6273C73.9 30.281 73.7905 32.0127 73.8531 33.7599C73.8531 34.1656 73.8844 34.5712 73.9157 34.9924C73.9626 35.5228 74.0252 36.0688 74.1034 36.6149C74.2755 37.8941 74.2285 38.9706 73.9782 39.9066C72.3982 45.9285 63.1842 45.8193 60.2745 47.5042C56.9111 49.4543 54.1579 51.42 50.7945 49.5947C47.4312 47.7694 45.1628 36.5993 53.2036 36.5993C59.0856 36.5993 65.7497 30.3122 62.4177 22.309C58.3973 12.6522 73.4776 -8.17481 88.2921 3.38533C88.8552 3.82215 89.4184 4.30577 89.9816 4.8518C89.9816 4.8518 90.0129 4.8674 90.0129 4.883C90.0129 4.883 90.0129 4.883 90.0285 4.8986C90.0285 4.8986 90.3101 5.69424 90.2475 6.87989V6.89549Z" fill="#6B222F"/>
<path d="M78.421 25.476C78.3428 25.8816 78.2333 26.256 78.0769 26.5992C77.7327 27.4105 77.1852 28.0501 76.4969 28.4245C76.4186 28.4713 76.3248 28.5025 76.2466 28.5493C76.1371 28.5961 76.0275 28.6273 75.918 28.6585C75.6677 28.7365 75.4018 28.7677 75.1515 28.7677C74.9012 28.7677 74.6353 28.7365 74.3693 28.6897C74.3068 28.6897 74.2442 28.6585 74.1816 28.6429C73.7592 28.5181 73.3369 28.3153 72.9301 28.0345C71.8977 27.3013 71.0216 26.0688 70.5836 24.5555C69.7545 21.685 70.8026 18.8613 72.9145 18.2528C73.4464 18.0968 73.9939 18.1124 74.5258 18.2528C75.5895 18.518 76.5907 19.2981 77.326 20.4213C77.7014 20.983 78.0143 21.6538 78.2176 22.387C78.5305 23.4791 78.5774 24.5555 78.3897 25.4916L78.421 25.476Z" fill="url(#paint8_linear_1_1074)"/>
<path d="M77.1226 23.7599C77.7014 25.788 76.9661 27.7849 75.4644 28.2218C73.9626 28.6586 72.2887 27.3481 71.6943 25.3044C71.1155 23.2763 71.8507 21.2794 73.3525 20.8426C74.8543 20.4214 76.5281 21.7163 77.1226 23.7599Z" fill="#FF948C"/>
<path d="M95.5507 14.2278C95.5507 14.2278 95.5507 14.2278 95.5507 14.1966C93.564 10.156 89.9347 8.65836 89.9347 8.65836C89.966 8.56475 89.9973 8.47115 90.0129 8.37755C90.0442 8.28394 90.0598 8.19034 90.0755 8.09673C90.0911 8.01873 90.1068 7.95633 90.1224 7.87832C90.185 7.53511 90.2319 7.20749 90.2319 6.89548C90.2945 5.70982 90.0129 4.91418 90.0129 4.91418C91.2331 6.02184 92.3125 7.3479 93.2198 8.86117C93.8612 9.92202 94.4244 11.0765 94.8937 12.2933C95.0501 12.6989 95.1909 13.1046 95.3161 13.5258C95.3161 13.5258 95.3161 13.557 95.3161 13.5726C95.3474 13.6818 95.3786 13.791 95.4099 13.869C95.4256 13.9314 95.4412 13.9782 95.4569 14.0406C95.4569 14.0718 95.4881 14.1186 95.4881 14.1654C95.4881 14.181 95.4881 14.2122 95.5038 14.2278H95.5507Z" fill="#5E1928"/>
<path d="M184.25 201.281C180.808 198.27 177.617 194.354 171.109 193.511C167.761 178.847 164.32 152.279 163.303 136.647C163.162 134.369 163.021 132.247 162.927 130.36C162.63 125.18 161.128 120.157 158.5 115.726C158.719 115.898 165.759 121.436 165.759 129.611C165.759 137.786 172.032 185.446 174.973 192.763C181.59 194.759 184.265 201.296 184.265 201.296L184.25 201.281Z" fill="#F4C3AB"/>
<path d="M87.3691 20.0781C87.7602 19.5321 88.2608 19.0797 88.824 18.7208C89.3872 18.3464 90.0129 18.0656 90.6699 17.894C91.327 17.7224 92.0309 17.6912 92.7192 17.8004C93.3919 17.9096 94.0333 18.1748 94.5652 18.5804C93.9238 18.4244 93.298 18.3152 92.6723 18.3152C92.0466 18.3152 91.4365 18.3776 90.842 18.5336C90.2476 18.674 89.6531 18.908 89.0743 19.1577C88.4955 19.4229 87.9323 19.7349 87.3691 20.0625V20.0781Z" fill="#5E1928"/>
<path opacity="0.75" d="M88.7927 20.8738C89.1212 20.7178 89.4654 20.5618 89.8252 20.437C90.1694 20.3122 90.5292 20.1874 90.889 20.0938C91.2488 19.9845 91.6086 19.9065 91.984 19.8441C92.3595 19.7817 92.7193 19.7193 93.0947 19.7037C93.0947 19.7037 93.126 19.7037 93.1416 19.7037C93.7674 19.9533 94.3775 20.2186 94.9876 20.515C94.3305 20.3434 93.7048 20.1562 93.0634 19.9377H93.1103C91.6555 20.1094 90.2319 20.515 88.7927 20.8738Z" fill="#D35850"/>
<path d="M95.9731 30.6399C96.0043 25.2888 95.6445 21.7162 95.582 21.061C95.582 21.0142 95.582 20.983 95.582 20.983C95.582 20.9518 95.582 20.9206 95.5976 20.8894C96.0982 22.8083 96.9742 26.4277 97.2402 29.033C97.3184 29.813 96.7709 30.5307 96.0043 30.6399H95.9731Z" fill="#FF948C"/>
<path d="M96.1921 31.3731C96.1921 31.3731 96.6301 40.9831 94.7059 43.7289C91.9683 44.6025 84.741 44.1813 78.4679 38.0034C76.6063 36.1625 75.3392 33.8068 74.8073 31.2483C74.557 30.0158 74.4163 29.2358 74.3693 28.6741C74.6196 28.7366 74.8856 28.7678 75.1359 28.7522C75.4018 28.7522 75.6521 28.7054 75.9024 28.6429C76.0119 28.6117 76.1214 28.5649 76.2309 28.5337C76.3248 28.5025 76.403 28.4557 76.4812 28.4089C76.9192 29.9222 77.8735 32.9331 82.6291 32.9955C88.7144 33.0736 89.4028 30.2498 92.6723 30.1718C95.1439 30.0938 96.1921 31.3731 96.1921 31.3731Z" fill="#6B222F"/>
<path d="M92.7035 36.6461C91.061 36.6461 90.2006 36.0377 90.1537 36.0065C90.0754 35.9441 90.0598 35.8348 90.1067 35.7568C90.1693 35.6788 90.2788 35.6632 90.357 35.71C90.357 35.71 91.6241 36.5993 93.9707 36.1625C94.0645 36.1625 94.1584 36.2093 94.174 36.3029C94.1897 36.3965 94.1271 36.4901 94.0332 36.5057C93.5483 36.5993 93.0946 36.6305 92.6879 36.6305L92.7035 36.6461Z" fill="url(#paint9_linear_1_1074)"/>
<path d="M154.308 211.905C150.804 215.399 143.842 216.117 140.698 216.257C139.697 216.304 139.087 216.288 139.087 216.288C139.087 216.288 128.543 192.279 125.273 169.736C123.365 156.585 106.454 153.449 86.4305 148.925C86.4305 148.925 94.9406 147.349 105.391 147.942C113.009 148.379 121.66 149.97 128.793 154.182C145.688 164.166 145.094 201.702 154.308 211.889V211.905Z" fill="#F8E8D9"/>
<path d="M151.523 203.355C151.101 203.667 150.663 203.979 150.209 204.276C144.765 189.346 142.732 162.419 128.809 154.182C121.675 149.97 113.025 148.378 105.406 147.942C113.4 148.238 122.817 149.736 130.467 154.26C144.093 162.31 146.345 188.238 151.523 203.34V203.355Z" fill="#DFCCBD"/>
<path d="M101.261 49.6259L97.0681 50.8271L97.9911 52.3872C97.9911 52.3872 99.7588 52.4964 100.682 52.4964C101.605 52.4964 102.027 52.3716 102.168 52.278C102.293 52.1844 101.261 49.6259 101.261 49.6259Z" fill="#472B28"/>
<path d="M111.069 86.5372L105.375 87.8788L95.4099 90.2189L86.7277 92.247L80.7206 77.2547L79.6256 74.5558L74.3224 61.3108L97.1776 50.2499L111.069 86.5372Z" fill="#946761"/>
<path d="M94.0489 64.3842L89.5435 66.1938L87.9166 62.0284L85.7109 62.9957L87.3221 67.0831L83.2079 68.7524L84.0839 70.9677L88.2295 69.3764L91.6867 78.144L93.955 77.4264L90.4665 68.5183L94.9718 66.7711L94.0489 64.3842Z" fill="#F4D5B5"/>
<path d="M97.1776 50.2499L97.8659 50.3123L111.429 86.0379L111.069 86.5372L97.1776 50.2499Z" fill="#A98581"/>
<path d="M97.991 50.6399C97.991 50.6399 100.541 51.5759 101.48 50.2343C103.044 54.1188 113.04 83.9162 113.04 83.9162C113.04 83.9162 112.555 85.3983 111.288 85.6947L97.991 50.6399Z" fill="#F9EDE1"/>
<path d="M113.181 84.3063L101.261 49.6259L101.824 49.4855L113.619 83.8383L113.181 84.3063Z" fill="#A98581"/>
<path d="M100.4 76.6151C98.9453 77.1143 97.2402 77.5667 95.7541 77.6603L63.7474 110.703L55.3937 96.3656L90.4822 71.2484L90.7794 71.0144C92.6566 69.5323 94.7998 68.4403 97.0681 67.8007C97.0681 67.8007 98.961 74.4934 100.4 76.6151Z" fill="url(#paint10_linear_1_1074)"/>
<path d="M93.9081 89.3919C89.4341 98.8771 81.7375 108.643 58.9605 112.403C57.7716 111.779 56.6765 111.171 55.6597 110.546C54.1266 109.61 52.7813 108.659 51.608 107.645C51.608 107.645 51.5924 107.645 51.5924 107.629C49.3553 105.663 47.7441 103.417 46.5864 100.422C44.1304 94.0721 43.6454 84.3061 43.2544 66.5836C43.1605 62.309 43.9896 58.3933 45.6947 55.1951C47.6033 51.5913 50.5912 48.8924 54.5803 47.5352C57.4587 48.3152 60.0712 50.0001 62.1361 52.7614C66.6414 58.7989 68.4874 69.9534 64.6234 87.8474C74.2598 80.8115 77.2008 79.4386 83.8963 75.3825C85.4606 74.4464 87.2127 73.3544 89.3089 72.0127C89.7 71.7631 90.0911 71.5135 90.4978 71.2483C90.4978 71.2483 94.8311 80.8115 93.9394 89.3919H93.9081Z" fill="#F8E8D9"/>
<path d="M64.6078 87.8321C64.9206 85.3359 64.9676 82.9958 64.7955 80.8273C63.3094 62.0597 45.6791 55.1797 45.6791 55.1797C45.6791 55.1797 45.3506 54.3841 45.6322 53.4481C45.8668 52.6992 46.5082 51.8724 48.0413 51.2796C48.0413 47.9566 51.7644 47.5042 54.549 47.5198C58.1314 47.7538 61.0254 49.0487 63.2937 51.0456C72.9458 59.5636 71.3501 80.9209 64.5921 87.8321H64.6078Z" fill="#C83D3A"/>
<path opacity="0.5" d="M48.9955 51.7476C51.8113 52.6993 54.3925 54.2749 56.6608 56.1782C57.8028 57.1299 58.8353 58.2063 59.7895 59.3452C60.0242 59.6416 60.2588 59.9224 60.4779 60.2188L61.1349 61.1237L61.745 62.0597C61.9484 62.3717 62.1204 62.6993 62.3082 63.0114C63.0278 64.3062 63.6691 65.6635 64.1384 67.0675L64.3262 67.598L64.4826 68.1284C64.5921 68.4872 64.7016 68.8304 64.7955 69.1892C64.9675 69.9069 65.1709 70.6245 65.2648 71.3577L65.4525 72.4498L65.5776 73.5574C65.6872 74.2907 65.7028 75.0395 65.7497 75.7727C65.781 76.506 65.7497 77.2548 65.7654 77.9881C65.7497 78.7213 65.6872 79.4701 65.6559 80.2034C65.7497 77.2548 65.5776 74.2907 64.9988 71.4045C64.8737 70.6713 64.6547 69.9693 64.4982 69.2516C64.4044 68.8928 64.2792 68.5496 64.1854 68.1908L64.0289 67.6604L63.8412 67.1455C63.3563 65.7571 62.7149 64.431 61.9953 63.1518C60.5874 60.5776 58.6632 58.2999 56.4575 56.3498C55.3468 55.3826 54.1735 54.4934 52.922 53.7133C51.6706 52.9333 50.3565 52.2313 48.9799 51.7164L48.9955 51.7476Z" fill="#AE2C2C"/>
<path d="M164.695 226.07C164.695 226.07 168.856 219.284 174.519 221.312L175.458 222.154C175.458 222.154 168.137 222.7 166.572 227.63L164.679 226.07H164.695Z" fill="#7B504A"/>
<path d="M169.2 229.565C166.338 227.599 163.647 225.103 161.222 223.137C161.144 223.075 161.081 223.028 161.019 222.966C158.766 220.984 160.158 217.318 163.146 217.162C167.057 216.975 169.701 214.526 169.701 214.526C169.701 214.526 169.951 213.449 169.013 212.217C165.712 216.772 157.014 213.184 156.858 213.122C153.87 217.069 154.98 220.204 155.716 221.062C156.811 222.342 170.859 232.856 174.879 233.714C178.899 234.573 182.372 233.262 182.763 231.234C178.18 234.307 173.502 232.544 169.2 229.58V229.565Z" fill="#7B504A"/>
<path d="M193.667 226.335C193.667 226.335 196.749 221.873 202.146 222.326C203.037 223.527 203.663 224.323 203.663 224.323C203.663 224.323 198.423 224.104 195.169 227.427L193.683 226.351L193.667 226.335Z" fill="#7B504A"/>
<path d="M203.006 232.685C197.969 229.643 191.461 224.728 188.771 222.669C188.739 222.638 188.692 222.607 188.661 222.591C186.674 221.031 187.988 217.849 190.507 218.161C195.497 218.8 199.08 217.146 199.08 217.146C199.08 217.146 198.845 215.446 197.969 214.931C191.524 217.693 185.83 214.245 185.83 214.245C184.828 216.554 183.639 218.239 184.641 220.111C184.922 220.657 185.36 221.109 185.845 221.483L202.975 233.948L203.741 234.51C205.243 235.571 207.152 235.836 208.857 235.259C207.762 235.306 205.587 234.245 203.006 232.7V232.685Z" fill="#7B504A"/>
<path d="M180.573 134.977C181.731 137.786 182.748 140.64 183.765 143.495C184.25 144.931 184.734 146.366 185.204 147.817C185.657 149.268 186.127 150.703 186.565 152.154C188.332 157.957 189.866 163.839 191.227 169.751C191.571 171.234 191.899 172.716 192.196 174.198L193.104 178.659L193.902 183.137C194.027 183.886 194.183 184.635 194.293 185.383L194.621 187.63C194.84 189.128 195.075 190.625 195.263 192.138L195.794 196.663C195.873 197.412 195.967 198.176 196.029 198.925L196.201 201.187C196.326 202.7 196.436 204.213 196.545 205.727C196.358 204.229 196.186 202.716 196.013 201.218L195.763 198.956C195.669 198.207 195.544 197.458 195.45 196.709L194.825 192.216C194.59 190.719 194.324 189.221 194.089 187.739C193.62 184.744 193.026 181.78 192.478 178.8L191.539 174.354C191.383 173.62 191.242 172.872 191.07 172.138L190.554 169.923C189.912 166.959 189.162 164.026 188.442 161.093L187.269 156.709L186.049 152.325C185.642 150.859 185.204 149.424 184.781 147.957C184.343 146.506 183.89 145.055 183.452 143.62C182.544 140.734 181.59 137.848 180.589 134.993L180.573 134.977Z" fill="#DFCCBD"/>
<path d="M102.481 125.96C103.028 126.834 103.701 127.629 104.405 128.378C105.109 129.127 105.875 129.829 106.689 130.469C108.3 131.748 110.099 132.809 111.976 133.636C112.915 134.057 113.885 134.4 114.87 134.712C115.856 134.993 116.857 135.274 117.858 135.445C119.876 135.835 121.941 136.007 123.991 136.023L125.539 135.991H127.119L128.699 136.194C129.216 136.319 129.732 136.413 130.248 136.553C132.282 137.13 134.175 138.16 135.833 139.47C137.491 140.765 138.915 142.341 140.15 144.041C141.386 145.726 142.45 147.536 143.373 149.408C145.188 153.168 146.533 157.115 147.581 161.14C148.614 165.165 149.411 169.237 149.943 173.34C150.491 177.443 150.835 181.577 151.038 185.711C151.21 189.845 151.273 193.979 151.163 198.114C151.117 193.979 150.991 189.845 150.694 185.727C150.428 181.608 150.006 177.489 149.411 173.418C148.801 169.346 148.035 165.274 146.971 161.296C145.923 157.318 144.562 153.402 142.763 149.72C141.856 147.879 140.823 146.101 139.619 144.447C138.43 142.793 137.053 141.249 135.457 139.985C133.862 138.722 132.063 137.723 130.107 137.146C129.622 137.021 129.122 136.912 128.621 136.803L127.104 136.616L125.571 136.584H124.006C121.926 136.553 119.829 136.35 117.78 135.913C116.748 135.711 115.746 135.43 114.745 135.118C113.76 134.775 112.774 134.416 111.836 133.979C109.943 133.09 108.159 131.982 106.579 130.64C104.984 129.299 103.545 127.77 102.481 125.991V125.96Z" fill="#DFCCBD"/>
<path d="M74.3224 233.964L65.7654 207.162L90.4666 194.354L128.778 214.167L136.427 231.686L104.295 241L74.3224 233.964Z" fill="#B28E90"/>
<path d="M74.3224 233.964L73.0084 211.359L92.0779 204.947L123.334 218.317L136.427 231.686L128.778 214.167L90.4666 194.354L65.7654 207.162L74.3224 233.964Z" fill="#C0979D"/>
<path d="M22.777 231.062L28.0176 216.304L42.0811 219.518L47.1809 232.841L33.3989 238.083L22.777 231.062Z" fill="#B28E90"/>
<path d="M28.0176 216.304L32.2883 224.276L41.3928 222.295L42.0811 219.518L28.0176 216.304Z" fill="#C0979D"/>
<path d="M32.2883 224.276L33.399 238.083L36.1679 237.022L33.2269 224.65L42.0811 222.919V219.518L41.3928 222.295L32.2883 224.276Z" fill="#896064"/>
<path opacity="0.75" d="M82.6917 43.3388C77.2322 41.8568 73.8531 33.7756 73.8531 33.7756C73.8531 33.6508 73.8531 33.5104 73.8531 33.3856C73.8531 33.214 73.8531 33.0423 73.8531 32.8707C73.8531 31.4355 73.9627 30.0158 74.1973 28.6429C74.5102 28.7365 74.8387 28.7834 75.1516 28.7678C75.3236 29.4698 75.4331 30.6242 75.7617 32.4495C76.1215 34.4152 79.4535 37.1297 82.5822 38.799L82.7074 43.3388H82.6917Z" fill="#D35850"/>
<path d="M79.2971 73.7135C78.202 67.0832 82.3319 60.7181 88.8397 59.002L99.4616 56.1939L97.1777 50.25L74.3224 61.3265L79.2971 73.7135Z" fill="#A98581"/>
<path d="M96.4737 99.4078C95.1283 122.653 81.581 143.371 78.8747 147.286C78.1082 147.021 77.3416 146.709 76.6064 146.366C76.2779 146.21 75.9494 146.054 75.6208 145.898C83.0985 139.455 91.8588 114.478 95.4099 90.219L103.451 88.3313C103.56 89.4233 103.654 90.4998 103.732 91.5451C103.779 92.1067 103.857 92.6527 103.951 93.1987C103.936 93.1987 103.92 93.1987 103.904 93.1987C100.087 92.7151 96.6927 95.5856 96.4737 99.4234V99.4078Z" fill="#DFCCBD"/>
<path d="M64.7799 80.8274L64.5922 87.8321C64.5922 87.8321 59.0387 60.562 45.507 58.0659C45.2567 77.2236 42.6286 81.0926 46.5708 100.391C44.1148 94.0412 43.6298 84.2751 43.2387 66.5527C43.1449 62.2781 43.974 58.3623 45.6791 55.1642C45.9764 55.2734 63.3094 62.2157 64.7799 80.8118V80.8274Z" fill="#DFCCBD"/>
<path d="M93.9081 89.3922C89.4341 98.8774 81.7374 108.644 58.9604 112.403C57.7715 111.779 56.6765 111.171 55.6597 110.547C53.7199 109.112 51.8426 107.801 51.608 107.645C51.608 107.645 51.5923 107.645 51.5923 107.629C51.9834 107.676 82.7386 110.952 92.1404 88.347C90.4509 76.5684 89.6374 73.0738 89.2933 72.0286C89.6844 71.779 90.0754 71.5294 90.4822 71.2642C90.4822 71.2642 94.8154 80.8274 93.9237 89.4078L93.9081 89.3922Z" fill="#DFCCBD"/>
<path d="M64.6078 87.8321C71.3658 80.9365 72.9614 59.5948 63.325 51.0612C63.7474 51.3264 69.8327 55.367 71.5066 65.1798C73.243 75.3515 70.1143 82.169 70.1143 82.169L79.6412 74.5559L80.7206 77.2548C75.9806 80.0629 72.586 81.9974 64.6078 87.8321Z" fill="#DFCCBD"/>
<path d="M90.4666 194.354L92.0778 204.947L123.334 218.317L128.778 214.167L90.4666 194.354Z" fill="#CDACB1"/>
<path d="M73.0084 211.359L103.951 237.568L136.427 231.686L104.295 241L74.3224 233.964L73.0084 211.359Z" fill="#966F70"/>
<path d="M90.5292 9.9065C90.9515 16.802 83.3018 20.5774 78.7183 20.8738C79.1407 23.0267 78.4211 25.476 78.4211 25.476C78.6088 24.5244 78.5619 23.4479 78.249 22.3559C78.0456 21.6226 77.7327 20.9674 77.3573 20.3902C79.2815 17.3324 82.9577 18.8457 85.664 16.5992C89.7157 13.2295 89.8408 8.93926 89.9347 8.65845C89.9347 8.65845 93.564 10.1717 95.5507 14.1967V14.2123C95.4412 14.1031 93.6735 12.4338 90.5292 9.8909V9.9065Z" fill="#FF948C"/>
<path d="M141.23 65.1331L136.099 74.8679C135.16 73.7603 134.237 72.403 133.392 70.9365C132.61 69.5949 131.985 68.3156 131.578 67.1611C131.5 66.9427 131.421 66.7243 131.359 66.5215C131.327 66.4435 131.312 66.3655 131.296 66.3031C131.265 66.1783 131.234 66.0535 131.202 65.9443L131.265 65.8663C131.891 67.0519 134.175 71.1705 136.49 72.4342C140.792 65.8351 141.199 65.2111 141.245 65.1487L141.23 65.1331Z" fill="#FF948C"/>
<path d="M100.275 71.8726L108.769 70.0473C109.129 69.9693 109.473 70.2033 109.552 70.5621C109.614 70.8897 109.427 71.2018 109.114 71.311L100.932 74.0879L108.597 72.2938C108.879 72.2314 109.176 72.403 109.254 72.6838C109.333 72.9646 109.192 73.2455 108.91 73.3391C107.831 73.7291 105.125 74.7119 103.06 75.5544C103.06 75.5544 103.044 75.5544 103.028 75.5544C102.324 75.8508 101.683 76.1004 101.182 76.3032C100.838 76.428 100.557 76.5216 100.4 76.584C98.961 74.4623 97.0681 67.7696 97.0681 67.7696L107.596 66.0535C107.909 66.0067 108.206 66.1939 108.269 66.5059C108.347 66.818 108.159 67.13 107.847 67.208L99.0861 69.6417L108.848 68.0348C109.129 67.988 109.411 68.144 109.505 68.4248C109.614 68.7368 109.442 69.0957 109.114 69.1893L100.275 71.857V71.8726Z" fill="#FF948C"/>
</g>
<defs>
<linearGradient id="paint0_linear_1_1074" x1="132.642" y1="171.078" x2="183.217" y2="171.078" gradientUnits="userSpaceOnUse">
<stop offset="0.01" stop-color="#FFBE9E"/>
<stop offset="1" stop-color="#FD9F7C"/>
</linearGradient>
<linearGradient id="paint1_linear_1_1074" x1="161.551" y1="182.138" x2="211" y2="182.138" gradientUnits="userSpaceOnUse">
<stop offset="0.01" stop-color="#FFBE9E"/>
<stop offset="1" stop-color="#FD9F7C"/>
</linearGradient>
<linearGradient id="paint2_linear_1_1074" x1="139.665" y1="53.526" x2="141.762" y2="53.526" gradientUnits="userSpaceOnUse">
<stop offset="0.01" stop-color="#FFBE9E"/>
<stop offset="1" stop-color="#FD9F7C"/>
</linearGradient>
<linearGradient id="paint3_linear_1_1074" x1="140.933" y1="54.0721" x2="143.905" y2="54.0721" gradientUnits="userSpaceOnUse">
<stop offset="0.01" stop-color="#FFBE9E"/>
<stop offset="1" stop-color="#FD9F7C"/>
</linearGradient>
<linearGradient id="paint4_linear_1_1074" x1="142.466" y1="55.1797" x2="145.328" y2="55.1797" gradientUnits="userSpaceOnUse">
<stop offset="0.01" stop-color="#FFBE9E"/>
<stop offset="1" stop-color="#FD9F7C"/>
</linearGradient>
<linearGradient id="paint5_linear_1_1074" x1="143.78" y1="56.6462" x2="146.189" y2="56.6462" gradientUnits="userSpaceOnUse">
<stop offset="0.01" stop-color="#FFBE9E"/>
<stop offset="1" stop-color="#FD9F7C"/>
</linearGradient>
<linearGradient id="paint6_linear_1_1074" x1="131.187" y1="63.4481" x2="142.434" y2="63.4481" gradientUnits="userSpaceOnUse">
<stop offset="0.01" stop-color="#FFBE9E"/>
<stop offset="1" stop-color="#FD9F7C"/>
</linearGradient>
<linearGradient id="paint7_linear_1_1074" x1="66.1878" y1="21.5289" x2="95.9574" y2="21.5289" gradientUnits="userSpaceOnUse">
<stop offset="0.01" stop-color="#FFBE9E"/>
<stop offset="1" stop-color="#FD9F7C"/>
</linearGradient>
<linearGradient id="paint8_linear_1_1074" x1="70.302" y1="23.4479" x2="78.5305" y2="23.4479" gradientUnits="userSpaceOnUse">
<stop offset="0.01" stop-color="#FFBE9E"/>
<stop offset="1" stop-color="#FD9F7C"/>
</linearGradient>
<linearGradient id="paint9_linear_1_1074" x1="90.0754" y1="36.1781" x2="94.1897" y2="36.1781" gradientUnits="userSpaceOnUse">
<stop offset="0.01" stop-color="#FFBE9E"/>
<stop offset="1" stop-color="#FD9F7C"/>
</linearGradient>
<linearGradient id="paint10_linear_1_1074" x1="55.3781" y1="89.2517" x2="100.4" y2="89.2517" gradientUnits="userSpaceOnUse">
<stop offset="0.01" stop-color="#FFBE9E"/>
<stop offset="1" stop-color="#FD9F7C"/>
</linearGradient>
<clipPath id="clip0_1_1074">
<rect width="211" height="241" fill="white"/>
</clipPath>
</defs>
</svg>
