<svg width="32" height="32" viewBox="0 0 32 32" fill="none" xmlns="http://www.w3.org/2000/svg">
<path d="M5.14 16.36L1.56 18.1C1.22 18.27 1 18.62 1 19V30C1 30.55 1.45 31 2 31H5.14V16.36ZM24.86 31V6C24.86 5.62 24.65 5.28 24.31 5.11L16.45 1.11C16.3115 1.03612 16.157 0.997467 16 0.997467C15.843 0.997467 15.6885 1.03612 15.55 1.11L7.69 5.11C7.35 5.28 7.14 5.62 7.14 6V31H24.86ZM12.27 29H9.14V25.44H12.27V29ZM17.73 29H14.27V24.11C14.27 23.16 15.05 22.38 16 22.38C16.95 22.38 17.73 23.16 17.73 24.11V29ZM17 10.26V16C17 16.55 16.55 17 16 17C15.45 17 15 16.55 15 16V10.26H12.37C11.82 10.26 11.37 9.81 11.37 9.26C11.37 8.71 11.82 8.26 12.37 8.26H15V6C15 5.45 15.45 5 16 5C16.55 5 17 5.45 17 6V8.26H19.63C20.18 8.26 20.63 8.71 20.63 9.26C20.63 9.81 20.18 10.26 19.63 10.26H17ZM22.86 29H19.73V25.44H22.86V29ZM30.44 18.1L26.86 16.36V31H30C30.55 31 31 30.55 31 30V19C31 18.62 30.78 18.27 30.44 18.1Z" fill="#3C95E5"/>
</svg>
