<svg width="375" height="812" viewBox="0 0 375 812" fill="none" xmlns="http://www.w3.org/2000/svg">
<g clip-path="url(#clip0_0_715)">
<rect width="375" height="812" fill="#FBFEFF"/>
<path d="M421 -13H-45V826H421V-13Z" fill="#F6FBFF"/>
<path style="mix-blend-mode:screen" d="M320.084 725C393.001 652.098 393.001 533.902 320.084 461C247.167 388.098 128.945 388.098 56.028 461C-16.8891 533.902 -16.8891 652.098 56.028 725C128.945 797.902 247.167 797.902 320.084 725Z" fill="url(#paint0_linear_0_715)"/>
<path style="mix-blend-mode:multiply" d="M114.764 562.723C131.177 561.188 142.15 550.869 146.487 549.06C149.815 556.786 148.468 565.928 148.334 571.053C147.779 592.314 148.869 581.006 145.884 610.63C145.814 611.323 127.112 710.882 129.063 757.648H244.883C244.205 749.209 241.599 717.185 238.99 690.073C238.964 689.797 238.227 689.998 230.224 610.628C227.239 581.004 228.329 592.314 227.774 571.051C227.64 565.925 226.293 556.786 229.621 549.057C233.958 550.867 244.931 561.186 261.344 562.721C283.551 564.798 290.117 557.31 302.983 561.752C305.536 562.633 312.001 565.257 314.703 564.971C317.435 564.684 319.047 556.968 318.72 544.737C318.369 531.698 316.897 529.625 317.906 522.658C321.052 522.375 327.778 521.839 330.476 520.199C338.279 515.457 347.352 516.723 347.429 515.098C347.49 513.79 341.618 513.977 340.427 513.143C341.721 511.367 354.679 511.384 353.301 509.529C351.886 507.623 343.333 510.873 340.751 508.45C342.984 505.423 352.981 506.807 355.565 501.954C352.821 500.541 348.401 504.011 340.26 504.026C340.117 504.026 338.259 503.805 338.325 503.721C340.288 501.208 342.513 500.581 345.426 499.69C353.88 497.107 353.027 495.166 350.384 495.345C343.535 495.81 334.168 502.041 327.74 498.618C332.08 491.968 336.265 489.375 331.854 487.496C329.171 489.814 326.839 494.396 319.808 497.534C313.192 500.488 317.195 506.265 303.678 506.917C292.354 507.461 282.129 513.646 270.65 513.352C253.427 512.913 246.012 498.284 235.72 495.527C230.466 494.119 225.997 491.365 221.138 489.31C219.298 488.531 218.144 487.456 218.398 485.32C218.951 480.664 217.345 476.435 215.994 472.104C213.265 463.366 216.665 455.023 206.921 435.319C204.861 428.733 199.048 423.833 188.055 424.048C177.063 423.835 171.249 428.733 169.189 435.319C159.443 455.021 162.845 463.366 160.116 472.104C158.763 476.433 157.157 480.664 157.712 485.32C157.967 487.456 156.813 488.531 154.972 489.31C150.115 491.365 145.645 494.119 140.391 495.527C130.098 498.284 122.683 512.913 105.461 513.352C93.9811 513.646 83.7563 507.461 72.4325 506.917C58.915 506.268 62.9206 500.488 56.3023 497.534C49.2715 494.396 46.9418 489.814 44.2567 487.496C39.8452 489.373 44.0286 491.968 48.3699 498.618C41.9446 502.041 32.5775 495.81 25.7267 495.345C23.0833 495.168 22.2321 497.107 30.6844 499.69C33.5976 500.581 35.822 501.21 37.7854 503.721C37.849 503.805 35.9931 504.026 35.8505 504.026C27.7098 504.011 23.2895 500.541 20.5452 501.954C23.1293 506.807 33.126 505.423 35.3591 508.45C32.7772 510.873 24.2218 507.623 22.8091 509.529C21.4314 511.384 34.3873 511.367 35.6838 513.143C34.4926 513.977 28.6201 513.793 28.6816 515.098C28.7583 516.725 37.8314 515.457 45.6344 520.199C48.3326 521.839 55.0585 522.375 58.2042 522.658C59.2155 529.625 57.7413 531.7 57.3904 544.737C57.0613 556.968 58.6737 564.684 61.407 564.971C64.1096 565.257 70.5744 562.633 73.1279 561.752C85.9939 557.31 92.5596 564.798 114.766 562.721L114.764 562.723Z" fill="url(#paint1_linear_0_715)"/>
<mask id="mask0_0_715" style="mask-type:luminance" maskUnits="userSpaceOnUse" x="-45" y="360" width="466" height="466">
<path d="M420.731 360.374H-44.6206V825.627H420.731V360.374Z" fill="white"/>
</mask>
<g mask="url(#mask0_0_715)">
<g style="mix-blend-mode:multiply">
<path d="M653.326 844.774C653.549 752.582 653.479 749.643 653.209 745.888C652.312 733.426 638.338 723.792 613.328 720.517C605.946 714.109 587.824 709.709 586.572 704.522C584.994 697.997 575.458 696.506 566.921 688.75C556.93 679.677 534.735 684.43 544.567 695.606C548.926 700.559 537.01 706.608 526.866 707.998C482.358 714.098 478.932 699.004 456.065 697.287C425.562 694.995 426.364 687.2 410.78 689.084C391.289 691.437 389.234 685.053 383.789 680.502C374.012 672.334 354.047 709.095 323.956 697.837C319.964 696.343 308.938 692.689 297.509 687.101C287.704 682.309 283.154 683.759 269.119 678.072C259.879 674.328 255.518 672.718 247.489 672.332C187.645 669.454 198.006 662.381 176.881 660.03C164.649 658.668 150.286 655.115 135.587 651.42C63.4011 633.275 32.7597 683.362 -57.6422 716.532C-71.3813 721.572 -75.9266 716.87 -84.2977 718.585C-88.2903 719.094 -92.1226 719.418 -95.9967 719.596C-99.1775 720.331 -104.241 724.208 -107.503 724.833C-114.786 726.228 -122.023 721.476 -138.714 730.924C-146.267 735.201 -155.755 744.39 -159.835 844.779H653.33L653.326 844.774Z" fill="url(#paint2_linear_0_715)" style="mix-blend-mode:multiply"/>
</g>
<g opacity="0.07">
<path d="M281.292 936.184C317.507 909.819 318.507 849.508 283.524 801.474C248.541 753.44 190.823 735.874 154.607 762.238C118.392 788.603 117.392 848.915 152.375 896.948C187.358 944.982 245.076 962.549 281.292 936.184Z" fill="#3C95E5"/>
<path d="M282.504 819.069C298.109 768.387 283.538 718.923 249.96 708.589C216.381 698.255 176.51 730.963 160.906 781.645C145.301 832.327 159.871 881.79 193.45 892.124C227.028 902.459 266.899 869.751 282.504 819.069Z" fill="#3C95E5"/>
<path d="M327.186 825.334C331.518 799.56 285.332 770.315 224.027 760.014C162.721 749.713 109.511 762.257 105.178 788.032C100.846 813.806 147.032 843.051 208.337 853.352C269.643 863.653 322.853 851.109 327.186 825.334Z" fill="#3C95E5"/>
</g>
<g opacity="0.07">
<path d="M461.602 765.423C478.003 727.906 440.711 675.385 378.306 648.114C315.902 620.843 252.016 629.149 235.614 666.665C219.213 704.182 256.505 756.703 318.91 783.974C381.314 811.245 445.2 802.939 461.602 765.423Z" fill="#3C95E5"/>
<path d="M368.722 757.014C401.174 739.748 407.259 687.756 382.312 640.887C357.366 594.019 310.834 570.022 278.382 587.288C245.929 604.554 239.844 656.546 264.791 703.414C289.738 750.283 336.269 774.28 368.722 757.014Z" fill="#3C95E5"/>
<path d="M329.749 725.511C395.191 714.457 444.778 684.996 440.505 659.709C436.232 634.422 379.716 622.885 314.274 633.939C248.832 644.994 199.245 674.455 203.519 699.741C207.792 725.028 264.307 736.566 329.749 725.511Z" fill="#3C95E5"/>
</g>
<g opacity="0.59">
<path d="M455.494 844.472C473.13 813.331 447.766 765.634 398.841 737.936C349.915 710.239 295.956 713.031 278.32 744.171C260.683 775.312 286.048 823.009 334.973 850.706C383.898 878.404 437.857 875.612 455.494 844.472Z" fill="#3C95E5"/>
<path d="M374.473 832.275C404.757 823.284 419.016 781.352 406.323 738.618C393.629 695.883 358.789 668.529 328.505 677.521C298.222 686.513 283.962 728.445 296.656 771.179C309.349 813.913 344.189 841.267 374.473 832.275Z" fill="#3C95E5"/>
<path d="M352.693 800.631C408.657 795.775 452.492 774.182 450.601 752.402C448.71 730.621 401.81 716.901 345.846 721.757C289.882 726.612 246.047 748.205 247.938 769.986C249.828 791.767 296.729 805.487 352.693 800.631Z" fill="#3C95E5"/>
</g>
<g opacity="0.05">
<path d="M264.989 846.317C279.252 835.149 278.692 810.623 263.741 791.538C248.789 772.453 225.106 766.035 210.844 777.204C196.582 788.372 197.141 812.898 212.093 831.983C227.045 851.068 250.727 857.486 264.989 846.317Z" fill="#3C95E5"/>
<path d="M244.957 753.836C279.791 754.773 267.699 830.899 232.815 829.961C197.982 829.024 210.073 752.897 244.957 753.836Z" fill="#3C95E5"/>
<path d="M191.899 785.713C201.961 761.774 291.606 779.359 281.535 803.313C271.472 827.252 181.827 809.667 191.899 785.713Z" fill="#3C95E5"/>
</g>
<g opacity="0.22">
<path d="M321.668 866.651C349.011 839.636 340.799 787.001 303.326 749.088C265.853 711.176 213.308 702.341 185.964 729.357C158.621 756.372 166.833 809.006 204.306 846.919C241.779 884.832 294.324 893.666 321.668 866.651Z" fill="#3C95E5"/>
<path d="M307.832 763.823C314.487 718.657 294.687 678.332 263.609 673.755C232.53 669.178 201.941 702.082 195.286 747.247C188.631 792.413 208.431 832.738 239.509 837.315C270.588 841.893 301.177 808.989 307.832 763.823Z" fill="#3C95E5"/>
<path d="M347.31 770.535C349.358 748.045 306.306 725.745 251.152 720.726C195.998 715.708 149.627 729.872 147.58 752.362C145.533 774.852 188.584 797.152 243.738 802.171C298.892 807.189 345.263 793.025 347.31 770.535Z" fill="#3C95E5"/>
</g>
<g opacity="0.19">
<path d="M499.719 864.074C533.263 820.667 508.953 745.696 445.422 696.622C381.891 647.547 303.196 642.953 269.653 686.36C236.109 729.767 260.419 804.737 323.95 853.812C387.481 902.886 466.176 907.48 499.719 864.074Z" fill="#3C95E5"/>
<path d="M377.27 833.749C423.891 831.991 459.665 777.045 457.175 711.024C454.684 645.002 414.871 592.907 368.25 594.665C321.63 596.423 285.855 651.369 288.346 717.39C290.836 783.411 330.649 835.507 377.27 833.749Z" fill="#3C95E5"/>
<path d="M516.752 725.017C517.14 692.333 450.794 665.046 368.564 664.071C286.334 663.095 219.359 688.8 218.971 721.484C218.583 754.168 284.929 781.455 367.159 782.431C449.389 783.406 516.364 757.702 516.752 725.017Z" fill="#3C95E5"/>
</g>
<g opacity="0.18">
<path d="M345.12 872.366C360.701 849.978 346.139 812.912 312.594 789.577C279.05 766.242 239.226 765.474 223.645 787.863C208.064 810.251 222.627 847.317 256.171 870.652C289.715 893.987 329.539 894.754 345.12 872.366Z" fill="#3C95E5"/>
<path d="M283.732 859.363C307.094 856.549 322.817 827.585 318.85 794.67C314.884 761.755 292.73 737.354 269.369 740.168C246.007 742.982 230.284 771.946 234.251 804.861C238.217 837.775 260.371 862.177 283.732 859.363Z" fill="#3C95E5"/>
<path d="M274.994 833.987C316.531 833.117 349.925 819.14 349.582 802.768C349.239 786.396 315.289 773.83 273.752 774.699C232.215 775.569 198.82 789.546 199.163 805.918C199.506 822.29 233.457 834.857 274.994 833.987Z" fill="#3C95E5"/>
</g>
<g opacity="0.33">
<path d="M425.966 867.33C439.932 833.285 404.748 786.616 347.381 763.093C290.014 739.57 232.188 748.101 218.222 782.146C204.256 816.192 239.439 862.86 296.806 886.383C354.173 909.906 412 901.376 425.966 867.33Z" fill="#3C95E5"/>
<path d="M342.412 860.888C370.928 844.06 374.168 796.75 349.65 755.218C325.131 713.685 282.138 693.657 253.622 710.485C225.106 727.312 221.865 774.622 246.384 816.154C270.902 857.687 313.896 877.715 342.412 860.888Z" fill="#3C95E5"/>
<path d="M304.652 833.809C363.656 822.684 408.003 795.189 403.704 772.397C399.405 749.605 348.087 740.147 289.083 751.273C230.08 762.398 185.733 789.893 190.032 812.685C194.331 835.477 245.649 844.935 304.652 833.809Z" fill="#3C95E5"/>
</g>
<g opacity="0.19">
<path d="M195.348 771.266C206.763 759.612 202.834 737.258 186.573 721.337C170.311 705.417 147.875 701.957 136.461 713.611C125.046 725.265 128.975 747.619 145.236 763.54C161.498 779.461 183.934 782.92 195.348 771.266Z" fill="#3C95E5"/>
<path d="M166.177 689.395C198.444 687.895 195.461 757.804 163.15 759.306C130.883 760.807 133.867 690.898 166.177 689.395Z" fill="#3C95E5"/>
<path d="M120.608 721.908C127.327 699.502 211.997 709.415 205.274 731.836C198.554 754.242 113.884 744.329 120.608 721.908Z" fill="#3C95E5"/>
</g>
<g opacity="0.09">
<path d="M274.272 891.532C312.567 859.303 308.287 791.223 264.713 739.47C221.139 687.717 154.772 671.889 116.478 704.118C78.183 736.347 82.4627 804.427 126.036 856.18C169.61 907.933 235.977 923.761 274.272 891.532Z" fill="#3C95E5"/>
<path d="M266.853 759.566C280.551 701.901 260.117 647.665 221.212 638.427C182.308 629.19 139.665 668.448 125.966 726.113C112.268 783.779 132.702 838.014 171.607 847.252C210.512 856.49 253.155 817.231 266.853 759.566Z" fill="#3C95E5"/>
<path d="M317.355 767.115C321.221 738.104 267.609 707.027 197.608 697.701C127.607 688.375 67.7258 704.333 63.8593 733.344C59.9928 762.354 113.605 793.432 183.606 802.758C253.607 812.083 313.488 796.125 317.355 767.115Z" fill="#3C95E5"/>
</g>
<g opacity="0.07">
<path d="M296.746 736.784C306.213 705.883 273.827 668.565 224.41 653.431C174.994 638.298 127.259 651.08 117.791 681.982C108.324 712.883 140.71 750.201 190.127 765.334C239.544 780.468 287.279 767.685 296.746 736.784Z" fill="#3C95E5"/>
<path d="M230.855 786.709C264.64 766.955 279.802 730.039 264.719 704.254C249.637 678.47 210.021 673.581 176.236 693.335C142.45 713.089 127.289 750.006 142.371 775.791C157.454 801.575 197.069 806.464 230.855 786.709Z" fill="#3C95E5"/>
<path d="M320.216 746.433C321.752 729.969 273.228 711.98 211.834 706.254C150.441 700.527 99.4262 709.232 97.8899 725.695C96.3536 742.159 144.877 760.148 206.271 765.874C267.665 771.601 318.679 762.897 320.216 746.433Z" fill="#3C95E5"/>
</g>
<g opacity="0.07">
<path d="M193.079 815.998C198.267 789.799 150.374 758.247 86.1068 745.524C21.8393 732.802 -34.4661 743.726 -39.6547 769.925C-44.8433 796.124 3.04957 827.677 67.3171 840.399C131.585 853.122 187.89 842.197 193.079 815.998Z" fill="#3C95E5"/>
<path d="M172.779 852.13C184.381 826.066 161.99 790.791 122.769 773.34C83.5476 755.889 42.3477 762.872 30.7463 788.936C19.145 814.999 41.5354 850.275 80.7567 867.725C119.978 885.176 161.178 878.193 172.779 852.13Z" fill="#3C95E5"/>
<path d="M106.09 845.03C171.605 838.758 223.461 820.578 221.913 804.424C220.366 788.271 166.002 780.26 100.487 786.533C34.9721 792.805 -16.8839 810.985 -15.3367 827.139C-13.7895 843.292 40.575 851.303 106.09 845.03Z" fill="#3C95E5"/>
</g>
<g opacity="0.59">
<path d="M152.017 765.962C157.495 742.828 120.041 714.158 68.3602 701.925C16.6798 689.692 -29.6563 698.528 -35.1344 721.661C-40.6126 744.794 -3.15824 773.464 48.5221 785.698C100.203 797.931 146.539 789.095 152.017 765.962Z" fill="#3C95E5"/>
<path d="M130.279 792.695C140.526 768.723 123.564 738.494 92.3933 725.175C61.2227 711.857 27.6473 720.493 17.4005 744.465C7.15363 768.437 24.1156 798.667 55.2862 811.985C86.4567 825.303 120.032 816.667 130.279 792.695Z" fill="#3C95E5"/>
<path d="M77.2631 789.506C133.214 786.761 178.024 773.396 177.349 759.656C176.675 745.916 130.771 737.004 74.8203 739.749C18.8697 742.495 -25.9405 755.859 -25.2659 769.599C-24.5914 783.339 21.3124 792.252 77.2631 789.506Z" fill="#3C95E5"/>
</g>
<g opacity="0.05">
<path d="M224.067 744.187C227.879 731.777 214.517 716.667 194.224 710.437C173.93 704.207 154.39 709.216 150.578 721.626C146.767 734.035 160.128 749.145 180.422 755.375C200.715 761.606 220.256 756.596 224.067 744.187Z" fill="#3C95E5"/>
<path d="M180.292 769.244C145.485 768.656 157.567 720.85 192.423 721.44C227.23 722.028 215.147 769.834 180.292 769.244Z" fill="#3C95E5"/>
<path d="M233.311 749.226C223.255 764.258 133.678 753.216 143.741 738.172C153.796 723.14 243.373 734.183 233.311 749.226Z" fill="#3C95E5"/>
</g>
<g opacity="0.22">
<path d="M254.19 766.404C261.956 740.604 231.207 708.543 185.509 694.792C139.811 681.041 96.4698 690.809 88.7034 716.608C80.937 742.408 111.686 774.47 157.384 788.22C203.082 801.971 246.423 792.203 254.19 766.404Z" fill="#3C95E5"/>
<path d="M193.11 814.547C223.002 802.027 238.534 771.115 227.802 745.503C217.07 719.891 184.139 709.278 154.247 721.798C124.355 734.317 108.823 765.229 119.555 790.841C130.286 816.453 163.218 827.067 193.11 814.547Z" fill="#3C95E5"/>
<path d="M277.671 769.572C278.395 755.377 234.278 741.59 179.132 738.778C123.987 735.965 78.6954 745.193 77.9712 759.387C77.247 773.582 121.364 787.369 176.51 790.181C231.655 792.994 276.946 783.766 277.671 769.572Z" fill="#3C95E5"/>
</g>
<g opacity="0.19">
<path d="M169.376 791.593C179.412 755.509 129.923 710.237 58.8386 690.474C-12.2458 670.711 -78.0071 683.942 -88.0432 720.026C-98.0794 756.11 -48.59 801.382 22.4944 821.145C93.5788 840.908 159.34 827.677 169.376 791.593Z" fill="#3C95E5"/>
<path d="M136.647 803.5C141.257 762.353 107.359 724.783 60.9342 719.585C14.5098 714.387 -26.8609 743.53 -31.47 784.677C-36.079 825.823 -2.18106 863.393 44.2433 868.591C90.6677 873.789 132.038 844.647 136.647 803.5Z" fill="#3C95E5"/>
<path d="M206.252 789.414C206.389 768.887 139.888 751.804 57.7196 751.26C-24.4489 750.715 -91.17 766.914 -91.3062 787.441C-91.4423 807.968 -24.942 825.05 57.2265 825.595C139.395 826.14 206.116 809.941 206.252 789.414Z" fill="#3C95E5"/>
</g>
<g opacity="0.18">
<path d="M207.279 739.008C212.013 721.185 186.135 698.848 149.48 689.118C112.826 679.387 79.2738 685.948 74.5405 703.771C69.8071 721.594 95.6845 743.93 132.339 753.661C168.994 763.391 202.546 756.831 207.279 739.008Z" fill="#3C95E5"/>
<path d="M190.371 752.37C196.016 732.701 181.951 711.409 158.956 704.812C135.961 698.216 112.743 708.812 107.098 728.481C101.454 748.15 115.519 769.442 138.514 776.039C161.509 782.635 184.727 772.038 190.371 752.37Z" fill="#3C95E5"/>
<path d="M151.167 756.111C192.674 755.619 226.223 746.883 226.101 736.6C225.979 726.317 192.232 718.38 150.725 718.873C109.218 719.365 75.6693 728.101 75.7913 738.384C75.9134 748.667 109.66 756.604 151.167 756.111Z" fill="#3C95E5"/>
</g>
<g opacity="0.33">
<path d="M209.71 744.762C214.143 721.262 170.045 693.219 111.214 682.127C52.3823 671.034 1.09665 681.092 -3.33618 704.592C-7.76902 728.092 36.3296 756.135 95.1608 767.228C153.992 778.321 205.278 768.262 209.71 744.762Z" fill="#3C95E5"/>
<path d="M192.767 778.049C202.98 754.831 181.944 723.118 145.781 707.217C109.618 691.316 72.0223 697.247 61.8088 720.465C51.5953 743.683 72.6316 775.396 108.795 791.297C144.958 807.198 182.553 801.267 192.767 778.049Z" fill="#3C95E5"/>
<path d="M131.266 771.393C190.363 765.079 237.003 748.108 235.44 733.487C233.878 718.867 184.703 712.133 125.607 718.447C66.5097 724.762 19.8692 741.733 21.432 756.353C22.9948 770.974 72.1692 777.707 131.266 771.393Z" fill="#3C95E5"/>
</g>
<g opacity="0.01">
<path d="M20.9751 814.556C9.82021 821.739 -16.9099 821.109 -38.7283 813.148C-60.5467 805.186 -69.1943 792.911 -58.0393 785.728C-46.8844 778.545 -20.1544 779.175 1.66407 787.136C23.4825 795.097 32.13 807.373 20.9751 814.556Z" fill="#3C95E5"/>
<path d="M7.3545 830.604C-23.7016 837.743 -55.2577 797.058 -24.1578 789.908C6.89822 782.769 38.4544 823.454 7.3545 830.604Z" fill="#3C95E5"/>
<path d="M36.2168 803.085C40.6524 817.247 -47.6721 828.035 -52.1099 813.865C-56.5455 799.703 31.7789 788.915 36.2168 803.085Z" fill="#3C95E5"/>
</g>
<g opacity="0.19">
<path d="M294.756 787.056C298.022 776.136 284.795 762.538 265.212 756.683C245.629 750.828 227.106 754.933 223.84 765.852C220.574 776.771 233.801 790.369 253.384 796.225C272.967 802.08 291.49 797.975 294.756 787.056Z" fill="#3C95E5"/>
<path d="M259.012 809.709C226.769 810.65 229.751 766.75 262.037 765.807C294.28 764.866 291.299 808.766 259.012 809.709Z" fill="#3C95E5"/>
<path d="M304.547 789.294C297.832 803.364 213.228 797.139 219.945 783.059C226.66 768.989 311.266 775.214 304.547 789.294Z" fill="#3C95E5"/>
</g>
<g opacity="0.09">
<path d="M333.064 773.237C343.507 739.173 305.75 697.394 248.731 679.922C191.712 662.449 137.023 675.9 126.581 709.965C116.138 744.029 153.895 785.808 210.914 803.28C267.933 820.753 322.621 807.302 333.064 773.237Z" fill="#3C95E5"/>
<path d="M258.63 831.239C296.407 810.8 313.671 769.546 297.189 739.095C280.707 708.645 236.722 700.529 198.944 720.967C161.167 741.406 143.904 782.66 160.385 813.111C176.867 843.561 220.853 851.678 258.63 831.239Z" fill="#3C95E5"/>
<path d="M361.425 780.931C362.794 762.516 307.123 743.369 237.081 738.165C167.039 732.961 109.148 743.671 107.78 762.086C106.411 780.501 162.082 799.649 232.124 804.852C302.166 810.056 360.057 799.347 361.425 780.931Z" fill="#3C95E5"/>
</g>
<path style="mix-blend-mode:multiply" d="M-105.261 807.728H588.897C594.774 802.636 599.767 796.593 604.068 788.81C614.08 770.698 594.162 757.881 572.102 756.714C556.722 755.9 542.851 757.977 528.419 754.975C520.936 753.42 507.682 748.277 499.412 750.172C488.332 752.711 487.603 746.323 478.252 748.661C469.018 750.97 467.382 753.284 459.274 751.779C442.299 748.628 439.026 743.612 408.339 726.235C403.502 723.495 407.904 721.638 405.568 718.762C388.62 716.817 397.074 718.394 381.756 714.231C372.224 711.643 366.417 728.761 340.949 732.007C322.634 734.341 317.483 738.852 305.402 739.692C297.867 740.219 294.054 743.151 289.702 745.645C276.88 752.999 282.035 753.227 245.216 737.629C146.544 695.824 229.011 710.724 115.207 732.915C98.3377 736.205 96.3787 739.866 72.5728 746.461C55.076 751.308 55.3305 747.698 44.4037 751.363C11.6717 762.34 -29.1353 766.564 -66.496 769.702C-77.7716 770.65 -85.2345 775.378 -95.0184 778.381C-106.673 781.958 -112.116 776.574 -108.711 801.511C-108.422 803.627 -107.206 805.706 -105.263 807.726L-105.261 807.728Z" fill="url(#paint3_linear_0_715)"/>
</g>
</g>
<defs>
<linearGradient id="paint0_linear_0_715" x1="188.057" y1="368.989" x2="188.057" y2="637.979" gradientUnits="userSpaceOnUse">
<stop stop-color="white"/>
<stop offset="0.43" stop-color="#D4DEFF"/>
<stop offset="1"/>
</linearGradient>
<linearGradient id="paint1_linear_0_715" x1="188.056" y1="741.289" x2="188.056" y2="358.486" gradientUnits="userSpaceOnUse">
<stop stop-color="#F4FAFF"/>
<stop offset="0.16" stop-color="#FBFCFF"/>
<stop offset="0.31" stop-color="#E6F3FF"/>
<stop offset="0.45" stop-color="#CAE6FF"/>
<stop offset="0.59" stop-color="#B4DBFF"/>
<stop offset="0.73" stop-color="#7EC0FB"/>
<stop offset="0.86" stop-color="#4FA5F3"/>
<stop offset="1" stop-color="#3C95E5"/>
</linearGradient>
<linearGradient id="paint2_linear_0_715" x1="246.814" y1="835.108" x2="246.814" y2="608.818" gradientUnits="userSpaceOnUse">
<stop stop-color="#F4FAFF"/>
<stop offset="0.16" stop-color="#FBFCFF"/>
<stop offset="0.31" stop-color="#E6F3FF"/>
<stop offset="0.45" stop-color="#CAE6FF"/>
<stop offset="0.59" stop-color="#B4DBFF"/>
<stop offset="0.73" stop-color="#7EC0FB"/>
<stop offset="0.86" stop-color="#4FA5F3"/>
<stop offset="1" stop-color="#3C95E5"/>
</linearGradient>
<linearGradient id="paint3_linear_0_715" x1="248.509" y1="802.991" x2="248.509" y2="692.141" gradientUnits="userSpaceOnUse">
<stop stop-color="#F4FAFF"/>
<stop offset="0.16" stop-color="#FBFCFF"/>
<stop offset="0.31" stop-color="#E6F3FF"/>
<stop offset="0.45" stop-color="#CAE6FF"/>
<stop offset="0.59" stop-color="#B4DBFF"/>
<stop offset="0.73" stop-color="#7EC0FB"/>
<stop offset="0.86" stop-color="#4FA5F3"/>
<stop offset="1" stop-color="#3C95E5"/>
</linearGradient>
<clipPath id="clip0_0_715">
<rect width="375" height="812" fill="white"/>
</clipPath>
</defs>
</svg>
