<svg width="31" height="31" viewBox="0 0 31 31" fill="none" xmlns="http://www.w3.org/2000/svg">
<path d="M15.5 12.555C18.7102 12.555 21.3125 9.95266 21.3125 6.7425C21.3125 3.53235 18.7102 0.93 15.5 0.93C12.2898 0.93 9.6875 3.53235 9.6875 6.7425C9.6875 9.95266 12.2898 12.555 15.5 12.555Z" fill="#4F9E81"/>
<path d="M29.8956 26.0012C29.2927 23.2561 27.9102 20.7433 25.9141 18.7647C25.4296 18.2785 24.9046 17.8345 24.3447 17.4375C21.795 15.525 18.6872 14.5038 15.5 14.5312C11.6029 14.5113 7.8559 16.0331 5.07626 18.7647C3.08015 20.7433 1.69763 23.2561 1.0947 26.0012C0.989898 26.4867 0.995559 26.9894 1.11126 27.4724C1.22696 27.9553 1.44975 28.406 1.76313 28.7912C2.08769 29.1847 2.49639 29.5004 2.95912 29.715C3.42186 29.9296 3.92685 30.0377 4.43688 30.0312H26.5631C27.0747 30.0316 27.5797 29.9168 28.0409 29.6954C28.502 29.4741 28.9075 29.1518 29.2272 28.7525C29.535 28.3718 29.7545 27.9276 29.8701 27.4519C29.9857 26.9762 29.9944 26.4807 29.8956 26.0012Z" fill="#4F9E81"/>
</svg>
