<svg width="24" height="24" viewBox="0 0 24 24" fill="none" xmlns="http://www.w3.org/2000/svg">
<path fill-rule="evenodd" clip-rule="evenodd" d="M13 1.25C10.9289 1.25 9.25 2.92893 9.25 5V13C9.25 15.0711 10.9289 16.75 13 16.75H17C19.0711 16.75 20.75 15.0711 20.75 13V5C20.75 2.92893 19.0711 1.25 17 1.25H13ZM10.75 5C10.75 3.75736 11.7574 2.75 13 2.75H17C18.2426 2.75 19.25 3.75736 19.25 5V13C19.25 14.2426 18.2426 15.25 17 15.25H13C11.7574 15.25 10.75 14.2426 10.75 13V5Z" fill="white"/>
<path d="M4.75 11C4.75 9.75736 5.75736 8.75 7 8.75H7.5C7.91421 8.75 8.25 8.41421 8.25 8C8.25 7.58579 7.91421 7.25 7.5 7.25H7C4.92893 7.25 3.25 8.92893 3.25 11V19C3.25 21.0711 4.92893 22.75 7 22.75H11C13.0711 22.75 14.75 21.0711 14.75 19V18.5C14.75 18.0858 14.4142 17.75 14 17.75C13.5858 17.75 13.25 18.0858 13.25 18.5V19C13.25 20.2426 12.2426 21.25 11 21.25H7C5.75736 21.25 4.75 20.2426 4.75 19V11Z" fill="white"/>
</svg>
