<svg width="41" height="39" viewBox="0 0 41 39" fill="none" xmlns="http://www.w3.org/2000/svg">
<path d="M27.4392 0C27.2872 0.0058429 27.1411 0.0605431 27.0226 0.155971C26.9042 0.251399 26.8197 0.38246 26.7818 0.529677L26.7789 0.543802L24.7712 8.0299L15.8935 5.65695C15.8037 5.63282 15.7101 5.62662 15.6179 5.63871C15.5257 5.65079 15.4369 5.68091 15.3564 5.72736C15.2758 5.7738 15.2053 5.83566 15.1488 5.90937C15.0922 5.98309 15.0508 6.06723 15.0268 6.15696L13.5635 11.6148C13.5155 11.7953 13.5411 11.9875 13.6346 12.1492C13.7282 12.311 13.882 12.4291 14.0626 12.4778L22.9417 14.8564L19.3406 28.2805C19.3106 28.3925 19.3087 28.5102 19.335 28.6231C19.3613 28.736 19.4151 28.8407 19.4915 28.928C19.568 29.0152 19.6647 29.0823 19.7733 29.1234C19.8818 29.1644 19.9988 29.1781 20.1139 29.1633C20.6088 29.0997 21.0994 29.0503 21.5886 29.0362C21.6636 29.0357 21.7381 29.0233 21.8092 28.9995C21.8531 28.9861 21.898 28.9761 21.9435 28.9698C21.952 28.9699 21.9605 28.9699 21.9689 28.9698H22.0015C22.0509 28.9698 22.0976 28.9839 22.1457 28.9882C22.1971 29.0006 22.2497 29.0072 22.3026 29.0079C23.4309 29.0305 24.5436 29.1958 25.6422 29.4458C25.8201 29.486 26.0066 29.456 26.1629 29.362C26.3191 29.2681 26.433 29.1174 26.4806 28.9415L29.7707 16.6855L38.6484 19.0599C38.8292 19.1078 39.0215 19.0823 39.1834 18.9888C39.3453 18.8954 39.4636 18.7416 39.5123 18.5613L40.9757 13.1035C40.9998 13.0139 41.0061 12.9204 40.9941 12.8284C40.9821 12.7364 40.9521 12.6477 40.9057 12.5673C40.8594 12.4868 40.7976 12.4164 40.724 12.3598C40.6503 12.3032 40.5663 12.2617 40.4766 12.2377L31.5974 9.86188L33.6108 2.35883C33.635 2.26924 33.6412 2.17576 33.6292 2.08375C33.6172 1.99174 33.5872 1.903 33.5408 1.82259C33.4945 1.74218 33.4327 1.67168 33.3591 1.61512C33.2855 1.55857 33.2014 1.51706 33.1117 1.49298L27.6499 0.0310745C27.5812 0.0130115 27.5102 0.00539275 27.4392 0.00847489V0ZM22.0015 29.6647C18.7255 29.6789 15.5655 30.7665 12.923 32.6917C11.8131 32.3428 10.665 32.1111 9.49574 32.1069C9.4948 32.1069 9.49385 32.1069 9.49291 32.1069C5.67969 32.1069 2.12945 33.9699 0.114677 37.0477C0.0452126 37.1542 0.00579878 37.2774 0.000592334 37.4044C-0.00461411 37.5314 0.0245797 37.6575 0.0850947 37.7693C0.14561 37.8811 0.235203 37.9745 0.344426 38.0396C0.453649 38.1048 0.578453 38.1393 0.705677 38.1396H34.6387C34.7645 38.1396 34.888 38.1061 34.9965 38.0425C35.105 37.979 35.1946 37.8876 35.2559 37.7779C35.3173 37.6683 35.3483 37.5442 35.3457 37.4186C35.343 37.2929 35.3069 37.1703 35.241 37.0633C33.85 34.8041 31.9034 32.9381 29.5864 31.6431C27.2695 30.348 24.6593 29.667 22.0043 29.6647C22.0033 29.6647 22.0024 29.6647 22.0015 29.6647Z" fill="#4F9E81"/>
</svg>
