<svg width="198" height="111" viewBox="0 0 198 111" fill="none" xmlns="http://www.w3.org/2000/svg">
<g clip-path="url(#clip0_2013_862)">
<path d="M16.7968 104.294C16.4124 108.686 13.3068 111 8.43581 111C3.56481 111 0 108.341 0 103.292V98.0526C0 92.9666 3.33691 90.3826 8.43581 90.3826C13.5347 90.3826 16.7968 92.9632 16.7968 98.0526V102.021H4.29614V103.562C4.29614 105.876 5.752 107.302 8.43921 107.302C11.1264 107.302 12.2727 106.03 12.504 104.297H16.8002L16.7968 104.294ZM4.29614 98.743H12.5415V97.7792C12.5415 95.2738 10.9291 94.0809 8.43921 94.0809C5.94929 94.0809 4.29614 95.2772 4.29614 97.7792V98.743Z" fill="#3C95E5"/>
<path d="M24.1611 90.7654H27.4198L27.9946 92.7683C29.2974 91.1892 31.2941 90.3792 33.7466 90.3792C38.1176 90.3792 40.9579 92.8846 40.9579 97.9706V110.61H36.7026V97.6629C36.7026 95.1951 35.1311 94.0774 32.6377 94.0774C30.1444 94.0774 28.4198 95.2737 28.4198 97.7757V110.607H24.1645V90.762L24.1611 90.7654Z" fill="#3C95E5"/>
<path d="M64.9285 103.484V103.521C64.9285 108.378 61.6699 110.997 56.5676 110.997C51.4653 110.997 48.1317 108.337 48.1317 103.289V98.0868C48.1317 93.0384 51.4312 90.3792 56.6084 90.3792C61.7855 90.3792 64.9319 93.0008 64.9319 97.8543V97.8919H60.6766V97.5843C60.6766 95.3113 59.1425 94.0774 56.6118 94.0774C54.081 94.0774 52.4313 95.3489 52.4313 97.7757V103.556C52.4313 106.023 54.0028 107.295 56.5744 107.295C59.1459 107.295 60.6766 106.061 60.6766 103.788V103.48H64.9319L64.9285 103.484Z" fill="#3C95E5"/>
<path d="M88.1678 103.33C88.1678 108.416 84.8683 111 79.7694 111C74.6705 111 71.371 108.419 71.371 103.33V98.0492C71.371 92.9632 74.7079 90.3792 79.8068 90.3792C84.9057 90.3792 88.1678 92.9597 88.1678 98.0492V103.33ZM83.9091 97.7791C83.9091 95.2737 82.2968 94.0809 79.8068 94.0809C77.3169 94.0809 75.6638 95.2772 75.6638 97.7791V103.597C75.6638 106.102 77.3135 107.295 79.766 107.295C82.2185 107.295 83.9091 106.099 83.9091 103.597V97.7791Z" fill="#3C95E5"/>
<path d="M112.176 110.614H108.876L108.302 108.611C106.999 110.19 105.043 111 102.587 111C98.2159 111 95.3757 108.495 95.3757 103.409V90.7688H99.631V103.716C99.631 106.184 101.202 107.298 103.696 107.298C106.189 107.298 107.914 106.064 107.914 103.6V90.7688H112.169V110.614H112.176Z" fill="#3C95E5"/>
<path d="M120.037 90.7654H123.295L123.87 92.7683C125.173 91.1892 127.17 90.3792 129.622 90.3792C133.993 90.3792 136.834 92.8846 136.834 97.9706V110.61H132.578V97.6629C132.578 95.1951 131.007 94.0774 128.513 94.0774C126.02 94.0774 124.296 95.2737 124.296 97.7757V110.607H120.04V90.762L120.037 90.7654Z" fill="#3C95E5"/>
<path d="M150.525 103.638C150.525 106.912 151.637 107.531 156.049 107.066V110.61C147.957 111.92 146.269 108.915 146.269 103.405V94.4638H142.817V90.7655H146.269V84.7908L150.525 83.5193V90.7655H156.049V94.4638H150.525V103.634V103.638Z" fill="#3C95E5"/>
<path d="M179.21 104.294C178.826 108.686 175.72 111 170.849 111C165.978 111 162.413 108.341 162.413 103.292V98.0526C162.413 92.9666 165.75 90.3826 170.849 90.3826C175.948 90.3826 179.21 92.9632 179.21 98.0526V102.021H166.706V103.562C166.706 105.876 168.162 107.302 170.849 107.302C173.536 107.302 174.686 106.03 174.914 104.297H179.21V104.294ZM166.706 98.743H174.951V97.7792C174.951 95.2738 173.339 94.0809 170.849 94.0809C168.359 94.0809 166.706 95.2772 166.706 97.7792V98.743Z" fill="#3C95E5"/>
<path d="M186.571 90.7656H189.83L190.483 93.0761C192.207 90.9194 195.047 89.9555 198 90.6083V94.4639C193.435 93.77 190.83 95.2329 190.83 97.7793V110.611H186.574V90.7656H186.571Z" fill="#3C95E5"/>
<path d="M130.745 45.5792V29.9521C130.745 10.1276 117.785 0 98.0561 0C78.3272 0 65.2245 10.1276 65.2245 29.9521V48.1837C65.2245 68.1518 78.4734 78.1358 97.9132 78.1358C117.353 78.1358 128.728 69.5976 130.602 52.0905H109.723C108.57 56.575 105.835 60.0477 97.9166 60.0477C89.9978 60.0477 86.1099 55.9973 86.1099 49.6296V45.5792H130.748H130.745ZM88.6032 17.801H94.6205V12.1271H101.349V17.801H107.366V24.5618H101.349V37.1401H94.6205V24.5618H88.6032V17.801Z" fill="#3C95E5"/>
</g>
<defs>
<clipPath id="clip0_2013_862">
<rect width="198" height="111" fill="white"/>
</clipPath>
</defs>
</svg>
