<svg width="191" height="32" viewBox="0 0 191 32" fill="none" xmlns="http://www.w3.org/2000/svg">
<path d="M46.4035 21.5778C46.0968 25.0826 43.6186 26.9291 39.7316 26.9291C35.8446 26.9291 33 24.8071 33 20.7786V16.5973C33 12.5388 35.6628 10.4768 39.7316 10.4768C43.8004 10.4768 46.4035 12.5361 46.4035 16.5973V19.764H36.4282V20.9941C36.4282 22.8406 37.59 23.978 39.7343 23.978C41.8787 23.978 42.7934 22.9633 42.978 21.5805H46.4062L46.4035 21.5778ZM36.4282 17.1483H43.0078V16.3791C43.0078 14.3799 41.7212 13.428 39.7343 13.428C37.7474 13.428 36.4282 14.3826 36.4282 16.3791V17.1483Z" fill="#3C95E5"/>
<path d="M52.28 10.7823H54.8804L55.3391 12.3806C56.3787 11.1205 57.972 10.4741 59.9291 10.4741C63.417 10.4741 65.6835 12.4734 65.6835 16.5319V26.6182H62.2879V16.2864C62.2879 14.3172 61.0338 13.4253 59.0442 13.4253C57.0546 13.4253 55.6784 14.3799 55.6784 16.3764V26.6155H52.2827V10.7796L52.28 10.7823Z" fill="#3C95E5"/>
<path d="M84.8117 20.9314V20.9614C84.8117 24.8372 82.2113 26.9264 78.1398 26.9264C74.0683 26.9264 71.4082 24.8044 71.4082 20.7759V16.6246C71.4082 12.5961 74.0411 10.4741 78.1724 10.4741C82.3036 10.4741 84.8144 12.5661 84.8144 16.4392V16.4692H81.4188V16.2237C81.4188 14.4099 80.1946 13.4253 78.1751 13.4253C76.1556 13.4253 74.8391 14.4399 74.8391 16.3764V20.9887C74.8391 22.9579 76.0932 23.9725 78.1452 23.9725C80.1973 23.9725 81.4188 22.9879 81.4188 21.1741V20.9286H84.8144L84.8117 20.9314Z" fill="#3C95E5"/>
<path d="M103.356 20.8086C103.356 24.8672 100.723 26.9292 96.6544 26.9292C92.5856 26.9292 89.9526 24.8699 89.9526 20.8086V16.5946C89.9526 12.5361 92.6154 10.4741 96.6842 10.4741C100.753 10.4741 103.356 12.5334 103.356 16.5946V20.8086ZM99.9578 16.3792C99.9578 14.3799 98.6711 13.428 96.6842 13.428C94.6973 13.428 93.3782 14.3826 93.3782 16.3792V21.0214C93.3782 23.0206 94.6946 23.9725 96.6517 23.9725C98.6087 23.9725 99.9578 23.0179 99.9578 21.0214V16.3792Z" fill="#3C95E5"/>
<path d="M122.514 26.6209H119.881L119.422 25.0226C118.383 26.2827 116.822 26.9291 114.862 26.9291C111.374 26.9291 109.108 24.9299 109.108 20.8714V10.785H112.504V21.1168C112.504 23.0861 113.758 23.9753 115.747 23.9753C117.737 23.9753 119.113 22.9906 119.113 21.0241V10.785H122.509V26.6209H122.514Z" fill="#3C95E5"/>
<path d="M128.787 10.7823H131.387L131.846 12.3806C132.886 11.1205 134.479 10.4741 136.436 10.4741C139.924 10.4741 142.191 12.4734 142.191 16.5319V26.6182H138.795V16.2864C138.795 14.3172 137.541 13.4253 135.551 13.4253C133.562 13.4253 132.185 14.3799 132.185 16.3764V26.6155H128.79V10.7796L128.787 10.7823Z" fill="#3C95E5"/>
<path d="M153.116 21.0541C153.116 23.667 154.003 24.1607 157.524 23.7898V26.6182C151.066 27.6628 149.72 25.2654 149.72 20.8686V13.7335H146.965V10.7823H149.72V6.01463L153.116 5V10.7823H157.524V13.7335H153.116V21.0514V21.0541Z" fill="#3C95E5"/>
<path d="M176.006 21.5778C175.699 25.0826 173.221 26.9291 169.334 26.9291C165.447 26.9291 162.602 24.8071 162.602 20.7786V16.5973C162.602 12.5388 165.265 10.4768 169.334 10.4768C173.403 10.4768 176.006 12.5361 176.006 16.5973V19.764H166.028V20.9941C166.028 22.8406 167.19 23.978 169.334 23.978C171.478 23.978 172.396 22.9633 172.578 21.5805H176.006V21.5778ZM166.028 17.1483H172.607V16.3791C172.607 14.3799 171.321 13.428 169.334 13.428C167.347 13.428 166.028 14.3826 166.028 16.3791V17.1483Z" fill="#3C95E5"/>
<path d="M181.88 10.7822H184.48L185.001 12.626C186.377 10.905 188.644 10.1358 191 10.6568V13.7334C187.357 13.1797 185.278 14.3471 185.278 16.3791V26.6181H181.882V10.7822H181.88Z" fill="#3C95E5"/>
<path d="M26.9986 18.6667V12.2667C26.9986 4.14768 21.6583 0 13.5287 0C5.39916 0 0 4.14768 0 12.2667V19.7333C0 27.9111 5.45943 32 13.4699 32C21.4803 32 26.1674 28.5032 26.9397 21.3333H18.3364C17.8612 23.1699 16.7343 24.5921 13.4713 24.5921C10.2082 24.5921 8.60613 22.9333 8.60613 20.3255V18.6667H27H26.9986ZM9.63355 7.29029H12.1131V4.96658H14.8855V7.29029H17.3651V10.0591H14.8855V15.2105H12.1131V10.0591H9.63355V7.29029Z" fill="#3C95E5"/>
</svg>
