<svg width="14" height="14" viewBox="0 0 14 14" fill="none" xmlns="http://www.w3.org/2000/svg">
<path d="M12.4661 6.99968C12.4665 7.21006 12.4072 7.41624 12.2951 7.59425C12.183 7.77226 12.0227 7.91478 11.8327 8.00524L3.69384 11.8608C3.54488 11.942 3.37986 11.9894 3.21051 11.9997C3.02519 11.9993 2.8429 11.9526 2.68025 11.8637C2.5176 11.7749 2.37976 11.6468 2.27926 11.4911C2.17877 11.3354 2.11882 11.157 2.10487 10.9722C2.09092 10.7874 2.12342 10.602 2.1994 10.433L3.46607 7.55524H6.54384C6.69119 7.55524 6.83249 7.49671 6.93668 7.39252C7.04087 7.28833 7.0994 7.14703 7.0994 6.99968C7.0994 6.85234 7.04087 6.71103 6.93668 6.60685C6.83249 6.50266 6.69119 6.44413 6.54384 6.44413H3.46607L2.1994 3.59413C2.10762 3.38702 2.08133 3.15681 2.12407 2.93434C2.1668 2.71188 2.27651 2.50779 2.4385 2.34943C2.60048 2.19107 2.807 2.08601 3.03038 2.04832C3.25375 2.01063 3.48331 2.04213 3.68829 2.13857L11.8272 5.99413C12.0181 6.08379 12.1796 6.22597 12.2928 6.40404C12.4059 6.58211 12.466 6.78871 12.4661 6.99968Z" fill="#236EB1"/>
</svg>
