<svg width="28" height="28" viewBox="0 0 28 28" fill="none" xmlns="http://www.w3.org/2000/svg">
<g clip-path="url(#clip0_0_2369)">
<path d="M14 0C6.268 0 0 6.268 0 14C0 21.732 6.268 28 14 28C21.732 28 28 21.732 28 14C28 6.268 21.732 0 14 0ZM20.093 20.3178C19.915 20.6224 19.5946 20.7922 19.2655 20.7923C19.1015 20.7923 18.9353 20.7501 18.7834 20.6614C16.2676 19.1911 13.3612 18.9548 11.3655 19.0155C9.15494 19.0827 7.53381 19.5191 7.5177 19.5236C7.00812 19.6628 6.48151 19.3629 6.34173 18.8534C6.20201 18.3439 6.50083 17.8176 7.01015 17.6773C7.08322 17.6572 8.8277 17.1834 11.2536 17.1034C12.6825 17.0563 14.0581 17.1558 15.3416 17.3993C16.9673 17.7077 18.4503 18.2491 19.7495 19.0083C20.206 19.275 20.3597 19.8614 20.093 20.3178ZM21.8728 16.6212C21.662 16.9821 21.2825 17.1832 20.8927 17.1833C20.6984 17.1833 20.5015 17.1333 20.3216 17.0282C17.3416 15.2866 13.8988 15.0068 11.535 15.0786C8.91642 15.1583 6.99614 15.6752 6.97708 15.6805C6.37361 15.8451 5.74971 15.4902 5.58413 14.8866C5.41861 14.2831 5.77263 13.6598 6.3759 13.4936C6.46246 13.4697 8.52881 12.9084 11.4023 12.8137C13.095 12.7579 14.7244 12.8758 16.2448 13.1642C18.1705 13.5296 19.9271 14.1708 21.4659 15.07C22.0067 15.386 22.1889 16.0806 21.8728 16.6212ZM22.967 13.2601C22.7286 13.2601 22.4871 13.1989 22.2664 13.0699C15.1817 8.92945 5.99144 11.3909 5.89945 11.4163C5.15875 11.6204 4.39303 11.1854 4.18901 10.4448C3.98493 9.70413 4.41994 8.93835 5.16058 8.73433C5.26671 8.70507 7.80133 8.01661 11.326 7.9004C13.4024 7.83204 15.4009 7.97661 17.2658 8.33036C19.6279 8.77846 21.7826 9.56494 23.6701 10.668C24.3333 11.0556 24.5568 11.9075 24.1692 12.5708C23.9106 13.0134 23.4451 13.2601 22.967 13.2601Z" fill="#00D95F"/>
</g>
<defs>
<clipPath id="clip0_0_2369">
<rect width="28" height="28" fill="white"/>
</clipPath>
</defs>
</svg>
