<svg width="32" height="32" viewBox="0 0 32 32" fill="none" xmlns="http://www.w3.org/2000/svg">
<path d="M16 32C19.1645 32 22.2579 31.0616 24.8891 29.3035C27.5203 27.5454 29.5711 25.0466 30.7821 22.1229C31.9931 19.1993 32.3099 15.9823 31.6926 12.8786C31.0752 9.77486 29.5513 6.92394 27.3137 4.6863C25.0761 2.44866 22.2251 0.924806 19.1214 0.307443C16.0177 -0.309921 12.8007 0.00693262 9.87706 1.21793C6.95344 2.42894 4.45459 4.4797 2.69649 7.11088C0.938383 9.74207 0 12.8355 0 16C0 20.2435 1.68571 24.3131 4.68629 27.3137C6.17203 28.7994 7.93585 29.978 9.87706 30.7821C11.8183 31.5861 13.8988 32 16 32ZM10.0688 14.8688C10.2173 14.7202 10.3936 14.6023 10.5877 14.5218C10.7818 14.4414 10.9899 14.3999 11.2 14.3999C11.4101 14.3999 11.6182 14.4414 11.8123 14.5218C12.0064 14.6023 12.1827 14.7202 12.3312 14.8688L14.4 16.9374L19.6688 11.6688C19.9706 11.3774 20.3747 11.2161 20.7942 11.2197C21.2137 11.2234 21.6151 11.3916 21.9117 11.6883C22.2084 11.9849 22.3766 12.3862 22.3803 12.8058C22.3839 13.2253 22.2226 13.6294 21.9312 13.9312L15.5312 20.3312C15.3827 20.4798 15.2063 20.5977 15.0122 20.6782C14.8181 20.7586 14.6101 20.8 14.4 20.8C14.1899 20.8 13.9818 20.7586 13.7878 20.6782C13.5937 20.5977 13.4173 20.4798 13.2688 20.3312L10.0688 17.1312C9.92016 16.9827 9.80225 16.8064 9.7218 16.6123C9.64135 16.4182 9.59994 16.2101 9.59994 16C9.59994 15.7899 9.64135 15.5818 9.7218 15.3877C9.80225 15.1936 9.92016 15.0173 10.0688 14.8688Z" fill="white"/>
</svg>
